<svg width="32" height="32" viewBox="0 0 32 32" fill="none" xmlns="http://www.w3.org/2000/svg">
<path d="M14 9C14 8.72386 13.7761 8.5 13.5 8.5H11.5C10.1193 8.5 9 9.61929 9 11C9 12.3703 10.1011 13.4208 11.4246 13.4957C11.4963 13.4998 11.5448 13.5733 11.5166 13.6393L11.007 14.8316C10.8924 15.0996 11.0168 15.4097 11.2848 15.5243C11.5528 15.6388 11.8629 15.5144 11.9774 15.2464L12.5942 13.8035C12.6729 13.6194 12.8537 13.5 13.0539 13.5H13.104C13.3801 13.5 13.604 13.2761 13.604 13C13.604 12.7239 13.3801 12.5 13.104 12.5H11.5C10.6716 12.5 10 11.8284 10 11C10 10.1716 10.6716 9.5 11.5 9.5H13.5C13.7761 9.5 14 9.27614 14 9Z" fill="url(#paint0_linear_8116_19301)"/>
<path d="M12.6808 8.5H11.5C10.1193 8.5 9 9.61929 9 11C9 12.3703 10.1011 13.4208 11.4246 13.4957C11.4963 13.4998 11.5448 13.5733 11.5166 13.6393L11.007 14.8316C10.8924 15.0996 11.0168 15.4097 11.2848 15.5243C11.5528 15.6388 11.8629 15.5144 11.9774 15.2464L12.5942 13.8035C12.6729 13.6194 12.8537 13.5 13.0539 13.5H13.104C13.3801 13.5 13.604 13.2761 13.604 13C13.604 12.7239 13.3801 12.5 13.104 12.5H11.5C10.6716 12.5 10 11.8284 10 11C10 10.1716 10.6716 9.5 11.5 9.5H12.6808V8.5Z" fill="url(#paint1_radial_8116_19301)"/>
<path d="M12.6808 8.5H11.5C10.1193 8.5 9 9.61929 9 11C9 12.3703 10.1011 13.4208 11.4246 13.4957C11.4963 13.4998 11.5448 13.5733 11.5166 13.6393L11.007 14.8316C10.8924 15.0996 11.0168 15.4097 11.2848 15.5243C11.5528 15.6388 11.8629 15.5144 11.9774 15.2464L12.5942 13.8035C12.6729 13.6194 12.8537 13.5 13.0539 13.5H13.104C13.3801 13.5 13.604 13.2761 13.604 13C13.604 12.7239 13.3801 12.5 13.104 12.5H11.5C10.6716 12.5 10 11.8284 10 11C10 10.1716 10.6716 9.5 11.5 9.5H12.6808V8.5Z" fill="url(#paint2_radial_8116_19301)"/>
<path d="M12.6808 8.5H11.5C10.1193 8.5 9 9.61929 9 11C9 12.3703 10.1011 13.4208 11.4246 13.4957C11.4963 13.4998 11.5448 13.5733 11.5166 13.6393L11.007 14.8316C10.8924 15.0996 11.0168 15.4097 11.2848 15.5243C11.5528 15.6388 11.8629 15.5144 11.9774 15.2464L12.5942 13.8035C12.6729 13.6194 12.8537 13.5 13.0539 13.5H13.104C13.3801 13.5 13.604 13.2761 13.604 13C13.604 12.7239 13.3801 12.5 13.104 12.5H11.5C10.6716 12.5 10 11.8284 10 11C10 10.1716 10.6716 9.5 11.5 9.5H12.6808V8.5Z" fill="url(#paint3_radial_8116_19301)"/>
<path d="M12.6808 8.5H11.5C10.1193 8.5 9 9.61929 9 11C9 12.3703 10.1011 13.4208 11.4246 13.4957C11.4963 13.4998 11.5448 13.5733 11.5166 13.6393L11.007 14.8316C10.8924 15.0996 11.0168 15.4097 11.2848 15.5243C11.5528 15.6388 11.8629 15.5144 11.9774 15.2464L12.5942 13.8035C12.6729 13.6194 12.8537 13.5 13.0539 13.5H13.104C13.3801 13.5 13.604 13.2761 13.604 13C13.604 12.7239 13.3801 12.5 13.104 12.5H11.5C10.6716 12.5 10 11.8284 10 11C10 10.1716 10.6716 9.5 11.5 9.5H12.6808V8.5Z" fill="url(#paint4_radial_8116_19301)"/>
<path d="M12.6808 8.5H11.5C10.1193 8.5 9 9.61929 9 11C9 12.3703 10.1011 13.4208 11.4246 13.4957C11.4963 13.4998 11.5448 13.5733 11.5166 13.6393L11.007 14.8316C10.8924 15.0996 11.0168 15.4097 11.2848 15.5243C11.5528 15.6388 11.8629 15.5144 11.9774 15.2464L12.5942 13.8035C12.6729 13.6194 12.8537 13.5 13.0539 13.5H13.104C13.3801 13.5 13.604 13.2761 13.604 13C13.604 12.7239 13.3801 12.5 13.104 12.5H11.5C10.6716 12.5 10 11.8284 10 11C10 10.1716 10.6716 9.5 11.5 9.5H12.6808V8.5Z" fill="url(#paint5_radial_8116_19301)"/>
<path d="M12.6808 8.5H11.5C10.1193 8.5 9 9.61929 9 11C9 12.3703 10.1011 13.4208 11.4246 13.4957C11.4963 13.4998 11.5448 13.5733 11.5166 13.6393L11.007 14.8316C10.8924 15.0996 11.0168 15.4097 11.2848 15.5243C11.5528 15.6388 11.8629 15.5144 11.9774 15.2464L12.5942 13.8035C12.6729 13.6194 12.8537 13.5 13.0539 13.5H13.104C13.3801 13.5 13.604 13.2761 13.604 13C13.604 12.7239 13.3801 12.5 13.104 12.5H11.5C10.6716 12.5 10 11.8284 10 11C10 10.1716 10.6716 9.5 11.5 9.5H12.6808V8.5Z" fill="url(#paint6_radial_8116_19301)"/>
<path d="M12.6808 8.5H11.5C10.1193 8.5 9 9.61929 9 11C9 12.3703 10.1011 13.4208 11.4246 13.4957C11.4963 13.4998 11.5448 13.5733 11.5166 13.6393L11.007 14.8316C10.8924 15.0996 11.0168 15.4097 11.2848 15.5243C11.5528 15.6388 11.8629 15.5144 11.9774 15.2464L12.5942 13.8035C12.6729 13.6194 12.8537 13.5 13.0539 13.5H13.104C13.3801 13.5 13.604 13.2761 13.604 13C13.604 12.7239 13.3801 12.5 13.104 12.5H11.5C10.6716 12.5 10 11.8284 10 11C10 10.1716 10.6716 9.5 11.5 9.5H12.6808V8.5Z" fill="url(#paint7_radial_8116_19301)"/>
<path d="M12.6808 8.5H11.5C10.1193 8.5 9 9.61929 9 11C9 12.3703 10.1011 13.4208 11.4246 13.4957C11.4963 13.4998 11.5448 13.5733 11.5166 13.6393L11.007 14.8316C10.8924 15.0996 11.0168 15.4097 11.2848 15.5243C11.5528 15.6388 11.8629 15.5144 11.9774 15.2464L12.5942 13.8035C12.6729 13.6194 12.8537 13.5 13.0539 13.5H13.104C13.3801 13.5 13.604 13.2761 13.604 13C13.604 12.7239 13.3801 12.5 13.104 12.5H11.5C10.6716 12.5 10 11.8284 10 11C10 10.1716 10.6716 9.5 11.5 9.5H12.6808V8.5Z" fill="url(#paint8_radial_8116_19301)"/>
<path fill-rule="evenodd" clip-rule="evenodd" d="M19.8298 12.7408C20.1024 12.7849 20.2877 13.0415 20.2437 13.3141L19.7593 16.3141C19.7153 16.5868 19.4586 16.7721 19.186 16.7281C18.9134 16.684 18.7281 16.4274 18.7721 16.1548L19.2565 13.1548C19.3005 12.8821 19.5572 12.6968 19.8298 12.7408Z" fill="url(#paint9_radial_8116_19301)"/>
<path d="M7.50171 29.1306C10.3353 29.1306 12.6323 26.8336 12.6323 24C12.6323 21.1665 10.3353 18.8694 7.50171 18.8694C4.66815 18.8694 2.37109 21.1665 2.37109 24C2.37109 26.8336 4.66815 29.1306 7.50171 29.1306Z" fill="url(#paint10_radial_8116_19301)"/>
<path d="M7.50171 29.1306C10.3353 29.1306 12.6323 26.8336 12.6323 24C12.6323 21.1665 10.3353 18.8694 7.50171 18.8694C4.66815 18.8694 2.37109 21.1665 2.37109 24C2.37109 26.8336 4.66815 29.1306 7.50171 29.1306Z" fill="url(#paint11_radial_8116_19301)"/>
<path fill-rule="evenodd" clip-rule="evenodd" d="M7.5 28.5C9.98528 28.5 12 26.4853 12 24C12 21.5147 9.98528 19.5 7.5 19.5C5.01472 19.5 3 21.5147 3 24C3 26.4853 5.01472 28.5 7.5 28.5ZM13 24C13 27.0376 10.5376 29.5 7.5 29.5C4.46244 29.5 2 27.0376 2 24C2 20.9625 4.46244 18.5 7.5 18.5C10.5376 18.5 13 20.9625 13 24Z" fill="url(#paint12_linear_8116_19301)"/>
<path fill-rule="evenodd" clip-rule="evenodd" d="M7.5 28.5C9.98528 28.5 12 26.4853 12 24C12 21.5147 9.98528 19.5 7.5 19.5C5.01472 19.5 3 21.5147 3 24C3 26.4853 5.01472 28.5 7.5 28.5ZM13 24C13 27.0376 10.5376 29.5 7.5 29.5C4.46244 29.5 2 27.0376 2 24C2 20.9625 4.46244 18.5 7.5 18.5C10.5376 18.5 13 20.9625 13 24Z" fill="url(#paint13_linear_8116_19301)"/>
<path fill-rule="evenodd" clip-rule="evenodd" d="M7.5 28.5C9.98528 28.5 12 26.4853 12 24C12 21.5147 9.98528 19.5 7.5 19.5C5.01472 19.5 3 21.5147 3 24C3 26.4853 5.01472 28.5 7.5 28.5ZM13 24C13 27.0376 10.5376 29.5 7.5 29.5C4.46244 29.5 2 27.0376 2 24C2 20.9625 4.46244 18.5 7.5 18.5C10.5376 18.5 13 20.9625 13 24Z" fill="url(#paint14_radial_8116_19301)"/>
<path fill-rule="evenodd" clip-rule="evenodd" d="M7.5 28.5C9.98528 28.5 12 26.4853 12 24C12 21.5147 9.98528 19.5 7.5 19.5C5.01472 19.5 3 21.5147 3 24C3 26.4853 5.01472 28.5 7.5 28.5ZM13 24C13 27.0376 10.5376 29.5 7.5 29.5C4.46244 29.5 2 27.0376 2 24C2 20.9625 4.46244 18.5 7.5 18.5C10.5376 18.5 13 20.9625 13 24Z" fill="url(#paint15_radial_8116_19301)"/>
<path fill-rule="evenodd" clip-rule="evenodd" d="M7.5 28.5C9.98528 28.5 12 26.4853 12 24C12 21.5147 9.98528 19.5 7.5 19.5C5.01472 19.5 3 21.5147 3 24C3 26.4853 5.01472 28.5 7.5 28.5ZM13 24C13 27.0376 10.5376 29.5 7.5 29.5C4.46244 29.5 2 27.0376 2 24C2 20.9625 4.46244 18.5 7.5 18.5C10.5376 18.5 13 20.9625 13 24Z" fill="url(#paint16_radial_8116_19301)" fill-opacity="0.8"/>
<path d="M24.5017 29.1306C27.3353 29.1306 29.6323 26.8336 29.6323 24C29.6323 21.1665 27.3353 18.8694 24.5017 18.8694C21.6681 18.8694 19.3711 21.1665 19.3711 24C19.3711 26.8336 21.6681 29.1306 24.5017 29.1306Z" fill="url(#paint17_radial_8116_19301)"/>
<path d="M24.5017 29.1306C27.3353 29.1306 29.6323 26.8336 29.6323 24C29.6323 21.1665 27.3353 18.8694 24.5017 18.8694C21.6681 18.8694 19.3711 21.1665 19.3711 24C19.3711 26.8336 21.6681 29.1306 24.5017 29.1306Z" fill="url(#paint18_radial_8116_19301)"/>
<path fill-rule="evenodd" clip-rule="evenodd" d="M24.5 28.5C26.9853 28.5 29 26.4853 29 24C29 21.5147 26.9853 19.5 24.5 19.5C22.0147 19.5 20 21.5147 20 24C20 26.4853 22.0147 28.5 24.5 28.5ZM30 24C30 27.0376 27.5376 29.5 24.5 29.5C21.4624 29.5 19 27.0376 19 24C19 20.9625 21.4624 18.5 24.5 18.5C27.5376 18.5 30 20.9625 30 24Z" fill="url(#paint19_linear_8116_19301)"/>
<path fill-rule="evenodd" clip-rule="evenodd" d="M24.5 28.5C26.9853 28.5 29 26.4853 29 24C29 21.5147 26.9853 19.5 24.5 19.5C22.0147 19.5 20 21.5147 20 24C20 26.4853 22.0147 28.5 24.5 28.5ZM30 24C30 27.0376 27.5376 29.5 24.5 29.5C21.4624 29.5 19 27.0376 19 24C19 20.9625 21.4624 18.5 24.5 18.5C27.5376 18.5 30 20.9625 30 24Z" fill="url(#paint20_radial_8116_19301)"/>
<path fill-rule="evenodd" clip-rule="evenodd" d="M24.5 28.5C26.9853 28.5 29 26.4853 29 24C29 21.5147 26.9853 19.5 24.5 19.5C22.0147 19.5 20 21.5147 20 24C20 26.4853 22.0147 28.5 24.5 28.5ZM30 24C30 27.0376 27.5376 29.5 24.5 29.5C21.4624 29.5 19 27.0376 19 24C19 20.9625 21.4624 18.5 24.5 18.5C27.5376 18.5 30 20.9625 30 24Z" fill="url(#paint21_radial_8116_19301)"/>
<path fill-rule="evenodd" clip-rule="evenodd" d="M24.5 28.5C26.9853 28.5 29 26.4853 29 24C29 21.5147 26.9853 19.5 24.5 19.5C22.0147 19.5 20 21.5147 20 24C20 26.4853 22.0147 28.5 24.5 28.5ZM30 24C30 27.0376 27.5376 29.5 24.5 29.5C21.4624 29.5 19 27.0376 19 24C19 20.9625 21.4624 18.5 24.5 18.5C27.5376 18.5 30 20.9625 30 24Z" fill="url(#paint22_radial_8116_19301)" fill-opacity="0.8"/>
<path d="M12.029 15.2358C12.1592 14.9428 12.0273 14.5998 11.7343 14.4696C11.4414 14.3394 11.0983 14.4713 10.9681 14.7643L6.96814 23.7643C6.83794 24.0572 6.96988 24.4003 7.26282 24.5305C7.55576 24.6606 7.89879 24.5287 8.02899 24.2358L10.5888 18.4761C10.6154 18.4162 10.6915 18.3977 10.7427 18.4387L17.636 23.9533C17.796 24.0813 18.0117 24.1155 18.2034 24.0431C18.3952 23.9708 18.5346 23.8027 18.5702 23.6009L19.767 16.8192C19.7751 16.7731 19.8364 16.7624 19.8596 16.8031L24.0646 24.1678C24.2235 24.4462 24.5781 24.543 24.8565 24.3841C25.1349 24.2251 25.2317 23.8706 25.0727 23.5922L20.0026 14.7122C19.8814 14.4999 19.6401 14.3863 19.3992 14.4281C19.1583 14.47 18.9694 14.6584 18.9269 14.8992L17.597 22.4354L11.2494 17.3574C11.1784 17.3006 11.1546 17.203 11.1916 17.12L12.029 15.2358Z" fill="url(#paint23_linear_8116_19301)"/>
<path d="M12.029 15.2358C12.1592 14.9428 12.0273 14.5998 11.7343 14.4696C11.4414 14.3394 11.0983 14.4713 10.9681 14.7643L6.96814 23.7643C6.83794 24.0572 6.96988 24.4003 7.26282 24.5305C7.55576 24.6606 7.89879 24.5287 8.02899 24.2358L10.5888 18.4761C10.6154 18.4162 10.6915 18.3977 10.7427 18.4387L17.636 23.9533C17.796 24.0813 18.0117 24.1155 18.2034 24.0431C18.3952 23.9708 18.5346 23.8027 18.5702 23.6009L19.767 16.8192C19.7751 16.7731 19.8364 16.7624 19.8596 16.8031L24.0646 24.1678C24.2235 24.4462 24.5781 24.543 24.8565 24.3841C25.1349 24.2251 25.2317 23.8706 25.0727 23.5922L20.0026 14.7122C19.8814 14.4999 19.6401 14.3863 19.3992 14.4281C19.1583 14.47 18.9694 14.6584 18.9269 14.8992L17.597 22.4354L11.2494 17.3574C11.1784 17.3006 11.1546 17.203 11.1916 17.12L12.029 15.2358Z" fill="url(#paint24_radial_8116_19301)"/>
<path d="M12.029 15.2358C12.1592 14.9428 12.0273 14.5998 11.7343 14.4696C11.4414 14.3394 11.0983 14.4713 10.9681 14.7643L6.96814 23.7643C6.83794 24.0572 6.96988 24.4003 7.26282 24.5305C7.55576 24.6606 7.89879 24.5287 8.02899 24.2358L10.5888 18.4761C10.6154 18.4162 10.6915 18.3977 10.7427 18.4387L17.636 23.9533C17.796 24.0813 18.0117 24.1155 18.2034 24.0431C18.3952 23.9708 18.5346 23.8027 18.5702 23.6009L19.767 16.8192C19.7751 16.7731 19.8364 16.7624 19.8596 16.8031L24.0646 24.1678C24.2235 24.4462 24.5781 24.543 24.8565 24.3841C25.1349 24.2251 25.2317 23.8706 25.0727 23.5922L20.0026 14.7122C19.8814 14.4999 19.6401 14.3863 19.3992 14.4281C19.1583 14.47 18.9694 14.6584 18.9269 14.8992L17.597 22.4354L11.2494 17.3574C11.1784 17.3006 11.1546 17.203 11.1916 17.12L12.029 15.2358Z" fill="url(#paint25_radial_8116_19301)"/>
<path d="M12.029 15.2358C12.1592 14.9428 12.0273 14.5998 11.7343 14.4696C11.4414 14.3394 11.0983 14.4713 10.9681 14.7643L6.96814 23.7643C6.83794 24.0572 6.96988 24.4003 7.26282 24.5305C7.55576 24.6606 7.89879 24.5287 8.02899 24.2358L10.5888 18.4761C10.6154 18.4162 10.6915 18.3977 10.7427 18.4387L17.636 23.9533C17.796 24.0813 18.0117 24.1155 18.2034 24.0431C18.3952 23.9708 18.5346 23.8027 18.5702 23.6009L19.767 16.8192C19.7751 16.7731 19.8364 16.7624 19.8596 16.8031L24.0646 24.1678C24.2235 24.4462 24.5781 24.543 24.8565 24.3841C25.1349 24.2251 25.2317 23.8706 25.0727 23.5922L20.0026 14.7122C19.8814 14.4999 19.6401 14.3863 19.3992 14.4281C19.1583 14.47 18.9694 14.6584 18.9269 14.8992L17.597 22.4354L11.2494 17.3574C11.1784 17.3006 11.1546 17.203 11.1916 17.12L12.029 15.2358Z" fill="url(#paint26_radial_8116_19301)"/>
<path d="M12.029 15.2358C12.1592 14.9428 12.0273 14.5998 11.7343 14.4696C11.4414 14.3394 11.0983 14.4713 10.9681 14.7643L6.96814 23.7643C6.83794 24.0572 6.96988 24.4003 7.26282 24.5305C7.55576 24.6606 7.89879 24.5287 8.02899 24.2358L10.5888 18.4761C10.6154 18.4162 10.6915 18.3977 10.7427 18.4387L17.636 23.9533C17.796 24.0813 18.0117 24.1155 18.2034 24.0431C18.3952 23.9708 18.5346 23.8027 18.5702 23.6009L19.767 16.8192C19.7751 16.7731 19.8364 16.7624 19.8596 16.8031L24.0646 24.1678C24.2235 24.4462 24.5781 24.543 24.8565 24.3841C25.1349 24.2251 25.2317 23.8706 25.0727 23.5922L20.0026 14.7122C19.8814 14.4999 19.6401 14.3863 19.3992 14.4281C19.1583 14.47 18.9694 14.6584 18.9269 14.8992L17.597 22.4354L11.2494 17.3574C11.1784 17.3006 11.1546 17.203 11.1916 17.12L12.029 15.2358Z" fill="url(#paint27_linear_8116_19301)"/>
<path d="M12.029 15.2358C12.1592 14.9428 12.0273 14.5998 11.7343 14.4696C11.4414 14.3394 11.0983 14.4713 10.9681 14.7643L6.96814 23.7643C6.83794 24.0572 6.96988 24.4003 7.26282 24.5305C7.55576 24.6606 7.89879 24.5287 8.02899 24.2358L10.5888 18.4761C10.6154 18.4162 10.6915 18.3977 10.7427 18.4387L17.636 23.9533C17.796 24.0813 18.0117 24.1155 18.2034 24.0431C18.3952 23.9708 18.5346 23.8027 18.5702 23.6009L19.767 16.8192C19.7751 16.7731 19.8364 16.7624 19.8596 16.8031L24.0646 24.1678C24.2235 24.4462 24.5781 24.543 24.8565 24.3841C25.1349 24.2251 25.2317 23.8706 25.0727 23.5922L20.0026 14.7122C19.8814 14.4999 19.6401 14.3863 19.3992 14.4281C19.1583 14.47 18.9694 14.6584 18.9269 14.8992L17.597 22.4354L11.2494 17.3574C11.1784 17.3006 11.1546 17.203 11.1916 17.12L12.029 15.2358Z" fill="url(#paint28_radial_8116_19301)"/>
<path d="M12.029 15.2358C12.1592 14.9428 12.0273 14.5998 11.7343 14.4696C11.4414 14.3394 11.0983 14.4713 10.9681 14.7643L6.96814 23.7643C6.83794 24.0572 6.96988 24.4003 7.26282 24.5305C7.55576 24.6606 7.89879 24.5287 8.02899 24.2358L10.5888 18.4761C10.6154 18.4162 10.6915 18.3977 10.7427 18.4387L17.636 23.9533C17.796 24.0813 18.0117 24.1155 18.2034 24.0431C18.3952 23.9708 18.5346 23.8027 18.5702 23.6009L19.767 16.8192C19.7751 16.7731 19.8364 16.7624 19.8596 16.8031L24.0646 24.1678C24.2235 24.4462 24.5781 24.543 24.8565 24.3841C25.1349 24.2251 25.2317 23.8706 25.0727 23.5922L20.0026 14.7122C19.8814 14.4999 19.6401 14.3863 19.3992 14.4281C19.1583 14.47 18.9694 14.6584 18.9269 14.8992L17.597 22.4354L11.2494 17.3574C11.1784 17.3006 11.1546 17.203 11.1916 17.12L12.029 15.2358Z" fill="url(#paint29_radial_8116_19301)"/>
<path d="M12.029 15.2358C12.1592 14.9428 12.0273 14.5998 11.7343 14.4696C11.4414 14.3394 11.0983 14.4713 10.9681 14.7643L6.96814 23.7643C6.83794 24.0572 6.96988 24.4003 7.26282 24.5305C7.55576 24.6606 7.89879 24.5287 8.02899 24.2358L10.5888 18.4761C10.6154 18.4162 10.6915 18.3977 10.7427 18.4387L17.636 23.9533C17.796 24.0813 18.0117 24.1155 18.2034 24.0431C18.3952 23.9708 18.5346 23.8027 18.5702 23.6009L19.767 16.8192C19.7751 16.7731 19.8364 16.7624 19.8596 16.8031L24.0646 24.1678C24.2235 24.4462 24.5781 24.543 24.8565 24.3841C25.1349 24.2251 25.2317 23.8706 25.0727 23.5922L20.0026 14.7122C19.8814 14.4999 19.6401 14.3863 19.3992 14.4281C19.1583 14.47 18.9694 14.6584 18.9269 14.8992L17.597 22.4354L11.2494 17.3574C11.1784 17.3006 11.1546 17.203 11.1916 17.12L12.029 15.2358Z" fill="url(#paint30_linear_8116_19301)"/>
<path d="M25 22.9011L18.2016 21.5177C17.0391 21.3587 16 22.2915 16 23.5C16 24.7085 17.0288 25.6413 18.2016 25.4823L25 25C25.5144 24.9258 25.8951 24.4806 25.8951 23.9506C25.8951 23.4205 25.5041 22.9647 25 22.9011Z" fill="#FFB650"/>
<path d="M25 22.9011L18.2016 21.5177C17.0391 21.3587 16 22.2915 16 23.5C16 24.7085 17.0288 25.6413 18.2016 25.4823L25 25C25.5144 24.9258 25.8951 24.4806 25.8951 23.9506C25.8951 23.4205 25.5041 22.9647 25 22.9011Z" fill="url(#paint31_radial_8116_19301)"/>
<path d="M25 22.9011L18.2016 21.5177C17.0391 21.3587 16 22.2915 16 23.5C16 24.7085 17.0288 25.6413 18.2016 25.4823L25 25C25.5144 24.9258 25.8951 24.4806 25.8951 23.9506C25.8951 23.4205 25.5041 22.9647 25 22.9011Z" fill="url(#paint32_linear_8116_19301)"/>
<path d="M25 22.9011L18.2016 21.5177C17.0391 21.3587 16 22.2915 16 23.5C16 24.7085 17.0288 25.6413 18.2016 25.4823L25 25C25.5144 24.9258 25.8951 24.4806 25.8951 23.9506C25.8951 23.4205 25.5041 22.9647 25 22.9011Z" fill="url(#paint33_radial_8116_19301)"/>
<path d="M25 22.9011L18.2016 21.5177C17.0391 21.3587 16 22.2915 16 23.5C16 24.7085 17.0288 25.6413 18.2016 25.4823L25 25C25.5144 24.9258 25.8951 24.4806 25.8951 23.9506C25.8951 23.4205 25.5041 22.9647 25 22.9011Z" fill="url(#paint34_linear_8116_19301)"/>
<path d="M25 22.9011L18.2016 21.5177C17.0391 21.3587 16 22.2915 16 23.5C16 24.7085 17.0288 25.6413 18.2016 25.4823L25 25C25.5144 24.9258 25.8951 24.4806 25.8951 23.9506C25.8951 23.4205 25.5041 22.9647 25 22.9011Z" fill="url(#paint35_linear_8116_19301)"/>
<path d="M25 22.9011L18.2016 21.5177C17.0391 21.3587 16 22.2915 16 23.5C16 24.7085 17.0288 25.6413 18.2016 25.4823L25 25C25.5144 24.9258 25.8951 24.4806 25.8951 23.9506C25.8951 23.4205 25.5041 22.9647 25 22.9011Z" fill="url(#paint36_radial_8116_19301)"/>
<rect x="17.75" y="11.5" width="4" height="2" rx="1" fill="#A86F5F"/>
<rect x="17.75" y="11.5" width="4" height="2" rx="1" fill="url(#paint37_radial_8116_19301)"/>
<rect x="17.75" y="11.5" width="4" height="2" rx="1" fill="url(#paint38_radial_8116_19301)"/>
<rect x="17.75" y="11.5" width="4" height="2" rx="1" fill="url(#paint39_radial_8116_19301)"/>
<rect x="12" y="8.5" width="3" height="1" rx="0.5" fill="url(#paint40_linear_8116_19301)"/>
<rect x="12" y="8.5" width="3" height="1" rx="0.5" fill="url(#paint41_radial_8116_19301)"/>
<rect x="12" y="8.5" width="3" height="1" rx="0.5" fill="url(#paint42_radial_8116_19301)"/>
<path d="M18 24.5C18.5523 24.5 19 24.0523 19 23.5C19 22.9477 18.5523 22.5 18 22.5C17.4477 22.5 17 22.9477 17 23.5C17 24.0523 17.4477 24.5 18 24.5Z" fill="url(#paint43_radial_8116_19301)"/>
<defs>
<linearGradient id="paint0_linear_8116_19301" x1="11.5" y1="8.5" x2="11.5" y2="15.5669" gradientUnits="userSpaceOnUse">
<stop stop-color="#B5A5C6"/>
<stop offset="1" stop-color="#D1BBE7"/>
</linearGradient>
<radialGradient id="paint1_radial_8116_19301" cx="0" cy="0" r="1" gradientUnits="userSpaceOnUse" gradientTransform="translate(13.6721 12.7938) rotate(155.462) scale(0.847998 0.701082)">
<stop stop-color="#FFFBFF"/>
<stop offset="1" stop-color="#FFFBFF" stop-opacity="0"/>
</radialGradient>
<radialGradient id="paint2_radial_8116_19301" cx="0" cy="0" r="1" gradientUnits="userSpaceOnUse" gradientTransform="translate(11.1094 14.7969) rotate(-65.9798) scale(1.57379 0.42766)">
<stop stop-color="#7F7987"/>
<stop offset="1" stop-color="#7F7987" stop-opacity="0"/>
</radialGradient>
<radialGradient id="paint3_radial_8116_19301" cx="0" cy="0" r="1" gradientUnits="userSpaceOnUse" gradientTransform="translate(14 12.682) rotate(-144.06) scale(5.95817 4.21556)">
<stop offset="0.819127" stop-color="#7C7B7D" stop-opacity="0"/>
<stop offset="0.949105" stop-color="#7C7B7D"/>
</radialGradient>
<radialGradient id="paint4_radial_8116_19301" cx="0" cy="0" r="1" gradientUnits="userSpaceOnUse" gradientTransform="translate(13.5 9.5) rotate(138.814) scale(5.31507 3.76055)">
<stop offset="0.828719" stop-color="#A175C4" stop-opacity="0"/>
<stop offset="1" stop-color="#A175C4"/>
</radialGradient>
<radialGradient id="paint5_radial_8116_19301" cx="0" cy="0" r="1" gradientUnits="userSpaceOnUse" gradientTransform="translate(11.6376 11.7022) rotate(120.399) scale(1.35891 1.99946)">
<stop offset="0.325017" stop-color="#B7B5BB"/>
<stop offset="1" stop-color="#B7B5BB" stop-opacity="0"/>
</radialGradient>
<radialGradient id="paint6_radial_8116_19301" cx="0" cy="0" r="1" gradientUnits="userSpaceOnUse" gradientTransform="translate(12.0871 9.37945) rotate(143.842) scale(1.7949 0.629168)">
<stop stop-color="#A972D4"/>
<stop offset="1" stop-color="#A972D4" stop-opacity="0"/>
</radialGradient>
<radialGradient id="paint7_radial_8116_19301" cx="0" cy="0" r="1" gradientUnits="userSpaceOnUse" gradientTransform="translate(12.519 8.25075) rotate(161.565) scale(1.80666 0.265749)">
<stop stop-color="#BDB6C2"/>
<stop offset="1" stop-color="#BDB6C2" stop-opacity="0"/>
</radialGradient>
<radialGradient id="paint8_radial_8116_19301" cx="0" cy="0" r="1" gradientUnits="userSpaceOnUse" gradientTransform="translate(11.845 14.7615) rotate(-71.2001) scale(1.64403 0.409174)">
<stop stop-color="#E1C9F8"/>
<stop offset="1" stop-color="#E1C9F8" stop-opacity="0"/>
</radialGradient>
<radialGradient id="paint9_radial_8116_19301" cx="0" cy="0" r="1" gradientUnits="userSpaceOnUse" gradientTransform="translate(19.9665 14.7344) rotate(180) scale(0.933436 1.84091)">
<stop stop-color="#E6D6F2"/>
<stop offset="1" stop-color="#7B6787"/>
</radialGradient>
<radialGradient id="paint10_radial_8116_19301" cx="0" cy="0" r="1" gradientUnits="userSpaceOnUse" gradientTransform="translate(7.50171 24) rotate(90) scale(5.13062)">
<stop offset="0.652404" stop-color="#FEEEFF"/>
<stop offset="1" stop-color="#DFD2EA"/>
</radialGradient>
<radialGradient id="paint11_radial_8116_19301" cx="0" cy="0" r="1" gradientUnits="userSpaceOnUse" gradientTransform="translate(9.37067 20.5416) rotate(118.277) scale(10.591)">
<stop offset="0.640859" stop-color="#C3BAC3" stop-opacity="0"/>
<stop offset="1" stop-color="#C3BAC3"/>
</radialGradient>
<linearGradient id="paint12_linear_8116_19301" x1="10.537" y1="20.5512" x2="2.95271" y2="28.0413" gradientUnits="userSpaceOnUse">
<stop offset="0.00558659" stop-color="#2E2060"/>
<stop offset="1" stop-color="#411461"/>
</linearGradient>
<linearGradient id="paint13_linear_8116_19301" x1="10.537" y1="20.5512" x2="2.95271" y2="28.0413" gradientUnits="userSpaceOnUse">
<stop offset="0.00558659" stop-color="#2E2060"/>
<stop offset="1" stop-color="#411461"/>
</linearGradient>
<radialGradient id="paint14_radial_8116_19301" cx="0" cy="0" r="1" gradientUnits="userSpaceOnUse" gradientTransform="translate(2 22.835) rotate(-11.2812) scale(5.60836 4.66283)">
<stop stop-color="#291C31"/>
<stop offset="1" stop-color="#291C31" stop-opacity="0"/>
</radialGradient>
<radialGradient id="paint15_radial_8116_19301" cx="0" cy="0" r="1" gradientUnits="userSpaceOnUse" gradientTransform="translate(7.50615 24.0738) rotate(-74.0546) scale(5.73288 5.9878)">
<stop offset="0.382076" stop-color="#585064" stop-opacity="0"/>
<stop offset="0.540094" stop-color="#585064" stop-opacity="0.5"/>
<stop offset="0.647406" stop-color="#585064"/>
<stop offset="0.767689" stop-color="#585064" stop-opacity="0.5"/>
<stop offset="0.898585" stop-color="#585064" stop-opacity="0"/>
</radialGradient>
<radialGradient id="paint16_radial_8116_19301" cx="0" cy="0" r="1" gradientUnits="userSpaceOnUse" gradientTransform="translate(7.5 23.5078) rotate(-58.5373) scale(3.02925 7.96362)">
<stop offset="0.523134" stop-color="#331F4E"/>
<stop offset="1" stop-color="#331F4E" stop-opacity="0"/>
</radialGradient>
<radialGradient id="paint17_radial_8116_19301" cx="0" cy="0" r="1" gradientUnits="userSpaceOnUse" gradientTransform="translate(24.5017 24) rotate(90) scale(5.13062)">
<stop offset="0.652404" stop-color="#FEEEFF"/>
<stop offset="1" stop-color="#DFD2EA"/>
</radialGradient>
<radialGradient id="paint18_radial_8116_19301" cx="0" cy="0" r="1" gradientUnits="userSpaceOnUse" gradientTransform="translate(26.8953 22.8042) rotate(144.502) scale(7.34069)">
<stop offset="0.718826" stop-color="#C3BAC3" stop-opacity="0"/>
<stop offset="1" stop-color="#C3BAC3"/>
</radialGradient>
<linearGradient id="paint19_linear_8116_19301" x1="27.537" y1="20.5512" x2="19.9527" y2="28.0413" gradientUnits="userSpaceOnUse">
<stop offset="0.00558659" stop-color="#2E2060"/>
<stop offset="1" stop-color="#411461"/>
</linearGradient>
<radialGradient id="paint20_radial_8116_19301" cx="0" cy="0" r="1" gradientUnits="userSpaceOnUse" gradientTransform="translate(19 22.835) rotate(-11.2812) scale(5.60836 4.66283)">
<stop stop-color="#291C31"/>
<stop offset="1" stop-color="#291C31" stop-opacity="0"/>
</radialGradient>
<radialGradient id="paint21_radial_8116_19301" cx="0" cy="0" r="1" gradientUnits="userSpaceOnUse" gradientTransform="translate(24.5062 24.0738) rotate(-74.0546) scale(5.73288 5.9878)">
<stop offset="0.382076" stop-color="#585064" stop-opacity="0"/>
<stop offset="0.540094" stop-color="#585064" stop-opacity="0.5"/>
<stop offset="0.647406" stop-color="#585064"/>
<stop offset="0.767689" stop-color="#585064" stop-opacity="0.5"/>
<stop offset="0.898585" stop-color="#585064" stop-opacity="0"/>
</radialGradient>
<radialGradient id="paint22_radial_8116_19301" cx="0" cy="0" r="1" gradientUnits="userSpaceOnUse" gradientTransform="translate(24.5 23.5078) rotate(-58.5373) scale(3.02925 7.96362)">
<stop offset="0.523134" stop-color="#331F4E"/>
<stop offset="1" stop-color="#331F4E" stop-opacity="0"/>
</radialGradient>
<linearGradient id="paint23_linear_8116_19301" x1="8.89504" y1="19.661" x2="23.061" y2="19.661" gradientUnits="userSpaceOnUse">
<stop stop-color="#DF3C6D"/>
<stop offset="1" stop-color="#FF4C65"/>
</linearGradient>
<radialGradient id="paint24_radial_8116_19301" cx="0" cy="0" r="1" gradientUnits="userSpaceOnUse" gradientTransform="translate(20.2173 17.7188) rotate(-109.799) scale(2.07583 0.41284)">
<stop offset="0.285151" stop-color="#9E4049"/>
<stop offset="1" stop-color="#9E4049" stop-opacity="0"/>
</radialGradient>
<radialGradient id="paint25_radial_8116_19301" cx="0" cy="0" r="1" gradientUnits="userSpaceOnUse" gradientTransform="translate(17.9985 19) rotate(-77.9052) scale(7.15891 0.759543)">
<stop offset="0.285151" stop-color="#9E4049"/>
<stop offset="1" stop-color="#9E4049" stop-opacity="0"/>
</radialGradient>
<radialGradient id="paint26_radial_8116_19301" cx="0" cy="0" r="1" gradientUnits="userSpaceOnUse" gradientTransform="translate(22.9985 23) rotate(-118.301) scale(7.38241 0.783256)">
<stop offset="0.285151" stop-color="#9E4049"/>
<stop offset="1" stop-color="#9E4049" stop-opacity="0"/>
</radialGradient>
<linearGradient id="paint27_linear_8116_19301" x1="22.5454" y1="19.1563" x2="21.9673" y2="19.5" gradientUnits="userSpaceOnUse">
<stop stop-color="#FF656F"/>
<stop offset="1" stop-color="#FF656F" stop-opacity="0"/>
</linearGradient>
<radialGradient id="paint28_radial_8116_19301" cx="0" cy="0" r="1" gradientUnits="userSpaceOnUse" gradientTransform="translate(11.4517 19.3281) rotate(-130.365) scale(2.05069 0.524736)">
<stop stop-color="#AE205B"/>
<stop offset="1" stop-color="#AE205B" stop-opacity="0"/>
</radialGradient>
<radialGradient id="paint29_radial_8116_19301" cx="0" cy="0" r="1" gradientUnits="userSpaceOnUse" gradientTransform="translate(14.4985 21.5) rotate(38.6598) scale(6.40313 0.546608)">
<stop stop-color="#AE205B"/>
<stop offset="1" stop-color="#AE205B" stop-opacity="0"/>
</radialGradient>
<linearGradient id="paint30_linear_8116_19301" x1="9.49854" y1="18" x2="18.4985" y2="22" gradientUnits="userSpaceOnUse">
<stop stop-color="#9D354A"/>
<stop offset="0.044942" stop-color="#9D354A" stop-opacity="0"/>
<stop offset="0.0816688" stop-color="#9D354A" stop-opacity="0"/>
<stop offset="0.113402" stop-color="#9D354A"/>
<stop offset="0.140464" stop-color="#9D354A" stop-opacity="0"/>
</linearGradient>
<radialGradient id="paint31_radial_8116_19301" cx="0" cy="0" r="1" gradientUnits="userSpaceOnUse" gradientTransform="translate(25.75 23.2031) rotate(163.578) scale(1.54751 2.9008)">
<stop stop-color="#FFED66"/>
<stop offset="1" stop-color="#FFED66" stop-opacity="0"/>
</radialGradient>
<linearGradient id="paint32_linear_8116_19301" x1="21.2629" y1="21.9623" x2="20.9475" y2="23.5" gradientUnits="userSpaceOnUse">
<stop stop-color="#FFCA44"/>
<stop offset="1" stop-color="#FFCA44" stop-opacity="0"/>
</linearGradient>
<radialGradient id="paint33_radial_8116_19301" cx="0" cy="0" r="1" gradientUnits="userSpaceOnUse" gradientTransform="translate(18.5 23.5) scale(7.5)">
<stop offset="0.239583" stop-color="#F5726F" stop-opacity="0"/>
<stop offset="0.304167" stop-color="#F5726F"/>
</radialGradient>
<linearGradient id="paint34_linear_8116_19301" x1="26" y1="24" x2="17.5" y2="23.5" gradientUnits="userSpaceOnUse">
<stop stop-color="#FFD353"/>
<stop offset="0.63416" stop-color="#FFB650"/>
<stop offset="1" stop-color="#FFCA44" stop-opacity="0"/>
</linearGradient>
<linearGradient id="paint35_linear_8116_19301" x1="21" y1="25.5" x2="20" y2="11" gradientUnits="userSpaceOnUse">
<stop offset="0.0128303" stop-color="#FA8269"/>
<stop offset="0.0483994" stop-color="#FA8269" stop-opacity="0"/>
</linearGradient>
<radialGradient id="paint36_radial_8116_19301" cx="0" cy="0" r="1" gradientUnits="userSpaceOnUse" gradientTransform="translate(21.9375 25.5) rotate(-143.817) scale(6.77549 6.80484)">
<stop offset="0.799663" stop-color="#C28849" stop-opacity="0"/>
<stop offset="0.951574" stop-color="#C28849"/>
</radialGradient>
<radialGradient id="paint37_radial_8116_19301" cx="0" cy="0" r="1" gradientUnits="userSpaceOnUse" gradientTransform="translate(21.5937 11.6875) rotate(130.972) scale(1.57278 1.31672)">
<stop stop-color="#C4877A"/>
<stop offset="1" stop-color="#C4877A" stop-opacity="0"/>
</radialGradient>
<radialGradient id="paint38_radial_8116_19301" cx="0" cy="0" r="1" gradientUnits="userSpaceOnUse" gradientTransform="translate(20.5 12) rotate(5.19443) scale(5.52268 3.45167)">
<stop offset="0.239904" stop-color="#753459" stop-opacity="0"/>
<stop offset="0.472198" stop-color="#753459"/>
</radialGradient>
<radialGradient id="paint39_radial_8116_19301" cx="0" cy="0" r="1" gradientTransform="matrix(-1 4.96121e-08 1.12417e-06 -0.999999 21 12)" gradientUnits="userSpaceOnUse">
<stop stop-color="#BD8072"/>
<stop offset="0.713694" stop-color="#BD8072" stop-opacity="0"/>
</radialGradient>
<linearGradient id="paint40_linear_8116_19301" x1="13.5" y1="9.19022" x2="13.5" y2="9.5" gradientUnits="userSpaceOnUse">
<stop stop-color="#3B2E4C"/>
<stop offset="1" stop-color="#47265F"/>
</linearGradient>
<radialGradient id="paint41_radial_8116_19301" cx="0" cy="0" r="1" gradientUnits="userSpaceOnUse" gradientTransform="translate(14.403 8.95015) rotate(180) scale(1.94541 0.34769)">
<stop stop-color="#423E47"/>
<stop offset="1" stop-color="#423E47" stop-opacity="0"/>
</radialGradient>
<radialGradient id="paint42_radial_8116_19301" cx="0" cy="0" r="1" gradientUnits="userSpaceOnUse" gradientTransform="translate(15.0736 9) rotate(180) scale(0.877503 0.828011)">
<stop stop-color="#575657"/>
<stop offset="1" stop-color="#575657" stop-opacity="0"/>
</radialGradient>
<radialGradient id="paint43_radial_8116_19301" cx="0" cy="0" r="1" gradientUnits="userSpaceOnUse" gradientTransform="translate(17.4559 24.0441) rotate(-35.0738) scale(1.68907)">
<stop stop-color="#E7E4EA"/>
<stop offset="1" stop-color="#CDC3D9"/>
</radialGradient>
</defs>
</svg>
