<svg width="32" height="32" viewBox="0 0 32 32" fill="none" xmlns="http://www.w3.org/2000/svg">
<path d="M2.05844 19.3288L2.21582 19.0295L5.03513 16.115L5.36321 13.0429L5.42844 12.9188C5.71844 12.3688 6.28844 12.0288 6.90844 12.0288H13.7756C13.8471 12.0288 13.9086 12.0792 13.9227 12.1492L14.8984 16.9976L13.8984 21.9663L1.89844 20.1188C1.89844 19.8488 1.94844 19.5788 2.05844 19.3288Z" fill="url(#paint0_linear_23256_14841)"/>
<path d="M2.05844 19.3288L2.21582 19.0295L5.03513 16.115L5.36321 13.0429L5.42844 12.9188C5.71844 12.3688 6.28844 12.0288 6.90844 12.0288H13.7756C13.8471 12.0288 13.9086 12.0792 13.9227 12.1492L14.8984 16.9976L13.8984 21.9663L1.89844 20.1188C1.89844 19.8488 1.94844 19.5788 2.05844 19.3288Z" fill="url(#paint1_linear_23256_14841)"/>
<path d="M2.05844 19.3288L2.21582 19.0295L5.03513 16.115L5.36321 13.0429L5.42844 12.9188C5.71844 12.3688 6.28844 12.0288 6.90844 12.0288H13.7756C13.8471 12.0288 13.9086 12.0792 13.9227 12.1492L14.8984 16.9976L13.8984 21.9663L1.89844 20.1188C1.89844 19.8488 1.94844 19.5788 2.05844 19.3288Z" fill="url(#paint2_linear_23256_14841)"/>
<path d="M2.05844 19.3288L2.21582 19.0295L5.03513 16.115L5.36321 13.0429L5.42844 12.9188C5.71844 12.3688 6.28844 12.0288 6.90844 12.0288H13.7756C13.8471 12.0288 13.9086 12.0792 13.9227 12.1492L14.8984 16.9976L13.8984 21.9663L1.89844 20.1188C1.89844 19.8488 1.94844 19.5788 2.05844 19.3288Z" fill="url(#paint3_linear_23256_14841)"/>
<path d="M2.05844 19.3288L2.21582 19.0295L5.03513 16.115L5.36321 13.0429L5.42844 12.9188C5.71844 12.3688 6.28844 12.0288 6.90844 12.0288H13.7756C13.8471 12.0288 13.9086 12.0792 13.9227 12.1492L14.8984 16.9976L13.8984 21.9663L1.89844 20.1188C1.89844 19.8488 1.94844 19.5788 2.05844 19.3288Z" fill="url(#paint4_linear_23256_14841)"/>
<path d="M2.05844 19.3288L2.21582 19.0295L5.03513 16.115L5.36321 13.0429L5.42844 12.9188C5.71844 12.3688 6.28844 12.0288 6.90844 12.0288H13.7756C13.8471 12.0288 13.9086 12.0792 13.9227 12.1492L14.8984 16.9976L13.8984 21.9663L1.89844 20.1188C1.89844 19.8488 1.94844 19.5788 2.05844 19.3288Z" fill="url(#paint5_linear_23256_14841)"/>
<path d="M2.05844 19.3288L2.21582 19.0295L5.03513 16.115L5.36321 13.0429L5.42844 12.9188C5.71844 12.3688 6.28844 12.0288 6.90844 12.0288H13.7756C13.8471 12.0288 13.9086 12.0792 13.9227 12.1492L14.8984 16.9976L13.8984 21.9663L1.89844 20.1188C1.89844 19.8488 1.94844 19.5788 2.05844 19.3288Z" fill="url(#paint6_linear_23256_14841)"/>
<path d="M2.05844 19.3288L2.21582 19.0295L5.03513 16.115L5.36321 13.0429L5.42844 12.9188C5.71844 12.3688 6.28844 12.0288 6.90844 12.0288H13.7756C13.8471 12.0288 13.9086 12.0792 13.9227 12.1492L14.8984 16.9976L13.8984 21.9663L1.89844 20.1188C1.89844 19.8488 1.94844 19.5788 2.05844 19.3288Z" fill="url(#paint7_linear_23256_14841)"/>
<path d="M26.8984 7.02881H16.8984C15.2384 7.02881 13.8984 8.36881 13.8984 10.0288V21.2801H29.8984V10.0288C29.8984 8.36881 28.5584 7.02881 26.8984 7.02881Z" fill="url(#paint8_linear_23256_14841)"/>
<path d="M26.8984 7.02881H16.8984C15.2384 7.02881 13.8984 8.36881 13.8984 10.0288V21.2801H29.8984V10.0288C29.8984 8.36881 28.5584 7.02881 26.8984 7.02881Z" fill="url(#paint9_linear_23256_14841)"/>
<path d="M26.8984 7.02881H16.8984C15.2384 7.02881 13.8984 8.36881 13.8984 10.0288V21.2801H29.8984V10.0288C29.8984 8.36881 28.5584 7.02881 26.8984 7.02881Z" fill="url(#paint10_linear_23256_14841)"/>
<path d="M26.8984 7.02881H16.8984C15.2384 7.02881 13.8984 8.36881 13.8984 10.0288V21.2801H29.8984V10.0288C29.8984 8.36881 28.5584 7.02881 26.8984 7.02881Z" fill="url(#paint11_linear_23256_14841)"/>
<path d="M26.8984 7.02881H16.8984C15.2384 7.02881 13.8984 8.36881 13.8984 10.0288V21.2801H29.8984V10.0288C29.8984 8.36881 28.5584 7.02881 26.8984 7.02881Z" fill="url(#paint12_linear_23256_14841)"/>
<path d="M26.8984 7.02881H16.8984C15.2384 7.02881 13.8984 8.36881 13.8984 10.0288V21.2801H29.8984V10.0288C29.8984 8.36881 28.5584 7.02881 26.8984 7.02881Z" fill="url(#paint13_linear_23256_14841)"/>
<path d="M2.20801 19.0291H8.79801C9.40801 19.0291 9.89801 18.5391 9.89801 17.9291V14.1391C9.89801 13.5291 9.40801 13.0391 8.79801 13.0391H5.37801L2.20801 19.0291Z" fill="url(#paint14_linear_23256_14841)"/>
<path d="M2.20801 19.0291H8.79801C9.40801 19.0291 9.89801 18.5391 9.89801 17.9291V14.1391C9.89801 13.5291 9.40801 13.0391 8.79801 13.0391H5.37801L2.20801 19.0291Z" fill="url(#paint15_linear_23256_14841)"/>
<path d="M2.20801 19.0291H8.79801C9.40801 19.0291 9.89801 18.5391 9.89801 17.9291V14.1391C9.89801 13.5291 9.40801 13.0391 8.79801 13.0391H5.37801L2.20801 19.0291Z" fill="url(#paint16_linear_23256_14841)"/>
<path d="M13.8982 27.0339L11.4892 23.5289L13.8982 20.0239H29.8982V22.0382L28.8713 23.5271L29.8982 25.016V25.2339C29.8982 26.2239 29.0882 27.0339 28.0982 27.0339H27.2398L23.3879 25.759L19.5361 27.0339H13.8982Z" fill="url(#paint17_linear_23256_14841)"/>
<path d="M13.8982 27.0339L11.4892 23.5289L13.8982 20.0239H29.8982V22.0382L28.8713 23.5271L29.8982 25.016V25.2339C29.8982 26.2239 29.0882 27.0339 28.0982 27.0339H27.2398L23.3879 25.759L19.5361 27.0339H13.8982Z" fill="url(#paint18_linear_23256_14841)"/>
<path d="M13.8982 27.0339L11.4892 23.5289L13.8982 20.0239H29.8982V22.0382L28.8713 23.5271L29.8982 25.016V25.2339C29.8982 26.2239 29.0882 27.0339 28.0982 27.0339H27.2398L23.3879 25.759L19.5361 27.0339H13.8982Z" fill="url(#paint19_linear_23256_14841)"/>
<path d="M23.3984 28.0288C24.2269 28.0288 24.8984 27.3572 24.8984 26.5288C24.8984 25.7004 24.2269 25.0288 23.3984 25.0288C22.57 25.0288 21.8984 25.7004 21.8984 26.5288C21.8984 27.3572 22.57 28.0288 23.3984 28.0288Z" fill="#D9C3F0"/>
<path d="M29.8981 22.0288H29.3981C28.5481 22.0288 27.8581 22.7388 27.8981 23.5988C27.9381 24.4088 28.6381 25.0288 29.4481 25.0288H29.8981V22.0288Z" fill="url(#paint20_linear_23256_14841)"/>
<path d="M13.8984 20.0288H1.89844L1.89844 21.0234L2.59359 23.0261L1.89844 25.0288V25.2588C1.89844 26.2388 2.69843 27.0388 3.67847 27.0388H4.73341L8.59173 25.6954L12.4501 27.0388H13.8984V20.0288Z" fill="url(#paint21_linear_23256_14841)"/>
<path d="M13.8984 20.0288H1.89844L1.89844 21.0234L2.59359 23.0261L1.89844 25.0288V25.2588C1.89844 26.2388 2.69843 27.0388 3.67847 27.0388H4.73341L8.59173 25.6954L12.4501 27.0388H13.8984V20.0288Z" fill="url(#paint22_linear_23256_14841)"/>
<path d="M13.8984 20.0288H1.89844L1.89844 21.0234L2.59359 23.0261L1.89844 25.0288V25.2588C1.89844 26.2388 2.69843 27.0388 3.67847 27.0388H4.73341L8.59173 25.6954L12.4501 27.0388H13.8984V20.0288Z" fill="url(#paint23_linear_23256_14841)"/>
<path d="M13.8984 20.0288H1.89844L1.89844 21.0234L2.59359 23.0261L1.89844 25.0288V25.2588C1.89844 26.2388 2.69843 27.0388 3.67847 27.0388H4.73341L8.59173 25.6954L12.4501 27.0388H13.8984V20.0288Z" fill="url(#paint24_linear_23256_14841)"/>
<path d="M12.4784 27.0391C12.5001 26.8722 12.5113 26.702 12.5113 26.5291C12.5113 24.3681 10.7595 22.6162 8.59844 22.6162C6.43741 22.6162 4.68555 24.3681 4.68555 26.5291C4.68555 26.702 4.69675 26.8722 4.71848 27.0391H12.4784Z" fill="url(#paint25_linear_23256_14841)"/>
<path d="M27.2782 27.0391C27.2999 26.8722 27.3111 26.702 27.3111 26.5291C27.3111 24.3681 25.5593 22.6162 23.3982 22.6162C21.2372 22.6162 19.4854 24.3681 19.4854 26.5291C19.4854 26.702 19.4966 26.8722 19.5183 27.0391H27.2782Z" fill="url(#paint26_linear_23256_14841)"/>
<path d="M23.4271 29.9998C25.3442 29.9998 26.8982 28.4457 26.8982 26.5287C26.8982 24.6117 25.3442 23.0576 23.4271 23.0576C21.5101 23.0576 19.9561 24.6117 19.9561 26.5287C19.9561 28.4457 21.5101 29.9998 23.4271 29.9998Z" fill="url(#paint27_linear_23256_14841)"/>
<path d="M23.4271 29.9998C25.3442 29.9998 26.8982 28.4457 26.8982 26.5287C26.8982 24.6117 25.3442 23.0576 23.4271 23.0576C21.5101 23.0576 19.9561 24.6117 19.9561 26.5287C19.9561 28.4457 21.5101 29.9998 23.4271 29.9998Z" fill="url(#paint28_radial_23256_14841)"/>
<path d="M23.4271 29.9998C25.3442 29.9998 26.8982 28.4457 26.8982 26.5287C26.8982 24.6117 25.3442 23.0576 23.4271 23.0576C21.5101 23.0576 19.9561 24.6117 19.9561 26.5287C19.9561 28.4457 21.5101 29.9998 23.4271 29.9998Z" fill="url(#paint29_radial_23256_14841)"/>
<path d="M23.4271 29.9998C25.3442 29.9998 26.8982 28.4457 26.8982 26.5287C26.8982 24.6117 25.3442 23.0576 23.4271 23.0576C21.5101 23.0576 19.9561 24.6117 19.9561 26.5287C19.9561 28.4457 21.5101 29.9998 23.4271 29.9998Z" fill="url(#paint30_radial_23256_14841)"/>
<path d="M23.4271 29.9998C25.3442 29.9998 26.8982 28.4457 26.8982 26.5287C26.8982 24.6117 25.3442 23.0576 23.4271 23.0576C21.5101 23.0576 19.9561 24.6117 19.9561 26.5287C19.9561 28.4457 21.5101 29.9998 23.4271 29.9998Z" fill="url(#paint31_radial_23256_14841)" fill-opacity="0.8"/>
<path d="M23.4296 27.8103C24.1371 27.8103 24.7107 27.2367 24.7107 26.5292C24.7107 25.8216 24.1371 25.248 23.4296 25.248C22.722 25.248 22.1484 25.8216 22.1484 26.5292C22.1484 27.2367 22.722 27.8103 23.4296 27.8103Z" fill="#D9C3F0"/>
<path d="M23.4296 27.8103C24.1371 27.8103 24.7107 27.2367 24.7107 26.5292C24.7107 25.8216 24.1371 25.248 23.4296 25.248C22.722 25.248 22.1484 25.8216 22.1484 26.5292C22.1484 27.2367 22.722 27.8103 23.4296 27.8103Z" fill="url(#paint32_radial_23256_14841)"/>
<path d="M2.80844 25.0288H1.89844V21.0288H2.80844C3.40844 21.0288 3.89844 21.5188 3.89844 22.1188V23.9388C3.89844 24.5388 3.40844 25.0288 2.80844 25.0288Z" fill="#F8DA4B"/>
<path d="M8.59901 29.9998C10.516 29.9998 12.0701 28.4457 12.0701 26.5287C12.0701 24.6117 10.516 23.0576 8.59901 23.0576C6.68199 23.0576 5.12793 24.6117 5.12793 26.5287C5.12793 28.4457 6.68199 29.9998 8.59901 29.9998Z" fill="url(#paint33_linear_23256_14841)"/>
<path d="M8.59901 29.9998C10.516 29.9998 12.0701 28.4457 12.0701 26.5287C12.0701 24.6117 10.516 23.0576 8.59901 23.0576C6.68199 23.0576 5.12793 24.6117 5.12793 26.5287C5.12793 28.4457 6.68199 29.9998 8.59901 29.9998Z" fill="url(#paint34_radial_23256_14841)"/>
<path d="M8.59901 29.9998C10.516 29.9998 12.0701 28.4457 12.0701 26.5287C12.0701 24.6117 10.516 23.0576 8.59901 23.0576C6.68199 23.0576 5.12793 24.6117 5.12793 26.5287C5.12793 28.4457 6.68199 29.9998 8.59901 29.9998Z" fill="url(#paint35_radial_23256_14841)"/>
<path d="M8.59901 29.9998C10.516 29.9998 12.0701 28.4457 12.0701 26.5287C12.0701 24.6117 10.516 23.0576 8.59901 23.0576C6.68199 23.0576 5.12793 24.6117 5.12793 26.5287C5.12793 28.4457 6.68199 29.9998 8.59901 29.9998Z" fill="url(#paint36_radial_23256_14841)"/>
<path d="M8.59901 29.9998C10.516 29.9998 12.0701 28.4457 12.0701 26.5287C12.0701 24.6117 10.516 23.0576 8.59901 23.0576C6.68199 23.0576 5.12793 24.6117 5.12793 26.5287C5.12793 28.4457 6.68199 29.9998 8.59901 29.9998Z" fill="url(#paint37_radial_23256_14841)" fill-opacity="0.8"/>
<path d="M8.60146 27.8103C9.30901 27.8103 9.8826 27.2367 9.8826 26.5292C9.8826 25.8216 9.30901 25.248 8.60146 25.248C7.8939 25.248 7.32031 25.8216 7.32031 26.5292C7.32031 27.2367 7.8939 27.8103 8.60146 27.8103Z" fill="#D9C3F0"/>
<path d="M8.60146 27.8103C9.30901 27.8103 9.8826 27.2367 9.8826 26.5292C9.8826 25.8216 9.30901 25.248 8.60146 25.248C7.8939 25.248 7.32031 25.8216 7.32031 26.5292C7.32031 27.2367 7.8939 27.8103 8.60146 27.8103Z" fill="url(#paint38_radial_23256_14841)"/>
<defs>
<linearGradient id="paint0_linear_23256_14841" x1="2.46094" y1="16.0733" x2="13.8984" y2="16.0733" gradientUnits="userSpaceOnUse">
<stop stop-color="#C9BDD1"/>
<stop offset="1" stop-color="#EBDDF3"/>
</linearGradient>
<linearGradient id="paint1_linear_23256_14841" x1="8.50168" y1="11.8647" x2="8.50168" y2="12.632" gradientUnits="userSpaceOnUse">
<stop stop-color="#C8C6C5"/>
<stop offset="0.495041" stop-color="#C8C6C5" stop-opacity="0"/>
</linearGradient>
<linearGradient id="paint2_linear_23256_14841" x1="13.8984" y1="15.81" x2="13.6926" y2="15.81" gradientUnits="userSpaceOnUse">
<stop stop-color="#604114"/>
<stop offset="1" stop-color="#604114" stop-opacity="0"/>
</linearGradient>
<linearGradient id="paint3_linear_23256_14841" x1="1.89844" y1="18.5589" x2="4.39844" y2="18.5589" gradientUnits="userSpaceOnUse">
<stop stop-color="#AF9EBB"/>
<stop offset="0.278223" stop-color="#AF9EBB" stop-opacity="0"/>
</linearGradient>
<linearGradient id="paint4_linear_23256_14841" x1="13.8984" y1="17.2119" x2="12.0547" y2="17.2119" gradientUnits="userSpaceOnUse">
<stop stop-color="#FFF1FE"/>
<stop offset="0.69902" stop-color="#FFF1FE" stop-opacity="0"/>
</linearGradient>
<linearGradient id="paint5_linear_23256_14841" x1="13.8984" y1="17.2119" x2="12.0547" y2="17.2119" gradientUnits="userSpaceOnUse">
<stop stop-color="#816029"/>
<stop offset="0.0973252" stop-color="#816029" stop-opacity="0"/>
</linearGradient>
<linearGradient id="paint6_linear_23256_14841" x1="8.50024" y1="11.4999" x2="8.50025" y2="19.4999" gradientUnits="userSpaceOnUse">
<stop offset="0.0214844" stop-color="#AF9EBB"/>
<stop offset="0.103516" stop-color="#AF9EBB" stop-opacity="0"/>
</linearGradient>
<linearGradient id="paint7_linear_23256_14841" x1="5.50024" y1="12.4999" x2="8.58406" y2="14.7535" gradientUnits="userSpaceOnUse">
<stop stop-color="#AF9EBB"/>
<stop offset="0.242506" stop-color="#AF9EBB" stop-opacity="0.2"/>
<stop offset="0.445381" stop-color="#AF9EBB" stop-opacity="0"/>
</linearGradient>
<linearGradient id="paint8_linear_23256_14841" x1="14.6593" y1="21.0263" x2="29.8984" y2="12.5851" gradientUnits="userSpaceOnUse">
<stop stop-color="#F1C147"/>
<stop offset="1" stop-color="#E0B343"/>
</linearGradient>
<linearGradient id="paint9_linear_23256_14841" x1="21.8984" y1="7.02881" x2="21.8984" y2="9.11889" gradientUnits="userSpaceOnUse">
<stop stop-color="#EAC439"/>
<stop offset="1" stop-color="#EAC439" stop-opacity="0"/>
</linearGradient>
<linearGradient id="paint10_linear_23256_14841" x1="29.8984" y1="15.1538" x2="29.6094" y2="15.1538" gradientUnits="userSpaceOnUse">
<stop stop-color="#DDBE7A"/>
<stop offset="1" stop-color="#DDBE7A" stop-opacity="0"/>
</linearGradient>
<linearGradient id="paint11_linear_23256_14841" x1="13.8984" y1="12.2947" x2="15.5002" y2="12.2947" gradientUnits="userSpaceOnUse">
<stop offset="0.302285" stop-color="#C89D42"/>
<stop offset="0.863798" stop-color="#C89D42" stop-opacity="0"/>
</linearGradient>
<linearGradient id="paint12_linear_23256_14841" x1="30.0002" y1="12.2947" x2="28.0002" y2="12.2947" gradientUnits="userSpaceOnUse">
<stop offset="0.302285" stop-color="#E8C146"/>
<stop offset="0.863798" stop-color="#E8C146" stop-opacity="0"/>
</linearGradient>
<linearGradient id="paint13_linear_23256_14841" x1="14.5002" y1="7.49988" x2="21.0002" y2="14.9999" gradientUnits="userSpaceOnUse">
<stop stop-color="#C89D42"/>
<stop offset="0.19124" stop-color="#C89D42" stop-opacity="0"/>
</linearGradient>
<linearGradient id="paint14_linear_23256_14841" x1="9.33551" y1="13.904" x2="3.27301" y2="19.0291" gradientUnits="userSpaceOnUse">
<stop stop-color="#35A5E2"/>
<stop offset="1" stop-color="#4AD3F9"/>
</linearGradient>
<linearGradient id="paint15_linear_23256_14841" x1="6.05301" y1="13.0391" x2="6.05301" y2="16.8694" gradientUnits="userSpaceOnUse">
<stop stop-color="#1D95DD"/>
<stop offset="1" stop-color="#1D95DD" stop-opacity="0"/>
</linearGradient>
<linearGradient id="paint16_linear_23256_14841" x1="10.3113" y1="16.5521" x2="8.8833" y2="16.5521" gradientUnits="userSpaceOnUse">
<stop stop-color="#48B8E6"/>
<stop offset="1" stop-color="#48B8E6" stop-opacity="0"/>
</linearGradient>
<linearGradient id="paint17_linear_23256_14841" x1="18.7278" y1="20.0239" x2="18.7732" y2="26.0914" gradientUnits="userSpaceOnUse">
<stop stop-color="#FD6E33"/>
<stop offset="1" stop-color="#EB3C3D"/>
</linearGradient>
<linearGradient id="paint18_linear_23256_14841" x1="13.8982" y1="22.6141" x2="14.9986" y2="22.6141" gradientUnits="userSpaceOnUse">
<stop offset="0.512547" stop-color="#EA3A0C"/>
<stop offset="1" stop-color="#EA3A0C" stop-opacity="0"/>
</linearGradient>
<linearGradient id="paint19_linear_23256_14841" x1="21.8982" y1="27.8989" x2="21.8982" y2="25.3364" gradientUnits="userSpaceOnUse">
<stop stop-color="#BC2447"/>
<stop offset="1" stop-color="#BC2447" stop-opacity="0"/>
</linearGradient>
<linearGradient id="paint20_linear_23256_14841" x1="27.8965" y1="22.5913" x2="29.4919" y2="24.435" gradientUnits="userSpaceOnUse">
<stop stop-color="#BD0663"/>
<stop offset="1" stop-color="#C8166A"/>
</linearGradient>
<linearGradient id="paint21_linear_23256_14841" x1="7.89844" y1="19.5913" x2="7.89844" y2="27.0388" gradientUnits="userSpaceOnUse">
<stop stop-color="#FF7233"/>
<stop offset="1" stop-color="#EE3124"/>
</linearGradient>
<linearGradient id="paint22_linear_23256_14841" x1="13.8984" y1="23.685" x2="12.0547" y2="23.685" gradientUnits="userSpaceOnUse">
<stop stop-color="#FF7B3D"/>
<stop offset="1" stop-color="#FF7B3D" stop-opacity="0"/>
</linearGradient>
<linearGradient id="paint23_linear_23256_14841" x1="7.89844" y1="27.0388" x2="7.89844" y2="25.3413" gradientUnits="userSpaceOnUse">
<stop stop-color="#BC2447"/>
<stop offset="1" stop-color="#BC2447" stop-opacity="0"/>
</linearGradient>
<linearGradient id="paint24_linear_23256_14841" x1="13.8984" y1="22.6961" x2="13.6926" y2="22.6961" gradientUnits="userSpaceOnUse">
<stop stop-color="#BC2303"/>
<stop offset="1" stop-color="#BC2303" stop-opacity="0"/>
</linearGradient>
<linearGradient id="paint25_linear_23256_14841" x1="8.59845" y1="22.6162" x2="8.59845" y2="27.0391" gradientUnits="userSpaceOnUse">
<stop stop-color="#99160C"/>
<stop offset="1" stop-color="#AC0819"/>
</linearGradient>
<linearGradient id="paint26_linear_23256_14841" x1="23.3983" y1="22.6162" x2="23.3983" y2="27.0391" gradientUnits="userSpaceOnUse">
<stop stop-color="#99160C"/>
<stop offset="1" stop-color="#AC0819"/>
</linearGradient>
<linearGradient id="paint27_linear_23256_14841" x1="21.8266" y1="25.6559" x2="27.0402" y2="25.6559" gradientUnits="userSpaceOnUse">
<stop offset="0.239044" stop-color="#34214F"/>
<stop offset="1" stop-color="#241337"/>
</linearGradient>
<radialGradient id="paint28_radial_23256_14841" cx="0" cy="0" r="1" gradientUnits="userSpaceOnUse" gradientTransform="translate(23.4271 26.2181) rotate(-65.5366) scale(1.89392 1.97813)">
<stop offset="0.523134" stop-color="#2D114D"/>
<stop offset="1" stop-color="#2B1249" stop-opacity="0"/>
</radialGradient>
<radialGradient id="paint29_radial_23256_14841" cx="0" cy="0" r="1" gradientUnits="userSpaceOnUse" gradientTransform="translate(23.4271 26.2181) rotate(-65.5366) scale(1.89392 1.97813)">
<stop offset="0.523134" stop-color="#2D114D"/>
<stop offset="1" stop-color="#2B1249" stop-opacity="0"/>
</radialGradient>
<radialGradient id="paint30_radial_23256_14841" cx="0" cy="0" r="1" gradientUnits="userSpaceOnUse" gradientTransform="translate(23.431 26.5753) rotate(-74.0546) scale(3.61806 3.77893)">
<stop offset="0.382076" stop-color="#585064" stop-opacity="0"/>
<stop offset="0.540094" stop-color="#585064" stop-opacity="0.5"/>
<stop offset="0.647406" stop-color="#585064"/>
<stop offset="0.767689" stop-color="#585064" stop-opacity="0.5"/>
<stop offset="0.898585" stop-color="#585064" stop-opacity="0"/>
</radialGradient>
<radialGradient id="paint31_radial_23256_14841" cx="0" cy="0" r="1" gradientUnits="userSpaceOnUse" gradientTransform="translate(23.4271 26.2181) rotate(-58.5373) scale(1.91178 5.02589)">
<stop offset="0.523134" stop-color="#331F4E"/>
<stop offset="1" stop-color="#331F4E" stop-opacity="0"/>
</radialGradient>
<radialGradient id="paint32_radial_23256_14841" cx="0" cy="0" r="1" gradientUnits="userSpaceOnUse" gradientTransform="translate(23.9632 25.8531) rotate(119.578) scale(2.4358 2.62005)">
<stop offset="0.759833" stop-color="#AC6BE4" stop-opacity="0"/>
<stop offset="1" stop-color="#AC6BE4"/>
</radialGradient>
<linearGradient id="paint33_linear_23256_14841" x1="6.99844" y1="25.6559" x2="12.2121" y2="25.6559" gradientUnits="userSpaceOnUse">
<stop offset="0.239044" stop-color="#34214F"/>
<stop offset="1" stop-color="#241337"/>
</linearGradient>
<radialGradient id="paint34_radial_23256_14841" cx="0" cy="0" r="1" gradientUnits="userSpaceOnUse" gradientTransform="translate(8.59901 26.2181) rotate(-65.5366) scale(1.89392 1.97813)">
<stop offset="0.523134" stop-color="#2D114D"/>
<stop offset="1" stop-color="#2B1249" stop-opacity="0"/>
</radialGradient>
<radialGradient id="paint35_radial_23256_14841" cx="0" cy="0" r="1" gradientUnits="userSpaceOnUse" gradientTransform="translate(8.59901 26.2181) rotate(-65.5366) scale(1.89392 1.97813)">
<stop offset="0.523134" stop-color="#2D114D"/>
<stop offset="1" stop-color="#2B1249" stop-opacity="0"/>
</radialGradient>
<radialGradient id="paint36_radial_23256_14841" cx="0" cy="0" r="1" gradientUnits="userSpaceOnUse" gradientTransform="translate(8.60289 26.5753) rotate(-74.0546) scale(3.61806 3.77893)">
<stop offset="0.382076" stop-color="#585064" stop-opacity="0"/>
<stop offset="0.540094" stop-color="#585064" stop-opacity="0.5"/>
<stop offset="0.647406" stop-color="#585064"/>
<stop offset="0.767689" stop-color="#585064" stop-opacity="0.5"/>
<stop offset="0.898585" stop-color="#585064" stop-opacity="0"/>
</radialGradient>
<radialGradient id="paint37_radial_23256_14841" cx="0" cy="0" r="1" gradientUnits="userSpaceOnUse" gradientTransform="translate(8.59901 26.2181) rotate(-58.5373) scale(1.91178 5.02589)">
<stop offset="0.523134" stop-color="#331F4E"/>
<stop offset="1" stop-color="#331F4E" stop-opacity="0"/>
</radialGradient>
<radialGradient id="paint38_radial_23256_14841" cx="0" cy="0" r="1" gradientUnits="userSpaceOnUse" gradientTransform="translate(9.13509 25.8531) rotate(119.578) scale(2.4358 2.62005)">
<stop offset="0.759833" stop-color="#AC6BE4" stop-opacity="0"/>
<stop offset="1" stop-color="#AC6BE4"/>
</radialGradient>
</defs>
</svg>
