<svg width="32" height="32" viewBox="0 0 32 32" fill="none" xmlns="http://www.w3.org/2000/svg">
<path fill-rule="evenodd" clip-rule="evenodd" d="M12.8739 6.61911C12.8204 7.25437 12.0535 7.57167 11.567 7.15971C10.9306 6.62087 10.2557 6.09323 9.75422 5.81154C8.39232 5.04653 7.57546 4.89731 6.25736 6.18167L6.22156 6.21769C6.21512 6.22405 6.20877 6.2306 6.20243 6.23716L6.186 6.25394C4.90164 7.57204 5.05041 8.38845 5.81542 9.75035C6.10031 10.2575 6.63678 10.9421 7.18198 11.5848C7.59488 12.0715 7.27671 12.8397 6.64058 12.892C5.80116 12.9609 4.93859 13.0656 4.37891 13.2227C2.87495 13.6447 2.19182 14.1168 2.16797 15.957L2.16813 16.0078C2.16807 16.0169 2.16822 16.026 2.16837 16.0351L2.16862 16.0586C2.19247 17.8988 2.87495 18.3709 4.37891 18.793C4.93043 18.9477 5.77609 19.0517 6.60388 19.1206C7.23918 19.1736 7.55691 19.9403 7.1454 20.4272C6.6129 21.0572 6.09394 21.7226 5.81542 22.2184C5.05041 23.5803 4.90164 24.3967 6.186 25.7148L6.20242 25.7316C6.20878 25.7381 6.21511 25.7447 6.22156 25.7511L6.25736 25.7871C7.57546 27.0714 8.39232 26.9222 9.75422 26.1572C10.2624 25.8718 10.9485 25.3338 11.5923 24.7876C12.079 24.3746 12.8473 24.6928 12.8995 25.329C12.9685 26.1694 13.0732 27.0334 13.2305 27.5938C13.6525 29.0977 14.1246 29.7808 15.9648 29.8047L16.0156 29.8045C16.0324 29.8046 16.0494 29.804 16.0664 29.804C17.9066 29.7802 18.3787 29.0977 18.8008 27.5938C18.9538 27.0484 19.0571 26.2154 19.1261 25.3965C19.1796 24.7613 19.9465 24.444 20.433 24.8559C21.0694 25.3948 21.7443 25.9224 22.2458 26.2041C23.6077 26.9691 24.4245 27.1183 25.7426 25.834L25.7784 25.7979L25.7904 25.7859L25.7976 25.7784L25.814 25.7617C27.0984 24.4436 26.9496 23.6272 26.1846 22.2653C25.8997 21.7581 25.3632 21.0735 24.818 20.4308C24.4051 19.9441 24.7233 19.1759 25.3594 19.1237C26.1988 19.0547 27.0614 18.95 27.6211 18.793C29.125 18.3709 29.8082 17.8988 29.832 16.0586L29.8319 16.0078C29.8319 15.9988 29.8318 15.9896 29.8316 15.9805L29.8314 15.957C29.8075 14.1168 29.125 13.6447 27.6211 13.2227C27.0696 13.0679 26.2239 12.964 25.3961 12.895C24.7608 12.8421 24.4431 12.0754 24.8546 11.5885C25.3871 10.9584 25.9061 10.2931 26.1846 9.79722C26.9496 8.43532 27.0984 7.61891 25.814 6.30082L25.7976 6.28405C25.7912 6.27748 25.7849 6.27094 25.7784 6.26456L25.7426 6.22854C24.4245 4.94418 23.6077 5.09341 22.2458 5.85842C21.7376 6.14384 21.0515 6.6818 20.4077 7.22806C19.921 7.64107 19.1527 7.32286 19.1005 6.68666C19.0315 5.84626 18.9268 4.98225 18.7695 4.42188C18.3475 2.91792 17.8754 2.23479 16.0352 2.21094L15.9844 2.2111C15.9753 2.21104 15.9662 2.21119 15.9571 2.21133L15.9336 2.21159C14.0934 2.23544 13.6213 2.91792 13.1992 4.42188C13.0462 4.96724 12.9429 5.80021 12.8739 6.61911ZM15.9961 21.4141C18.9819 21.4141 21.4023 18.9936 21.4023 16.0078C21.4023 13.022 18.9819 10.6016 15.9961 10.6016C13.0103 10.6016 10.5898 13.022 10.5898 16.0078C10.5898 18.9936 13.0103 21.4141 15.9961 21.4141Z" fill="url(#paint0_linear_23692_9272)"/>
<path fill-rule="evenodd" clip-rule="evenodd" d="M12.8739 6.61911C12.8204 7.25437 12.0535 7.57167 11.567 7.15971C10.9306 6.62087 10.2557 6.09323 9.75422 5.81154C8.39232 5.04653 7.57546 4.89731 6.25736 6.18167L6.22156 6.21769C6.21512 6.22405 6.20877 6.2306 6.20243 6.23716L6.186 6.25394C4.90164 7.57204 5.05041 8.38845 5.81542 9.75035C6.10031 10.2575 6.63678 10.9421 7.18198 11.5848C7.59488 12.0715 7.27671 12.8397 6.64058 12.892C5.80116 12.9609 4.93859 13.0656 4.37891 13.2227C2.87495 13.6447 2.19182 14.1168 2.16797 15.957L2.16813 16.0078C2.16807 16.0169 2.16822 16.026 2.16837 16.0351L2.16862 16.0586C2.19247 17.8988 2.87495 18.3709 4.37891 18.793C4.93043 18.9477 5.77609 19.0517 6.60388 19.1206C7.23918 19.1736 7.55691 19.9403 7.1454 20.4272C6.6129 21.0572 6.09394 21.7226 5.81542 22.2184C5.05041 23.5803 4.90164 24.3967 6.186 25.7148L6.20242 25.7316C6.20878 25.7381 6.21511 25.7447 6.22156 25.7511L6.25736 25.7871C7.57546 27.0714 8.39232 26.9222 9.75422 26.1572C10.2624 25.8718 10.9485 25.3338 11.5923 24.7876C12.079 24.3746 12.8473 24.6928 12.8995 25.329C12.9685 26.1694 13.0732 27.0334 13.2305 27.5938C13.6525 29.0977 14.1246 29.7808 15.9648 29.8047L16.0156 29.8045C16.0324 29.8046 16.0494 29.804 16.0664 29.804C17.9066 29.7802 18.3787 29.0977 18.8008 27.5938C18.9538 27.0484 19.0571 26.2154 19.1261 25.3965C19.1796 24.7613 19.9465 24.444 20.433 24.8559C21.0694 25.3948 21.7443 25.9224 22.2458 26.2041C23.6077 26.9691 24.4245 27.1183 25.7426 25.834L25.7784 25.7979L25.7904 25.7859L25.7976 25.7784L25.814 25.7617C27.0984 24.4436 26.9496 23.6272 26.1846 22.2653C25.8997 21.7581 25.3632 21.0735 24.818 20.4308C24.4051 19.9441 24.7233 19.1759 25.3594 19.1237C26.1988 19.0547 27.0614 18.95 27.6211 18.793C29.125 18.3709 29.8082 17.8988 29.832 16.0586L29.8319 16.0078C29.8319 15.9988 29.8318 15.9896 29.8316 15.9805L29.8314 15.957C29.8075 14.1168 29.125 13.6447 27.6211 13.2227C27.0696 13.0679 26.2239 12.964 25.3961 12.895C24.7608 12.8421 24.4431 12.0754 24.8546 11.5885C25.3871 10.9584 25.9061 10.2931 26.1846 9.79722C26.9496 8.43532 27.0984 7.61891 25.814 6.30082L25.7976 6.28405C25.7912 6.27748 25.7849 6.27094 25.7784 6.26456L25.7426 6.22854C24.4245 4.94418 23.6077 5.09341 22.2458 5.85842C21.7376 6.14384 21.0515 6.6818 20.4077 7.22806C19.921 7.64107 19.1527 7.32286 19.1005 6.68666C19.0315 5.84626 18.9268 4.98225 18.7695 4.42188C18.3475 2.91792 17.8754 2.23479 16.0352 2.21094L15.9844 2.2111C15.9753 2.21104 15.9662 2.21119 15.9571 2.21133L15.9336 2.21159C14.0934 2.23544 13.6213 2.91792 13.1992 4.42188C13.0462 4.96724 12.9429 5.80021 12.8739 6.61911ZM15.9961 21.4141C18.9819 21.4141 21.4023 18.9936 21.4023 16.0078C21.4023 13.022 18.9819 10.6016 15.9961 10.6016C13.0103 10.6016 10.5898 13.022 10.5898 16.0078C10.5898 18.9936 13.0103 21.4141 15.9961 21.4141Z" fill="url(#paint1_radial_23692_9272)"/>
<path fill-rule="evenodd" clip-rule="evenodd" d="M12.8739 6.61911C12.8204 7.25437 12.0535 7.57167 11.567 7.15971C10.9306 6.62087 10.2557 6.09323 9.75422 5.81154C8.39232 5.04653 7.57546 4.89731 6.25736 6.18167L6.22156 6.21769C6.21512 6.22405 6.20877 6.2306 6.20243 6.23716L6.186 6.25394C4.90164 7.57204 5.05041 8.38845 5.81542 9.75035C6.10031 10.2575 6.63678 10.9421 7.18198 11.5848C7.59488 12.0715 7.27671 12.8397 6.64058 12.892C5.80116 12.9609 4.93859 13.0656 4.37891 13.2227C2.87495 13.6447 2.19182 14.1168 2.16797 15.957L2.16813 16.0078C2.16807 16.0169 2.16822 16.026 2.16837 16.0351L2.16862 16.0586C2.19247 17.8988 2.87495 18.3709 4.37891 18.793C4.93043 18.9477 5.77609 19.0517 6.60388 19.1206C7.23918 19.1736 7.55691 19.9403 7.1454 20.4272C6.6129 21.0572 6.09394 21.7226 5.81542 22.2184C5.05041 23.5803 4.90164 24.3967 6.186 25.7148L6.20242 25.7316C6.20878 25.7381 6.21511 25.7447 6.22156 25.7511L6.25736 25.7871C7.57546 27.0714 8.39232 26.9222 9.75422 26.1572C10.2624 25.8718 10.9485 25.3338 11.5923 24.7876C12.079 24.3746 12.8473 24.6928 12.8995 25.329C12.9685 26.1694 13.0732 27.0334 13.2305 27.5938C13.6525 29.0977 14.1246 29.7808 15.9648 29.8047L16.0156 29.8045C16.0324 29.8046 16.0494 29.804 16.0664 29.804C17.9066 29.7802 18.3787 29.0977 18.8008 27.5938C18.9538 27.0484 19.0571 26.2154 19.1261 25.3965C19.1796 24.7613 19.9465 24.444 20.433 24.8559C21.0694 25.3948 21.7443 25.9224 22.2458 26.2041C23.6077 26.9691 24.4245 27.1183 25.7426 25.834L25.7784 25.7979L25.7904 25.7859L25.7976 25.7784L25.814 25.7617C27.0984 24.4436 26.9496 23.6272 26.1846 22.2653C25.8997 21.7581 25.3632 21.0735 24.818 20.4308C24.4051 19.9441 24.7233 19.1759 25.3594 19.1237C26.1988 19.0547 27.0614 18.95 27.6211 18.793C29.125 18.3709 29.8082 17.8988 29.832 16.0586L29.8319 16.0078C29.8319 15.9988 29.8318 15.9896 29.8316 15.9805L29.8314 15.957C29.8075 14.1168 29.125 13.6447 27.6211 13.2227C27.0696 13.0679 26.2239 12.964 25.3961 12.895C24.7608 12.8421 24.4431 12.0754 24.8546 11.5885C25.3871 10.9584 25.9061 10.2931 26.1846 9.79722C26.9496 8.43532 27.0984 7.61891 25.814 6.30082L25.7976 6.28405C25.7912 6.27748 25.7849 6.27094 25.7784 6.26456L25.7426 6.22854C24.4245 4.94418 23.6077 5.09341 22.2458 5.85842C21.7376 6.14384 21.0515 6.6818 20.4077 7.22806C19.921 7.64107 19.1527 7.32286 19.1005 6.68666C19.0315 5.84626 18.9268 4.98225 18.7695 4.42188C18.3475 2.91792 17.8754 2.23479 16.0352 2.21094L15.9844 2.2111C15.9753 2.21104 15.9662 2.21119 15.9571 2.21133L15.9336 2.21159C14.0934 2.23544 13.6213 2.91792 13.1992 4.42188C13.0462 4.96724 12.9429 5.80021 12.8739 6.61911ZM15.9961 21.4141C18.9819 21.4141 21.4023 18.9936 21.4023 16.0078C21.4023 13.022 18.9819 10.6016 15.9961 10.6016C13.0103 10.6016 10.5898 13.022 10.5898 16.0078C10.5898 18.9936 13.0103 21.4141 15.9961 21.4141Z" fill="url(#paint2_radial_23692_9272)"/>
<path fill-rule="evenodd" clip-rule="evenodd" d="M12.8739 6.61911C12.8204 7.25437 12.0535 7.57167 11.567 7.15971C10.9306 6.62087 10.2557 6.09323 9.75422 5.81154C8.39232 5.04653 7.57546 4.89731 6.25736 6.18167L6.22156 6.21769C6.21512 6.22405 6.20877 6.2306 6.20243 6.23716L6.186 6.25394C4.90164 7.57204 5.05041 8.38845 5.81542 9.75035C6.10031 10.2575 6.63678 10.9421 7.18198 11.5848C7.59488 12.0715 7.27671 12.8397 6.64058 12.892C5.80116 12.9609 4.93859 13.0656 4.37891 13.2227C2.87495 13.6447 2.19182 14.1168 2.16797 15.957L2.16813 16.0078C2.16807 16.0169 2.16822 16.026 2.16837 16.0351L2.16862 16.0586C2.19247 17.8988 2.87495 18.3709 4.37891 18.793C4.93043 18.9477 5.77609 19.0517 6.60388 19.1206C7.23918 19.1736 7.55691 19.9403 7.1454 20.4272C6.6129 21.0572 6.09394 21.7226 5.81542 22.2184C5.05041 23.5803 4.90164 24.3967 6.186 25.7148L6.20242 25.7316C6.20878 25.7381 6.21511 25.7447 6.22156 25.7511L6.25736 25.7871C7.57546 27.0714 8.39232 26.9222 9.75422 26.1572C10.2624 25.8718 10.9485 25.3338 11.5923 24.7876C12.079 24.3746 12.8473 24.6928 12.8995 25.329C12.9685 26.1694 13.0732 27.0334 13.2305 27.5938C13.6525 29.0977 14.1246 29.7808 15.9648 29.8047L16.0156 29.8045C16.0324 29.8046 16.0494 29.804 16.0664 29.804C17.9066 29.7802 18.3787 29.0977 18.8008 27.5938C18.9538 27.0484 19.0571 26.2154 19.1261 25.3965C19.1796 24.7613 19.9465 24.444 20.433 24.8559C21.0694 25.3948 21.7443 25.9224 22.2458 26.2041C23.6077 26.9691 24.4245 27.1183 25.7426 25.834L25.7784 25.7979L25.7904 25.7859L25.7976 25.7784L25.814 25.7617C27.0984 24.4436 26.9496 23.6272 26.1846 22.2653C25.8997 21.7581 25.3632 21.0735 24.818 20.4308C24.4051 19.9441 24.7233 19.1759 25.3594 19.1237C26.1988 19.0547 27.0614 18.95 27.6211 18.793C29.125 18.3709 29.8082 17.8988 29.832 16.0586L29.8319 16.0078C29.8319 15.9988 29.8318 15.9896 29.8316 15.9805L29.8314 15.957C29.8075 14.1168 29.125 13.6447 27.6211 13.2227C27.0696 13.0679 26.2239 12.964 25.3961 12.895C24.7608 12.8421 24.4431 12.0754 24.8546 11.5885C25.3871 10.9584 25.9061 10.2931 26.1846 9.79722C26.9496 8.43532 27.0984 7.61891 25.814 6.30082L25.7976 6.28405C25.7912 6.27748 25.7849 6.27094 25.7784 6.26456L25.7426 6.22854C24.4245 4.94418 23.6077 5.09341 22.2458 5.85842C21.7376 6.14384 21.0515 6.6818 20.4077 7.22806C19.921 7.64107 19.1527 7.32286 19.1005 6.68666C19.0315 5.84626 18.9268 4.98225 18.7695 4.42188C18.3475 2.91792 17.8754 2.23479 16.0352 2.21094L15.9844 2.2111C15.9753 2.21104 15.9662 2.21119 15.9571 2.21133L15.9336 2.21159C14.0934 2.23544 13.6213 2.91792 13.1992 4.42188C13.0462 4.96724 12.9429 5.80021 12.8739 6.61911ZM15.9961 21.4141C18.9819 21.4141 21.4023 18.9936 21.4023 16.0078C21.4023 13.022 18.9819 10.6016 15.9961 10.6016C13.0103 10.6016 10.5898 13.022 10.5898 16.0078C10.5898 18.9936 13.0103 21.4141 15.9961 21.4141Z" fill="url(#paint3_radial_23692_9272)"/>
<path fill-rule="evenodd" clip-rule="evenodd" d="M12.8739 6.61911C12.8204 7.25437 12.0535 7.57167 11.567 7.15971C10.9306 6.62087 10.2557 6.09323 9.75422 5.81154C8.39232 5.04653 7.57546 4.89731 6.25736 6.18167L6.22156 6.21769C6.21512 6.22405 6.20877 6.2306 6.20243 6.23716L6.186 6.25394C4.90164 7.57204 5.05041 8.38845 5.81542 9.75035C6.10031 10.2575 6.63678 10.9421 7.18198 11.5848C7.59488 12.0715 7.27671 12.8397 6.64058 12.892C5.80116 12.9609 4.93859 13.0656 4.37891 13.2227C2.87495 13.6447 2.19182 14.1168 2.16797 15.957L2.16813 16.0078C2.16807 16.0169 2.16822 16.026 2.16837 16.0351L2.16862 16.0586C2.19247 17.8988 2.87495 18.3709 4.37891 18.793C4.93043 18.9477 5.77609 19.0517 6.60388 19.1206C7.23918 19.1736 7.55691 19.9403 7.1454 20.4272C6.6129 21.0572 6.09394 21.7226 5.81542 22.2184C5.05041 23.5803 4.90164 24.3967 6.186 25.7148L6.20242 25.7316C6.20878 25.7381 6.21511 25.7447 6.22156 25.7511L6.25736 25.7871C7.57546 27.0714 8.39232 26.9222 9.75422 26.1572C10.2624 25.8718 10.9485 25.3338 11.5923 24.7876C12.079 24.3746 12.8473 24.6928 12.8995 25.329C12.9685 26.1694 13.0732 27.0334 13.2305 27.5938C13.6525 29.0977 14.1246 29.7808 15.9648 29.8047L16.0156 29.8045C16.0324 29.8046 16.0494 29.804 16.0664 29.804C17.9066 29.7802 18.3787 29.0977 18.8008 27.5938C18.9538 27.0484 19.0571 26.2154 19.1261 25.3965C19.1796 24.7613 19.9465 24.444 20.433 24.8559C21.0694 25.3948 21.7443 25.9224 22.2458 26.2041C23.6077 26.9691 24.4245 27.1183 25.7426 25.834L25.7784 25.7979L25.7904 25.7859L25.7976 25.7784L25.814 25.7617C27.0984 24.4436 26.9496 23.6272 26.1846 22.2653C25.8997 21.7581 25.3632 21.0735 24.818 20.4308C24.4051 19.9441 24.7233 19.1759 25.3594 19.1237C26.1988 19.0547 27.0614 18.95 27.6211 18.793C29.125 18.3709 29.8082 17.8988 29.832 16.0586L29.8319 16.0078C29.8319 15.9988 29.8318 15.9896 29.8316 15.9805L29.8314 15.957C29.8075 14.1168 29.125 13.6447 27.6211 13.2227C27.0696 13.0679 26.2239 12.964 25.3961 12.895C24.7608 12.8421 24.4431 12.0754 24.8546 11.5885C25.3871 10.9584 25.9061 10.2931 26.1846 9.79722C26.9496 8.43532 27.0984 7.61891 25.814 6.30082L25.7976 6.28405C25.7912 6.27748 25.7849 6.27094 25.7784 6.26456L25.7426 6.22854C24.4245 4.94418 23.6077 5.09341 22.2458 5.85842C21.7376 6.14384 21.0515 6.6818 20.4077 7.22806C19.921 7.64107 19.1527 7.32286 19.1005 6.68666C19.0315 5.84626 18.9268 4.98225 18.7695 4.42188C18.3475 2.91792 17.8754 2.23479 16.0352 2.21094L15.9844 2.2111C15.9753 2.21104 15.9662 2.21119 15.9571 2.21133L15.9336 2.21159C14.0934 2.23544 13.6213 2.91792 13.1992 4.42188C13.0462 4.96724 12.9429 5.80021 12.8739 6.61911ZM15.9961 21.4141C18.9819 21.4141 21.4023 18.9936 21.4023 16.0078C21.4023 13.022 18.9819 10.6016 15.9961 10.6016C13.0103 10.6016 10.5898 13.022 10.5898 16.0078C10.5898 18.9936 13.0103 21.4141 15.9961 21.4141Z" fill="url(#paint4_radial_23692_9272)"/>
<path fill-rule="evenodd" clip-rule="evenodd" d="M12.8739 6.61911C12.8204 7.25437 12.0535 7.57167 11.567 7.15971C10.9306 6.62087 10.2557 6.09323 9.75422 5.81154C8.39232 5.04653 7.57546 4.89731 6.25736 6.18167L6.22156 6.21769C6.21512 6.22405 6.20877 6.2306 6.20243 6.23716L6.186 6.25394C4.90164 7.57204 5.05041 8.38845 5.81542 9.75035C6.10031 10.2575 6.63678 10.9421 7.18198 11.5848C7.59488 12.0715 7.27671 12.8397 6.64058 12.892C5.80116 12.9609 4.93859 13.0656 4.37891 13.2227C2.87495 13.6447 2.19182 14.1168 2.16797 15.957L2.16813 16.0078C2.16807 16.0169 2.16822 16.026 2.16837 16.0351L2.16862 16.0586C2.19247 17.8988 2.87495 18.3709 4.37891 18.793C4.93043 18.9477 5.77609 19.0517 6.60388 19.1206C7.23918 19.1736 7.55691 19.9403 7.1454 20.4272C6.6129 21.0572 6.09394 21.7226 5.81542 22.2184C5.05041 23.5803 4.90164 24.3967 6.186 25.7148L6.20242 25.7316C6.20878 25.7381 6.21511 25.7447 6.22156 25.7511L6.25736 25.7871C7.57546 27.0714 8.39232 26.9222 9.75422 26.1572C10.2624 25.8718 10.9485 25.3338 11.5923 24.7876C12.079 24.3746 12.8473 24.6928 12.8995 25.329C12.9685 26.1694 13.0732 27.0334 13.2305 27.5938C13.6525 29.0977 14.1246 29.7808 15.9648 29.8047L16.0156 29.8045C16.0324 29.8046 16.0494 29.804 16.0664 29.804C17.9066 29.7802 18.3787 29.0977 18.8008 27.5938C18.9538 27.0484 19.0571 26.2154 19.1261 25.3965C19.1796 24.7613 19.9465 24.444 20.433 24.8559C21.0694 25.3948 21.7443 25.9224 22.2458 26.2041C23.6077 26.9691 24.4245 27.1183 25.7426 25.834L25.7784 25.7979L25.7904 25.7859L25.7976 25.7784L25.814 25.7617C27.0984 24.4436 26.9496 23.6272 26.1846 22.2653C25.8997 21.7581 25.3632 21.0735 24.818 20.4308C24.4051 19.9441 24.7233 19.1759 25.3594 19.1237C26.1988 19.0547 27.0614 18.95 27.6211 18.793C29.125 18.3709 29.8082 17.8988 29.832 16.0586L29.8319 16.0078C29.8319 15.9988 29.8318 15.9896 29.8316 15.9805L29.8314 15.957C29.8075 14.1168 29.125 13.6447 27.6211 13.2227C27.0696 13.0679 26.2239 12.964 25.3961 12.895C24.7608 12.8421 24.4431 12.0754 24.8546 11.5885C25.3871 10.9584 25.9061 10.2931 26.1846 9.79722C26.9496 8.43532 27.0984 7.61891 25.814 6.30082L25.7976 6.28405C25.7912 6.27748 25.7849 6.27094 25.7784 6.26456L25.7426 6.22854C24.4245 4.94418 23.6077 5.09341 22.2458 5.85842C21.7376 6.14384 21.0515 6.6818 20.4077 7.22806C19.921 7.64107 19.1527 7.32286 19.1005 6.68666C19.0315 5.84626 18.9268 4.98225 18.7695 4.42188C18.3475 2.91792 17.8754 2.23479 16.0352 2.21094L15.9844 2.2111C15.9753 2.21104 15.9662 2.21119 15.9571 2.21133L15.9336 2.21159C14.0934 2.23544 13.6213 2.91792 13.1992 4.42188C13.0462 4.96724 12.9429 5.80021 12.8739 6.61911ZM15.9961 21.4141C18.9819 21.4141 21.4023 18.9936 21.4023 16.0078C21.4023 13.022 18.9819 10.6016 15.9961 10.6016C13.0103 10.6016 10.5898 13.022 10.5898 16.0078C10.5898 18.9936 13.0103 21.4141 15.9961 21.4141Z" fill="url(#paint5_radial_23692_9272)"/>
<path fill-rule="evenodd" clip-rule="evenodd" d="M12.8739 6.61911C12.8204 7.25437 12.0535 7.57167 11.567 7.15971C10.9306 6.62087 10.2557 6.09323 9.75422 5.81154C8.39232 5.04653 7.57546 4.89731 6.25736 6.18167L6.22156 6.21769C6.21512 6.22405 6.20877 6.2306 6.20243 6.23716L6.186 6.25394C4.90164 7.57204 5.05041 8.38845 5.81542 9.75035C6.10031 10.2575 6.63678 10.9421 7.18198 11.5848C7.59488 12.0715 7.27671 12.8397 6.64058 12.892C5.80116 12.9609 4.93859 13.0656 4.37891 13.2227C2.87495 13.6447 2.19182 14.1168 2.16797 15.957L2.16813 16.0078C2.16807 16.0169 2.16822 16.026 2.16837 16.0351L2.16862 16.0586C2.19247 17.8988 2.87495 18.3709 4.37891 18.793C4.93043 18.9477 5.77609 19.0517 6.60388 19.1206C7.23918 19.1736 7.55691 19.9403 7.1454 20.4272C6.6129 21.0572 6.09394 21.7226 5.81542 22.2184C5.05041 23.5803 4.90164 24.3967 6.186 25.7148L6.20242 25.7316C6.20878 25.7381 6.21511 25.7447 6.22156 25.7511L6.25736 25.7871C7.57546 27.0714 8.39232 26.9222 9.75422 26.1572C10.2624 25.8718 10.9485 25.3338 11.5923 24.7876C12.079 24.3746 12.8473 24.6928 12.8995 25.329C12.9685 26.1694 13.0732 27.0334 13.2305 27.5938C13.6525 29.0977 14.1246 29.7808 15.9648 29.8047L16.0156 29.8045C16.0324 29.8046 16.0494 29.804 16.0664 29.804C17.9066 29.7802 18.3787 29.0977 18.8008 27.5938C18.9538 27.0484 19.0571 26.2154 19.1261 25.3965C19.1796 24.7613 19.9465 24.444 20.433 24.8559C21.0694 25.3948 21.7443 25.9224 22.2458 26.2041C23.6077 26.9691 24.4245 27.1183 25.7426 25.834L25.7784 25.7979L25.7904 25.7859L25.7976 25.7784L25.814 25.7617C27.0984 24.4436 26.9496 23.6272 26.1846 22.2653C25.8997 21.7581 25.3632 21.0735 24.818 20.4308C24.4051 19.9441 24.7233 19.1759 25.3594 19.1237C26.1988 19.0547 27.0614 18.95 27.6211 18.793C29.125 18.3709 29.8082 17.8988 29.832 16.0586L29.8319 16.0078C29.8319 15.9988 29.8318 15.9896 29.8316 15.9805L29.8314 15.957C29.8075 14.1168 29.125 13.6447 27.6211 13.2227C27.0696 13.0679 26.2239 12.964 25.3961 12.895C24.7608 12.8421 24.4431 12.0754 24.8546 11.5885C25.3871 10.9584 25.9061 10.2931 26.1846 9.79722C26.9496 8.43532 27.0984 7.61891 25.814 6.30082L25.7976 6.28405C25.7912 6.27748 25.7849 6.27094 25.7784 6.26456L25.7426 6.22854C24.4245 4.94418 23.6077 5.09341 22.2458 5.85842C21.7376 6.14384 21.0515 6.6818 20.4077 7.22806C19.921 7.64107 19.1527 7.32286 19.1005 6.68666C19.0315 5.84626 18.9268 4.98225 18.7695 4.42188C18.3475 2.91792 17.8754 2.23479 16.0352 2.21094L15.9844 2.2111C15.9753 2.21104 15.9662 2.21119 15.9571 2.21133L15.9336 2.21159C14.0934 2.23544 13.6213 2.91792 13.1992 4.42188C13.0462 4.96724 12.9429 5.80021 12.8739 6.61911ZM15.9961 21.4141C18.9819 21.4141 21.4023 18.9936 21.4023 16.0078C21.4023 13.022 18.9819 10.6016 15.9961 10.6016C13.0103 10.6016 10.5898 13.022 10.5898 16.0078C10.5898 18.9936 13.0103 21.4141 15.9961 21.4141Z" fill="url(#paint6_radial_23692_9272)"/>
<path fill-rule="evenodd" clip-rule="evenodd" d="M12.8739 6.61911C12.8204 7.25437 12.0535 7.57167 11.567 7.15971C10.9306 6.62087 10.2557 6.09323 9.75422 5.81154C8.39232 5.04653 7.57546 4.89731 6.25736 6.18167L6.22156 6.21769C6.21512 6.22405 6.20877 6.2306 6.20243 6.23716L6.186 6.25394C4.90164 7.57204 5.05041 8.38845 5.81542 9.75035C6.10031 10.2575 6.63678 10.9421 7.18198 11.5848C7.59488 12.0715 7.27671 12.8397 6.64058 12.892C5.80116 12.9609 4.93859 13.0656 4.37891 13.2227C2.87495 13.6447 2.19182 14.1168 2.16797 15.957L2.16813 16.0078C2.16807 16.0169 2.16822 16.026 2.16837 16.0351L2.16862 16.0586C2.19247 17.8988 2.87495 18.3709 4.37891 18.793C4.93043 18.9477 5.77609 19.0517 6.60388 19.1206C7.23918 19.1736 7.55691 19.9403 7.1454 20.4272C6.6129 21.0572 6.09394 21.7226 5.81542 22.2184C5.05041 23.5803 4.90164 24.3967 6.186 25.7148L6.20242 25.7316C6.20878 25.7381 6.21511 25.7447 6.22156 25.7511L6.25736 25.7871C7.57546 27.0714 8.39232 26.9222 9.75422 26.1572C10.2624 25.8718 10.9485 25.3338 11.5923 24.7876C12.079 24.3746 12.8473 24.6928 12.8995 25.329C12.9685 26.1694 13.0732 27.0334 13.2305 27.5938C13.6525 29.0977 14.1246 29.7808 15.9648 29.8047L16.0156 29.8045C16.0324 29.8046 16.0494 29.804 16.0664 29.804C17.9066 29.7802 18.3787 29.0977 18.8008 27.5938C18.9538 27.0484 19.0571 26.2154 19.1261 25.3965C19.1796 24.7613 19.9465 24.444 20.433 24.8559C21.0694 25.3948 21.7443 25.9224 22.2458 26.2041C23.6077 26.9691 24.4245 27.1183 25.7426 25.834L25.7784 25.7979L25.7904 25.7859L25.7976 25.7784L25.814 25.7617C27.0984 24.4436 26.9496 23.6272 26.1846 22.2653C25.8997 21.7581 25.3632 21.0735 24.818 20.4308C24.4051 19.9441 24.7233 19.1759 25.3594 19.1237C26.1988 19.0547 27.0614 18.95 27.6211 18.793C29.125 18.3709 29.8082 17.8988 29.832 16.0586L29.8319 16.0078C29.8319 15.9988 29.8318 15.9896 29.8316 15.9805L29.8314 15.957C29.8075 14.1168 29.125 13.6447 27.6211 13.2227C27.0696 13.0679 26.2239 12.964 25.3961 12.895C24.7608 12.8421 24.4431 12.0754 24.8546 11.5885C25.3871 10.9584 25.9061 10.2931 26.1846 9.79722C26.9496 8.43532 27.0984 7.61891 25.814 6.30082L25.7976 6.28405C25.7912 6.27748 25.7849 6.27094 25.7784 6.26456L25.7426 6.22854C24.4245 4.94418 23.6077 5.09341 22.2458 5.85842C21.7376 6.14384 21.0515 6.6818 20.4077 7.22806C19.921 7.64107 19.1527 7.32286 19.1005 6.68666C19.0315 5.84626 18.9268 4.98225 18.7695 4.42188C18.3475 2.91792 17.8754 2.23479 16.0352 2.21094L15.9844 2.2111C15.9753 2.21104 15.9662 2.21119 15.9571 2.21133L15.9336 2.21159C14.0934 2.23544 13.6213 2.91792 13.1992 4.42188C13.0462 4.96724 12.9429 5.80021 12.8739 6.61911ZM15.9961 21.4141C18.9819 21.4141 21.4023 18.9936 21.4023 16.0078C21.4023 13.022 18.9819 10.6016 15.9961 10.6016C13.0103 10.6016 10.5898 13.022 10.5898 16.0078C10.5898 18.9936 13.0103 21.4141 15.9961 21.4141Z" fill="url(#paint7_radial_23692_9272)"/>
<path fill-rule="evenodd" clip-rule="evenodd" d="M12.8739 6.61911C12.8204 7.25437 12.0535 7.57167 11.567 7.15971C10.9306 6.62087 10.2557 6.09323 9.75422 5.81154C8.39232 5.04653 7.57546 4.89731 6.25736 6.18167L6.22156 6.21769C6.21512 6.22405 6.20877 6.2306 6.20243 6.23716L6.186 6.25394C4.90164 7.57204 5.05041 8.38845 5.81542 9.75035C6.10031 10.2575 6.63678 10.9421 7.18198 11.5848C7.59488 12.0715 7.27671 12.8397 6.64058 12.892C5.80116 12.9609 4.93859 13.0656 4.37891 13.2227C2.87495 13.6447 2.19182 14.1168 2.16797 15.957L2.16813 16.0078C2.16807 16.0169 2.16822 16.026 2.16837 16.0351L2.16862 16.0586C2.19247 17.8988 2.87495 18.3709 4.37891 18.793C4.93043 18.9477 5.77609 19.0517 6.60388 19.1206C7.23918 19.1736 7.55691 19.9403 7.1454 20.4272C6.6129 21.0572 6.09394 21.7226 5.81542 22.2184C5.05041 23.5803 4.90164 24.3967 6.186 25.7148L6.20242 25.7316C6.20878 25.7381 6.21511 25.7447 6.22156 25.7511L6.25736 25.7871C7.57546 27.0714 8.39232 26.9222 9.75422 26.1572C10.2624 25.8718 10.9485 25.3338 11.5923 24.7876C12.079 24.3746 12.8473 24.6928 12.8995 25.329C12.9685 26.1694 13.0732 27.0334 13.2305 27.5938C13.6525 29.0977 14.1246 29.7808 15.9648 29.8047L16.0156 29.8045C16.0324 29.8046 16.0494 29.804 16.0664 29.804C17.9066 29.7802 18.3787 29.0977 18.8008 27.5938C18.9538 27.0484 19.0571 26.2154 19.1261 25.3965C19.1796 24.7613 19.9465 24.444 20.433 24.8559C21.0694 25.3948 21.7443 25.9224 22.2458 26.2041C23.6077 26.9691 24.4245 27.1183 25.7426 25.834L25.7784 25.7979L25.7904 25.7859L25.7976 25.7784L25.814 25.7617C27.0984 24.4436 26.9496 23.6272 26.1846 22.2653C25.8997 21.7581 25.3632 21.0735 24.818 20.4308C24.4051 19.9441 24.7233 19.1759 25.3594 19.1237C26.1988 19.0547 27.0614 18.95 27.6211 18.793C29.125 18.3709 29.8082 17.8988 29.832 16.0586L29.8319 16.0078C29.8319 15.9988 29.8318 15.9896 29.8316 15.9805L29.8314 15.957C29.8075 14.1168 29.125 13.6447 27.6211 13.2227C27.0696 13.0679 26.2239 12.964 25.3961 12.895C24.7608 12.8421 24.4431 12.0754 24.8546 11.5885C25.3871 10.9584 25.9061 10.2931 26.1846 9.79722C26.9496 8.43532 27.0984 7.61891 25.814 6.30082L25.7976 6.28405C25.7912 6.27748 25.7849 6.27094 25.7784 6.26456L25.7426 6.22854C24.4245 4.94418 23.6077 5.09341 22.2458 5.85842C21.7376 6.14384 21.0515 6.6818 20.4077 7.22806C19.921 7.64107 19.1527 7.32286 19.1005 6.68666C19.0315 5.84626 18.9268 4.98225 18.7695 4.42188C18.3475 2.91792 17.8754 2.23479 16.0352 2.21094L15.9844 2.2111C15.9753 2.21104 15.9662 2.21119 15.9571 2.21133L15.9336 2.21159C14.0934 2.23544 13.6213 2.91792 13.1992 4.42188C13.0462 4.96724 12.9429 5.80021 12.8739 6.61911ZM15.9961 21.4141C18.9819 21.4141 21.4023 18.9936 21.4023 16.0078C21.4023 13.022 18.9819 10.6016 15.9961 10.6016C13.0103 10.6016 10.5898 13.022 10.5898 16.0078C10.5898 18.9936 13.0103 21.4141 15.9961 21.4141Z" fill="url(#paint8_radial_23692_9272)"/>
<path fill-rule="evenodd" clip-rule="evenodd" d="M12.8739 6.61911C12.8204 7.25437 12.0535 7.57167 11.567 7.15971C10.9306 6.62087 10.2557 6.09323 9.75422 5.81154C8.39232 5.04653 7.57546 4.89731 6.25736 6.18167L6.22156 6.21769C6.21512 6.22405 6.20877 6.2306 6.20243 6.23716L6.186 6.25394C4.90164 7.57204 5.05041 8.38845 5.81542 9.75035C6.10031 10.2575 6.63678 10.9421 7.18198 11.5848C7.59488 12.0715 7.27671 12.8397 6.64058 12.892C5.80116 12.9609 4.93859 13.0656 4.37891 13.2227C2.87495 13.6447 2.19182 14.1168 2.16797 15.957L2.16813 16.0078C2.16807 16.0169 2.16822 16.026 2.16837 16.0351L2.16862 16.0586C2.19247 17.8988 2.87495 18.3709 4.37891 18.793C4.93043 18.9477 5.77609 19.0517 6.60388 19.1206C7.23918 19.1736 7.55691 19.9403 7.1454 20.4272C6.6129 21.0572 6.09394 21.7226 5.81542 22.2184C5.05041 23.5803 4.90164 24.3967 6.186 25.7148L6.20242 25.7316C6.20878 25.7381 6.21511 25.7447 6.22156 25.7511L6.25736 25.7871C7.57546 27.0714 8.39232 26.9222 9.75422 26.1572C10.2624 25.8718 10.9485 25.3338 11.5923 24.7876C12.079 24.3746 12.8473 24.6928 12.8995 25.329C12.9685 26.1694 13.0732 27.0334 13.2305 27.5938C13.6525 29.0977 14.1246 29.7808 15.9648 29.8047L16.0156 29.8045C16.0324 29.8046 16.0494 29.804 16.0664 29.804C17.9066 29.7802 18.3787 29.0977 18.8008 27.5938C18.9538 27.0484 19.0571 26.2154 19.1261 25.3965C19.1796 24.7613 19.9465 24.444 20.433 24.8559C21.0694 25.3948 21.7443 25.9224 22.2458 26.2041C23.6077 26.9691 24.4245 27.1183 25.7426 25.834L25.7784 25.7979L25.7904 25.7859L25.7976 25.7784L25.814 25.7617C27.0984 24.4436 26.9496 23.6272 26.1846 22.2653C25.8997 21.7581 25.3632 21.0735 24.818 20.4308C24.4051 19.9441 24.7233 19.1759 25.3594 19.1237C26.1988 19.0547 27.0614 18.95 27.6211 18.793C29.125 18.3709 29.8082 17.8988 29.832 16.0586L29.8319 16.0078C29.8319 15.9988 29.8318 15.9896 29.8316 15.9805L29.8314 15.957C29.8075 14.1168 29.125 13.6447 27.6211 13.2227C27.0696 13.0679 26.2239 12.964 25.3961 12.895C24.7608 12.8421 24.4431 12.0754 24.8546 11.5885C25.3871 10.9584 25.9061 10.2931 26.1846 9.79722C26.9496 8.43532 27.0984 7.61891 25.814 6.30082L25.7976 6.28405C25.7912 6.27748 25.7849 6.27094 25.7784 6.26456L25.7426 6.22854C24.4245 4.94418 23.6077 5.09341 22.2458 5.85842C21.7376 6.14384 21.0515 6.6818 20.4077 7.22806C19.921 7.64107 19.1527 7.32286 19.1005 6.68666C19.0315 5.84626 18.9268 4.98225 18.7695 4.42188C18.3475 2.91792 17.8754 2.23479 16.0352 2.21094L15.9844 2.2111C15.9753 2.21104 15.9662 2.21119 15.9571 2.21133L15.9336 2.21159C14.0934 2.23544 13.6213 2.91792 13.1992 4.42188C13.0462 4.96724 12.9429 5.80021 12.8739 6.61911ZM15.9961 21.4141C18.9819 21.4141 21.4023 18.9936 21.4023 16.0078C21.4023 13.022 18.9819 10.6016 15.9961 10.6016C13.0103 10.6016 10.5898 13.022 10.5898 16.0078C10.5898 18.9936 13.0103 21.4141 15.9961 21.4141Z" fill="url(#paint9_radial_23692_9272)"/>
<path fill-rule="evenodd" clip-rule="evenodd" d="M12.8739 6.61911C12.8204 7.25437 12.0535 7.57167 11.567 7.15971C10.9306 6.62087 10.2557 6.09323 9.75422 5.81154C8.39232 5.04653 7.57546 4.89731 6.25736 6.18167L6.22156 6.21769C6.21512 6.22405 6.20877 6.2306 6.20243 6.23716L6.186 6.25394C4.90164 7.57204 5.05041 8.38845 5.81542 9.75035C6.10031 10.2575 6.63678 10.9421 7.18198 11.5848C7.59488 12.0715 7.27671 12.8397 6.64058 12.892C5.80116 12.9609 4.93859 13.0656 4.37891 13.2227C2.87495 13.6447 2.19182 14.1168 2.16797 15.957L2.16813 16.0078C2.16807 16.0169 2.16822 16.026 2.16837 16.0351L2.16862 16.0586C2.19247 17.8988 2.87495 18.3709 4.37891 18.793C4.93043 18.9477 5.77609 19.0517 6.60388 19.1206C7.23918 19.1736 7.55691 19.9403 7.1454 20.4272C6.6129 21.0572 6.09394 21.7226 5.81542 22.2184C5.05041 23.5803 4.90164 24.3967 6.186 25.7148L6.20242 25.7316C6.20878 25.7381 6.21511 25.7447 6.22156 25.7511L6.25736 25.7871C7.57546 27.0714 8.39232 26.9222 9.75422 26.1572C10.2624 25.8718 10.9485 25.3338 11.5923 24.7876C12.079 24.3746 12.8473 24.6928 12.8995 25.329C12.9685 26.1694 13.0732 27.0334 13.2305 27.5938C13.6525 29.0977 14.1246 29.7808 15.9648 29.8047L16.0156 29.8045C16.0324 29.8046 16.0494 29.804 16.0664 29.804C17.9066 29.7802 18.3787 29.0977 18.8008 27.5938C18.9538 27.0484 19.0571 26.2154 19.1261 25.3965C19.1796 24.7613 19.9465 24.444 20.433 24.8559C21.0694 25.3948 21.7443 25.9224 22.2458 26.2041C23.6077 26.9691 24.4245 27.1183 25.7426 25.834L25.7784 25.7979L25.7904 25.7859L25.7976 25.7784L25.814 25.7617C27.0984 24.4436 26.9496 23.6272 26.1846 22.2653C25.8997 21.7581 25.3632 21.0735 24.818 20.4308C24.4051 19.9441 24.7233 19.1759 25.3594 19.1237C26.1988 19.0547 27.0614 18.95 27.6211 18.793C29.125 18.3709 29.8082 17.8988 29.832 16.0586L29.8319 16.0078C29.8319 15.9988 29.8318 15.9896 29.8316 15.9805L29.8314 15.957C29.8075 14.1168 29.125 13.6447 27.6211 13.2227C27.0696 13.0679 26.2239 12.964 25.3961 12.895C24.7608 12.8421 24.4431 12.0754 24.8546 11.5885C25.3871 10.9584 25.9061 10.2931 26.1846 9.79722C26.9496 8.43532 27.0984 7.61891 25.814 6.30082L25.7976 6.28405C25.7912 6.27748 25.7849 6.27094 25.7784 6.26456L25.7426 6.22854C24.4245 4.94418 23.6077 5.09341 22.2458 5.85842C21.7376 6.14384 21.0515 6.6818 20.4077 7.22806C19.921 7.64107 19.1527 7.32286 19.1005 6.68666C19.0315 5.84626 18.9268 4.98225 18.7695 4.42188C18.3475 2.91792 17.8754 2.23479 16.0352 2.21094L15.9844 2.2111C15.9753 2.21104 15.9662 2.21119 15.9571 2.21133L15.9336 2.21159C14.0934 2.23544 13.6213 2.91792 13.1992 4.42188C13.0462 4.96724 12.9429 5.80021 12.8739 6.61911ZM15.9961 21.4141C18.9819 21.4141 21.4023 18.9936 21.4023 16.0078C21.4023 13.022 18.9819 10.6016 15.9961 10.6016C13.0103 10.6016 10.5898 13.022 10.5898 16.0078C10.5898 18.9936 13.0103 21.4141 15.9961 21.4141Z" fill="url(#paint10_radial_23692_9272)"/>
<path fill-rule="evenodd" clip-rule="evenodd" d="M12.8739 6.61911C12.8204 7.25437 12.0535 7.57167 11.567 7.15971C10.9306 6.62087 10.2557 6.09323 9.75422 5.81154C8.39232 5.04653 7.57546 4.89731 6.25736 6.18167L6.22156 6.21769C6.21512 6.22405 6.20877 6.2306 6.20243 6.23716L6.186 6.25394C4.90164 7.57204 5.05041 8.38845 5.81542 9.75035C6.10031 10.2575 6.63678 10.9421 7.18198 11.5848C7.59488 12.0715 7.27671 12.8397 6.64058 12.892C5.80116 12.9609 4.93859 13.0656 4.37891 13.2227C2.87495 13.6447 2.19182 14.1168 2.16797 15.957L2.16813 16.0078C2.16807 16.0169 2.16822 16.026 2.16837 16.0351L2.16862 16.0586C2.19247 17.8988 2.87495 18.3709 4.37891 18.793C4.93043 18.9477 5.77609 19.0517 6.60388 19.1206C7.23918 19.1736 7.55691 19.9403 7.1454 20.4272C6.6129 21.0572 6.09394 21.7226 5.81542 22.2184C5.05041 23.5803 4.90164 24.3967 6.186 25.7148L6.20242 25.7316C6.20878 25.7381 6.21511 25.7447 6.22156 25.7511L6.25736 25.7871C7.57546 27.0714 8.39232 26.9222 9.75422 26.1572C10.2624 25.8718 10.9485 25.3338 11.5923 24.7876C12.079 24.3746 12.8473 24.6928 12.8995 25.329C12.9685 26.1694 13.0732 27.0334 13.2305 27.5938C13.6525 29.0977 14.1246 29.7808 15.9648 29.8047L16.0156 29.8045C16.0324 29.8046 16.0494 29.804 16.0664 29.804C17.9066 29.7802 18.3787 29.0977 18.8008 27.5938C18.9538 27.0484 19.0571 26.2154 19.1261 25.3965C19.1796 24.7613 19.9465 24.444 20.433 24.8559C21.0694 25.3948 21.7443 25.9224 22.2458 26.2041C23.6077 26.9691 24.4245 27.1183 25.7426 25.834L25.7784 25.7979L25.7904 25.7859L25.7976 25.7784L25.814 25.7617C27.0984 24.4436 26.9496 23.6272 26.1846 22.2653C25.8997 21.7581 25.3632 21.0735 24.818 20.4308C24.4051 19.9441 24.7233 19.1759 25.3594 19.1237C26.1988 19.0547 27.0614 18.95 27.6211 18.793C29.125 18.3709 29.8082 17.8988 29.832 16.0586L29.8319 16.0078C29.8319 15.9988 29.8318 15.9896 29.8316 15.9805L29.8314 15.957C29.8075 14.1168 29.125 13.6447 27.6211 13.2227C27.0696 13.0679 26.2239 12.964 25.3961 12.895C24.7608 12.8421 24.4431 12.0754 24.8546 11.5885C25.3871 10.9584 25.9061 10.2931 26.1846 9.79722C26.9496 8.43532 27.0984 7.61891 25.814 6.30082L25.7976 6.28405C25.7912 6.27748 25.7849 6.27094 25.7784 6.26456L25.7426 6.22854C24.4245 4.94418 23.6077 5.09341 22.2458 5.85842C21.7376 6.14384 21.0515 6.6818 20.4077 7.22806C19.921 7.64107 19.1527 7.32286 19.1005 6.68666C19.0315 5.84626 18.9268 4.98225 18.7695 4.42188C18.3475 2.91792 17.8754 2.23479 16.0352 2.21094L15.9844 2.2111C15.9753 2.21104 15.9662 2.21119 15.9571 2.21133L15.9336 2.21159C14.0934 2.23544 13.6213 2.91792 13.1992 4.42188C13.0462 4.96724 12.9429 5.80021 12.8739 6.61911ZM15.9961 21.4141C18.9819 21.4141 21.4023 18.9936 21.4023 16.0078C21.4023 13.022 18.9819 10.6016 15.9961 10.6016C13.0103 10.6016 10.5898 13.022 10.5898 16.0078C10.5898 18.9936 13.0103 21.4141 15.9961 21.4141Z" fill="url(#paint11_radial_23692_9272)"/>
<path d="M15.9355 2.36133H16.0332L16.3555 2.37305C17.0687 2.41864 17.5177 2.58762 17.834 2.87305C18.2 3.20362 18.4145 3.71285 18.625 4.46289C18.7779 5.00799 18.8822 5.85911 18.9512 6.69922C19.0136 7.45687 19.9251 7.83461 20.5049 7.34277C21.1486 6.79655 21.8251 6.2669 22.3193 5.98926C22.9987 5.60764 23.5102 5.39958 24.0029 5.4248C24.4891 5.4497 24.9898 5.70466 25.6377 6.33594V6.33496L25.6719 6.37012L25.6729 6.37109C25.6779 6.37607 25.6829 6.38191 25.6895 6.38867H25.6904L25.707 6.40527C26.3382 7.0531 26.5931 7.55403 26.6182 8.04004C26.6435 8.53262 26.4353 9.04425 26.0537 9.72363C25.7829 10.2057 25.2725 10.8614 24.7402 11.4912C24.2501 12.0712 24.627 12.9819 25.3838 13.0449C26.2111 13.1139 27.0437 13.2167 27.5801 13.3672C28.3302 13.5777 28.8395 13.7921 29.1699 14.1582C29.496 14.5196 29.6699 15.0543 29.6816 15.959V16.0586C29.6697 16.9621 29.4959 17.4963 29.1699 17.8574C28.8393 18.2235 28.3301 18.4379 27.5801 18.6484C27.0357 18.8012 26.1858 18.9057 25.3467 18.9746C24.5892 19.0372 24.2123 19.9486 24.7041 20.5283C25.2491 21.1708 25.7767 21.8457 26.0537 22.3389C26.4353 23.0182 26.6435 23.5299 26.6182 24.0225C26.5931 24.5085 26.3382 25.0094 25.707 25.6572L25.6904 25.6738H25.6895L25.6836 25.6807L25.6377 25.7266C24.9898 26.3578 24.4891 26.6128 24.0029 26.6377C23.5102 26.6629 22.9987 26.4549 22.3193 26.0732C21.8316 25.7993 21.1665 25.2799 20.5303 24.7412C19.9507 24.2505 19.0404 24.6272 18.9766 25.3838C18.9076 26.2022 18.805 27.0224 18.6562 27.5527C18.4457 28.3029 18.2314 28.8122 17.8652 29.1426C17.5038 29.4686 16.9691 29.6426 16.0645 29.6543H15.9668C15.0622 29.6426 14.5274 29.4688 14.166 29.1426C13.8 28.812 13.5855 28.3028 13.375 27.5527C13.2221 27.0076 13.1178 26.1565 13.0488 25.3164C12.9864 24.5588 12.0749 24.181 11.4951 24.6729C10.8514 25.2191 10.1749 25.7487 9.68066 26.0264C9.00129 26.408 8.48977 26.616 7.99707 26.5908C7.51088 26.5659 7.0102 26.311 6.3623 25.6797H6.36133L6.32812 25.6455L6.32715 25.6445L6.31055 25.627H6.30957L6.29297 25.6104C5.66175 24.9625 5.40691 24.4616 5.38184 23.9756C5.3565 23.483 5.56467 22.9714 5.94629 22.292C6.21708 21.8099 6.72751 21.1542 7.25977 20.5244C7.74993 19.9444 7.37302 19.0338 6.61621 18.9707C5.78887 18.9018 4.95628 18.7989 4.41992 18.6484C3.66976 18.4379 3.16048 18.2236 2.83008 17.8574C2.50402 17.496 2.33009 16.9613 2.31836 16.0566V15.959C2.33009 15.0543 2.50387 14.5196 2.83008 14.1582C3.16065 13.7922 3.66988 13.5777 4.41992 13.3672C4.96434 13.2145 5.8142 13.1099 6.65332 13.041C7.41081 12.9784 7.78767 12.067 7.2959 11.4873C6.75089 10.8448 6.22333 10.17 5.94629 9.67676C5.56467 8.99738 5.3565 8.48574 5.38184 7.99316C5.40691 7.50716 5.66175 7.00622 6.29297 6.3584L6.30957 6.3418H6.31055C6.31708 6.33505 6.32211 6.3292 6.32715 6.32422L6.32812 6.32324L6.36133 6.28809L6.3623 6.28906C7.0102 5.65778 7.51088 5.40283 7.99707 5.37793C8.48977 5.35271 9.00129 5.56077 9.68066 5.94238C10.1684 6.21634 10.8335 6.73569 11.4697 7.27441C12.0493 7.76515 12.9596 7.38839 13.0234 6.63184C13.0924 5.8134 13.195 4.99323 13.3438 4.46289C13.5543 3.71273 13.7686 3.20345 14.1348 2.87305C14.4962 2.54699 15.0309 2.37306 15.9355 2.36133ZM15.9961 10.4512C12.9275 10.4512 10.4395 12.9392 10.4395 16.0078C10.4395 19.0764 12.9275 21.5645 15.9961 21.5645C19.0647 21.5645 21.5527 19.0764 21.5527 16.0078C21.5527 12.9392 19.0647 10.4512 15.9961 10.4512Z" stroke="url(#paint12_radial_23692_9272)" stroke-width="0.3"/>
<path d="M15.9355 2.36133H16.0332L16.3555 2.37305C17.0687 2.41864 17.5177 2.58762 17.834 2.87305C18.2 3.20362 18.4145 3.71285 18.625 4.46289C18.7779 5.00799 18.8822 5.85911 18.9512 6.69922C19.0136 7.45687 19.9251 7.83461 20.5049 7.34277C21.1486 6.79655 21.8251 6.2669 22.3193 5.98926C22.9987 5.60764 23.5102 5.39958 24.0029 5.4248C24.4891 5.4497 24.9898 5.70466 25.6377 6.33594V6.33496L25.6719 6.37012L25.6729 6.37109C25.6779 6.37607 25.6829 6.38191 25.6895 6.38867H25.6904L25.707 6.40527C26.3382 7.0531 26.5931 7.55403 26.6182 8.04004C26.6435 8.53262 26.4353 9.04425 26.0537 9.72363C25.7829 10.2057 25.2725 10.8614 24.7402 11.4912C24.2501 12.0712 24.627 12.9819 25.3838 13.0449C26.2111 13.1139 27.0437 13.2167 27.5801 13.3672C28.3302 13.5777 28.8395 13.7921 29.1699 14.1582C29.496 14.5196 29.6699 15.0543 29.6816 15.959V16.0586C29.6697 16.9621 29.4959 17.4963 29.1699 17.8574C28.8393 18.2235 28.3301 18.4379 27.5801 18.6484C27.0357 18.8012 26.1858 18.9057 25.3467 18.9746C24.5892 19.0372 24.2123 19.9486 24.7041 20.5283C25.2491 21.1708 25.7767 21.8457 26.0537 22.3389C26.4353 23.0182 26.6435 23.5299 26.6182 24.0225C26.5931 24.5085 26.3382 25.0094 25.707 25.6572L25.6904 25.6738H25.6895L25.6836 25.6807L25.6377 25.7266C24.9898 26.3578 24.4891 26.6128 24.0029 26.6377C23.5102 26.6629 22.9987 26.4549 22.3193 26.0732C21.8316 25.7993 21.1665 25.2799 20.5303 24.7412C19.9507 24.2505 19.0404 24.6272 18.9766 25.3838C18.9076 26.2022 18.805 27.0224 18.6562 27.5527C18.4457 28.3029 18.2314 28.8122 17.8652 29.1426C17.5038 29.4686 16.9691 29.6426 16.0645 29.6543H15.9668C15.0622 29.6426 14.5274 29.4688 14.166 29.1426C13.8 28.812 13.5855 28.3028 13.375 27.5527C13.2221 27.0076 13.1178 26.1565 13.0488 25.3164C12.9864 24.5588 12.0749 24.181 11.4951 24.6729C10.8514 25.2191 10.1749 25.7487 9.68066 26.0264C9.00129 26.408 8.48977 26.616 7.99707 26.5908C7.51088 26.5659 7.0102 26.311 6.3623 25.6797H6.36133L6.32812 25.6455L6.32715 25.6445L6.31055 25.627H6.30957L6.29297 25.6104C5.66175 24.9625 5.40691 24.4616 5.38184 23.9756C5.3565 23.483 5.56467 22.9714 5.94629 22.292C6.21708 21.8099 6.72751 21.1542 7.25977 20.5244C7.74993 19.9444 7.37302 19.0338 6.61621 18.9707C5.78887 18.9018 4.95628 18.7989 4.41992 18.6484C3.66976 18.4379 3.16048 18.2236 2.83008 17.8574C2.50402 17.496 2.33009 16.9613 2.31836 16.0566V15.959C2.33009 15.0543 2.50387 14.5196 2.83008 14.1582C3.16065 13.7922 3.66988 13.5777 4.41992 13.3672C4.96434 13.2145 5.8142 13.1099 6.65332 13.041C7.41081 12.9784 7.78767 12.067 7.2959 11.4873C6.75089 10.8448 6.22333 10.17 5.94629 9.67676C5.56467 8.99738 5.3565 8.48574 5.38184 7.99316C5.40691 7.50716 5.66175 7.00622 6.29297 6.3584L6.30957 6.3418H6.31055C6.31708 6.33505 6.32211 6.3292 6.32715 6.32422L6.32812 6.32324L6.36133 6.28809L6.3623 6.28906C7.0102 5.65778 7.51088 5.40283 7.99707 5.37793C8.48977 5.35271 9.00129 5.56077 9.68066 5.94238C10.1684 6.21634 10.8335 6.73569 11.4697 7.27441C12.0493 7.76515 12.9596 7.38839 13.0234 6.63184C13.0924 5.8134 13.195 4.99323 13.3438 4.46289C13.5543 3.71273 13.7686 3.20345 14.1348 2.87305C14.4962 2.54699 15.0309 2.37306 15.9355 2.36133ZM15.9961 10.4512C12.9275 10.4512 10.4395 12.9392 10.4395 16.0078C10.4395 19.0764 12.9275 21.5645 15.9961 21.5645C19.0647 21.5645 21.5527 19.0764 21.5527 16.0078C21.5527 12.9392 19.0647 10.4512 15.9961 10.4512Z" stroke="url(#paint13_radial_23692_9272)" stroke-width="0.3"/>
<path d="M15.9355 2.36133H16.0332L16.3555 2.37305C17.0687 2.41864 17.5177 2.58762 17.834 2.87305C18.2 3.20362 18.4145 3.71285 18.625 4.46289C18.7779 5.00799 18.8822 5.85911 18.9512 6.69922C19.0136 7.45687 19.9251 7.83461 20.5049 7.34277C21.1486 6.79655 21.8251 6.2669 22.3193 5.98926C22.9987 5.60764 23.5102 5.39958 24.0029 5.4248C24.4891 5.4497 24.9898 5.70466 25.6377 6.33594V6.33496L25.6719 6.37012L25.6729 6.37109C25.6779 6.37607 25.6829 6.38191 25.6895 6.38867H25.6904L25.707 6.40527C26.3382 7.0531 26.5931 7.55403 26.6182 8.04004C26.6435 8.53262 26.4353 9.04425 26.0537 9.72363C25.7829 10.2057 25.2725 10.8614 24.7402 11.4912C24.2501 12.0712 24.627 12.9819 25.3838 13.0449C26.2111 13.1139 27.0437 13.2167 27.5801 13.3672C28.3302 13.5777 28.8395 13.7921 29.1699 14.1582C29.496 14.5196 29.6699 15.0543 29.6816 15.959V16.0586C29.6697 16.9621 29.4959 17.4963 29.1699 17.8574C28.8393 18.2235 28.3301 18.4379 27.5801 18.6484C27.0357 18.8012 26.1858 18.9057 25.3467 18.9746C24.5892 19.0372 24.2123 19.9486 24.7041 20.5283C25.2491 21.1708 25.7767 21.8457 26.0537 22.3389C26.4353 23.0182 26.6435 23.5299 26.6182 24.0225C26.5931 24.5085 26.3382 25.0094 25.707 25.6572L25.6904 25.6738H25.6895L25.6836 25.6807L25.6377 25.7266C24.9898 26.3578 24.4891 26.6128 24.0029 26.6377C23.5102 26.6629 22.9987 26.4549 22.3193 26.0732C21.8316 25.7993 21.1665 25.2799 20.5303 24.7412C19.9507 24.2505 19.0404 24.6272 18.9766 25.3838C18.9076 26.2022 18.805 27.0224 18.6562 27.5527C18.4457 28.3029 18.2314 28.8122 17.8652 29.1426C17.5038 29.4686 16.9691 29.6426 16.0645 29.6543H15.9668C15.0622 29.6426 14.5274 29.4688 14.166 29.1426C13.8 28.812 13.5855 28.3028 13.375 27.5527C13.2221 27.0076 13.1178 26.1565 13.0488 25.3164C12.9864 24.5588 12.0749 24.181 11.4951 24.6729C10.8514 25.2191 10.1749 25.7487 9.68066 26.0264C9.00129 26.408 8.48977 26.616 7.99707 26.5908C7.51088 26.5659 7.0102 26.311 6.3623 25.6797H6.36133L6.32812 25.6455L6.32715 25.6445L6.31055 25.627H6.30957L6.29297 25.6104C5.66175 24.9625 5.40691 24.4616 5.38184 23.9756C5.3565 23.483 5.56467 22.9714 5.94629 22.292C6.21708 21.8099 6.72751 21.1542 7.25977 20.5244C7.74993 19.9444 7.37302 19.0338 6.61621 18.9707C5.78887 18.9018 4.95628 18.7989 4.41992 18.6484C3.66976 18.4379 3.16048 18.2236 2.83008 17.8574C2.50402 17.496 2.33009 16.9613 2.31836 16.0566V15.959C2.33009 15.0543 2.50387 14.5196 2.83008 14.1582C3.16065 13.7922 3.66988 13.5777 4.41992 13.3672C4.96434 13.2145 5.8142 13.1099 6.65332 13.041C7.41081 12.9784 7.78767 12.067 7.2959 11.4873C6.75089 10.8448 6.22333 10.17 5.94629 9.67676C5.56467 8.99738 5.3565 8.48574 5.38184 7.99316C5.40691 7.50716 5.66175 7.00622 6.29297 6.3584L6.30957 6.3418H6.31055C6.31708 6.33505 6.32211 6.3292 6.32715 6.32422L6.32812 6.32324L6.36133 6.28809L6.3623 6.28906C7.0102 5.65778 7.51088 5.40283 7.99707 5.37793C8.48977 5.35271 9.00129 5.56077 9.68066 5.94238C10.1684 6.21634 10.8335 6.73569 11.4697 7.27441C12.0493 7.76515 12.9596 7.38839 13.0234 6.63184C13.0924 5.8134 13.195 4.99323 13.3438 4.46289C13.5543 3.71273 13.7686 3.20345 14.1348 2.87305C14.4962 2.54699 15.0309 2.37306 15.9355 2.36133ZM15.9961 10.4512C12.9275 10.4512 10.4395 12.9392 10.4395 16.0078C10.4395 19.0764 12.9275 21.5645 15.9961 21.5645C19.0647 21.5645 21.5527 19.0764 21.5527 16.0078C21.5527 12.9392 19.0647 10.4512 15.9961 10.4512Z" stroke="url(#paint14_radial_23692_9272)" stroke-width="0.3"/>
<path d="M15.9355 2.36133H16.0332L16.3555 2.37305C17.0687 2.41864 17.5177 2.58762 17.834 2.87305C18.2 3.20362 18.4145 3.71285 18.625 4.46289C18.7779 5.00799 18.8822 5.85911 18.9512 6.69922C19.0136 7.45687 19.9251 7.83461 20.5049 7.34277C21.1486 6.79655 21.8251 6.2669 22.3193 5.98926C22.9987 5.60764 23.5102 5.39958 24.0029 5.4248C24.4891 5.4497 24.9898 5.70466 25.6377 6.33594V6.33496L25.6719 6.37012L25.6729 6.37109C25.6779 6.37607 25.6829 6.38191 25.6895 6.38867H25.6904L25.707 6.40527C26.3382 7.0531 26.5931 7.55403 26.6182 8.04004C26.6435 8.53262 26.4353 9.04425 26.0537 9.72363C25.7829 10.2057 25.2725 10.8614 24.7402 11.4912C24.2501 12.0712 24.627 12.9819 25.3838 13.0449C26.2111 13.1139 27.0437 13.2167 27.5801 13.3672C28.3302 13.5777 28.8395 13.7921 29.1699 14.1582C29.496 14.5196 29.6699 15.0543 29.6816 15.959V16.0586C29.6697 16.9621 29.4959 17.4963 29.1699 17.8574C28.8393 18.2235 28.3301 18.4379 27.5801 18.6484C27.0357 18.8012 26.1858 18.9057 25.3467 18.9746C24.5892 19.0372 24.2123 19.9486 24.7041 20.5283C25.2491 21.1708 25.7767 21.8457 26.0537 22.3389C26.4353 23.0182 26.6435 23.5299 26.6182 24.0225C26.5931 24.5085 26.3382 25.0094 25.707 25.6572L25.6904 25.6738H25.6895L25.6836 25.6807L25.6377 25.7266C24.9898 26.3578 24.4891 26.6128 24.0029 26.6377C23.5102 26.6629 22.9987 26.4549 22.3193 26.0732C21.8316 25.7993 21.1665 25.2799 20.5303 24.7412C19.9507 24.2505 19.0404 24.6272 18.9766 25.3838C18.9076 26.2022 18.805 27.0224 18.6562 27.5527C18.4457 28.3029 18.2314 28.8122 17.8652 29.1426C17.5038 29.4686 16.9691 29.6426 16.0645 29.6543H15.9668C15.0622 29.6426 14.5274 29.4688 14.166 29.1426C13.8 28.812 13.5855 28.3028 13.375 27.5527C13.2221 27.0076 13.1178 26.1565 13.0488 25.3164C12.9864 24.5588 12.0749 24.181 11.4951 24.6729C10.8514 25.2191 10.1749 25.7487 9.68066 26.0264C9.00129 26.408 8.48977 26.616 7.99707 26.5908C7.51088 26.5659 7.0102 26.311 6.3623 25.6797H6.36133L6.32812 25.6455L6.32715 25.6445L6.31055 25.627H6.30957L6.29297 25.6104C5.66175 24.9625 5.40691 24.4616 5.38184 23.9756C5.3565 23.483 5.56467 22.9714 5.94629 22.292C6.21708 21.8099 6.72751 21.1542 7.25977 20.5244C7.74993 19.9444 7.37302 19.0338 6.61621 18.9707C5.78887 18.9018 4.95628 18.7989 4.41992 18.6484C3.66976 18.4379 3.16048 18.2236 2.83008 17.8574C2.50402 17.496 2.33009 16.9613 2.31836 16.0566V15.959C2.33009 15.0543 2.50387 14.5196 2.83008 14.1582C3.16065 13.7922 3.66988 13.5777 4.41992 13.3672C4.96434 13.2145 5.8142 13.1099 6.65332 13.041C7.41081 12.9784 7.78767 12.067 7.2959 11.4873C6.75089 10.8448 6.22333 10.17 5.94629 9.67676C5.56467 8.99738 5.3565 8.48574 5.38184 7.99316C5.40691 7.50716 5.66175 7.00622 6.29297 6.3584L6.30957 6.3418H6.31055C6.31708 6.33505 6.32211 6.3292 6.32715 6.32422L6.32812 6.32324L6.36133 6.28809L6.3623 6.28906C7.0102 5.65778 7.51088 5.40283 7.99707 5.37793C8.48977 5.35271 9.00129 5.56077 9.68066 5.94238C10.1684 6.21634 10.8335 6.73569 11.4697 7.27441C12.0493 7.76515 12.9596 7.38839 13.0234 6.63184C13.0924 5.8134 13.195 4.99323 13.3438 4.46289C13.5543 3.71273 13.7686 3.20345 14.1348 2.87305C14.4962 2.54699 15.0309 2.37306 15.9355 2.36133ZM15.9961 10.4512C12.9275 10.4512 10.4395 12.9392 10.4395 16.0078C10.4395 19.0764 12.9275 21.5645 15.9961 21.5645C19.0647 21.5645 21.5527 19.0764 21.5527 16.0078C21.5527 12.9392 19.0647 10.4512 15.9961 10.4512Z" stroke="url(#paint15_radial_23692_9272)" stroke-width="0.3"/>
<path d="M15.9355 2.36133H16.0332L16.3555 2.37305C17.0687 2.41864 17.5177 2.58762 17.834 2.87305C18.2 3.20362 18.4145 3.71285 18.625 4.46289C18.7779 5.00799 18.8822 5.85911 18.9512 6.69922C19.0136 7.45687 19.9251 7.83461 20.5049 7.34277C21.1486 6.79655 21.8251 6.2669 22.3193 5.98926C22.9987 5.60764 23.5102 5.39958 24.0029 5.4248C24.4891 5.4497 24.9898 5.70466 25.6377 6.33594V6.33496L25.6719 6.37012L25.6729 6.37109C25.6779 6.37607 25.6829 6.38191 25.6895 6.38867H25.6904L25.707 6.40527C26.3382 7.0531 26.5931 7.55403 26.6182 8.04004C26.6435 8.53262 26.4353 9.04425 26.0537 9.72363C25.7829 10.2057 25.2725 10.8614 24.7402 11.4912C24.2501 12.0712 24.627 12.9819 25.3838 13.0449C26.2111 13.1139 27.0437 13.2167 27.5801 13.3672C28.3302 13.5777 28.8395 13.7921 29.1699 14.1582C29.496 14.5196 29.6699 15.0543 29.6816 15.959V16.0586C29.6697 16.9621 29.4959 17.4963 29.1699 17.8574C28.8393 18.2235 28.3301 18.4379 27.5801 18.6484C27.0357 18.8012 26.1858 18.9057 25.3467 18.9746C24.5892 19.0372 24.2123 19.9486 24.7041 20.5283C25.2491 21.1708 25.7767 21.8457 26.0537 22.3389C26.4353 23.0182 26.6435 23.5299 26.6182 24.0225C26.5931 24.5085 26.3382 25.0094 25.707 25.6572L25.6904 25.6738H25.6895L25.6836 25.6807L25.6377 25.7266C24.9898 26.3578 24.4891 26.6128 24.0029 26.6377C23.5102 26.6629 22.9987 26.4549 22.3193 26.0732C21.8316 25.7993 21.1665 25.2799 20.5303 24.7412C19.9507 24.2505 19.0404 24.6272 18.9766 25.3838C18.9076 26.2022 18.805 27.0224 18.6562 27.5527C18.4457 28.3029 18.2314 28.8122 17.8652 29.1426C17.5038 29.4686 16.9691 29.6426 16.0645 29.6543H15.9668C15.0622 29.6426 14.5274 29.4688 14.166 29.1426C13.8 28.812 13.5855 28.3028 13.375 27.5527C13.2221 27.0076 13.1178 26.1565 13.0488 25.3164C12.9864 24.5588 12.0749 24.181 11.4951 24.6729C10.8514 25.2191 10.1749 25.7487 9.68066 26.0264C9.00129 26.408 8.48977 26.616 7.99707 26.5908C7.51088 26.5659 7.0102 26.311 6.3623 25.6797H6.36133L6.32812 25.6455L6.32715 25.6445L6.31055 25.627H6.30957L6.29297 25.6104C5.66175 24.9625 5.40691 24.4616 5.38184 23.9756C5.3565 23.483 5.56467 22.9714 5.94629 22.292C6.21708 21.8099 6.72751 21.1542 7.25977 20.5244C7.74993 19.9444 7.37302 19.0338 6.61621 18.9707C5.78887 18.9018 4.95628 18.7989 4.41992 18.6484C3.66976 18.4379 3.16048 18.2236 2.83008 17.8574C2.50402 17.496 2.33009 16.9613 2.31836 16.0566V15.959C2.33009 15.0543 2.50387 14.5196 2.83008 14.1582C3.16065 13.7922 3.66988 13.5777 4.41992 13.3672C4.96434 13.2145 5.8142 13.1099 6.65332 13.041C7.41081 12.9784 7.78767 12.067 7.2959 11.4873C6.75089 10.8448 6.22333 10.17 5.94629 9.67676C5.56467 8.99738 5.3565 8.48574 5.38184 7.99316C5.40691 7.50716 5.66175 7.00622 6.29297 6.3584L6.30957 6.3418H6.31055C6.31708 6.33505 6.32211 6.3292 6.32715 6.32422L6.32812 6.32324L6.36133 6.28809L6.3623 6.28906C7.0102 5.65778 7.51088 5.40283 7.99707 5.37793C8.48977 5.35271 9.00129 5.56077 9.68066 5.94238C10.1684 6.21634 10.8335 6.73569 11.4697 7.27441C12.0493 7.76515 12.9596 7.38839 13.0234 6.63184C13.0924 5.8134 13.195 4.99323 13.3438 4.46289C13.5543 3.71273 13.7686 3.20345 14.1348 2.87305C14.4962 2.54699 15.0309 2.37306 15.9355 2.36133ZM15.9961 10.4512C12.9275 10.4512 10.4395 12.9392 10.4395 16.0078C10.4395 19.0764 12.9275 21.5645 15.9961 21.5645C19.0647 21.5645 21.5527 19.0764 21.5527 16.0078C21.5527 12.9392 19.0647 10.4512 15.9961 10.4512Z" stroke="url(#paint16_radial_23692_9272)" stroke-width="0.3"/>
<path d="M15.9355 2.36133H16.0332L16.3555 2.37305C17.0687 2.41864 17.5177 2.58762 17.834 2.87305C18.2 3.20362 18.4145 3.71285 18.625 4.46289C18.7779 5.00799 18.8822 5.85911 18.9512 6.69922C19.0136 7.45687 19.9251 7.83461 20.5049 7.34277C21.1486 6.79655 21.8251 6.2669 22.3193 5.98926C22.9987 5.60764 23.5102 5.39958 24.0029 5.4248C24.4891 5.4497 24.9898 5.70466 25.6377 6.33594V6.33496L25.6719 6.37012L25.6729 6.37109C25.6779 6.37607 25.6829 6.38191 25.6895 6.38867H25.6904L25.707 6.40527C26.3382 7.0531 26.5931 7.55403 26.6182 8.04004C26.6435 8.53262 26.4353 9.04425 26.0537 9.72363C25.7829 10.2057 25.2725 10.8614 24.7402 11.4912C24.2501 12.0712 24.627 12.9819 25.3838 13.0449C26.2111 13.1139 27.0437 13.2167 27.5801 13.3672C28.3302 13.5777 28.8395 13.7921 29.1699 14.1582C29.496 14.5196 29.6699 15.0543 29.6816 15.959V16.0586C29.6697 16.9621 29.4959 17.4963 29.1699 17.8574C28.8393 18.2235 28.3301 18.4379 27.5801 18.6484C27.0357 18.8012 26.1858 18.9057 25.3467 18.9746C24.5892 19.0372 24.2123 19.9486 24.7041 20.5283C25.2491 21.1708 25.7767 21.8457 26.0537 22.3389C26.4353 23.0182 26.6435 23.5299 26.6182 24.0225C26.5931 24.5085 26.3382 25.0094 25.707 25.6572L25.6904 25.6738H25.6895L25.6836 25.6807L25.6377 25.7266C24.9898 26.3578 24.4891 26.6128 24.0029 26.6377C23.5102 26.6629 22.9987 26.4549 22.3193 26.0732C21.8316 25.7993 21.1665 25.2799 20.5303 24.7412C19.9507 24.2505 19.0404 24.6272 18.9766 25.3838C18.9076 26.2022 18.805 27.0224 18.6562 27.5527C18.4457 28.3029 18.2314 28.8122 17.8652 29.1426C17.5038 29.4686 16.9691 29.6426 16.0645 29.6543H15.9668C15.0622 29.6426 14.5274 29.4688 14.166 29.1426C13.8 28.812 13.5855 28.3028 13.375 27.5527C13.2221 27.0076 13.1178 26.1565 13.0488 25.3164C12.9864 24.5588 12.0749 24.181 11.4951 24.6729C10.8514 25.2191 10.1749 25.7487 9.68066 26.0264C9.00129 26.408 8.48977 26.616 7.99707 26.5908C7.51088 26.5659 7.0102 26.311 6.3623 25.6797H6.36133L6.32812 25.6455L6.32715 25.6445L6.31055 25.627H6.30957L6.29297 25.6104C5.66175 24.9625 5.40691 24.4616 5.38184 23.9756C5.3565 23.483 5.56467 22.9714 5.94629 22.292C6.21708 21.8099 6.72751 21.1542 7.25977 20.5244C7.74993 19.9444 7.37302 19.0338 6.61621 18.9707C5.78887 18.9018 4.95628 18.7989 4.41992 18.6484C3.66976 18.4379 3.16048 18.2236 2.83008 17.8574C2.50402 17.496 2.33009 16.9613 2.31836 16.0566V15.959C2.33009 15.0543 2.50387 14.5196 2.83008 14.1582C3.16065 13.7922 3.66988 13.5777 4.41992 13.3672C4.96434 13.2145 5.8142 13.1099 6.65332 13.041C7.41081 12.9784 7.78767 12.067 7.2959 11.4873C6.75089 10.8448 6.22333 10.17 5.94629 9.67676C5.56467 8.99738 5.3565 8.48574 5.38184 7.99316C5.40691 7.50716 5.66175 7.00622 6.29297 6.3584L6.30957 6.3418H6.31055C6.31708 6.33505 6.32211 6.3292 6.32715 6.32422L6.32812 6.32324L6.36133 6.28809L6.3623 6.28906C7.0102 5.65778 7.51088 5.40283 7.99707 5.37793C8.48977 5.35271 9.00129 5.56077 9.68066 5.94238C10.1684 6.21634 10.8335 6.73569 11.4697 7.27441C12.0493 7.76515 12.9596 7.38839 13.0234 6.63184C13.0924 5.8134 13.195 4.99323 13.3438 4.46289C13.5543 3.71273 13.7686 3.20345 14.1348 2.87305C14.4962 2.54699 15.0309 2.37306 15.9355 2.36133ZM15.9961 10.4512C12.9275 10.4512 10.4395 12.9392 10.4395 16.0078C10.4395 19.0764 12.9275 21.5645 15.9961 21.5645C19.0647 21.5645 21.5527 19.0764 21.5527 16.0078C21.5527 12.9392 19.0647 10.4512 15.9961 10.4512Z" stroke="url(#paint17_radial_23692_9272)" stroke-width="0.3"/>
<path d="M15.9355 2.36133H16.0332L16.3555 2.37305C17.0687 2.41864 17.5177 2.58762 17.834 2.87305C18.2 3.20362 18.4145 3.71285 18.625 4.46289C18.7779 5.00799 18.8822 5.85911 18.9512 6.69922C19.0136 7.45687 19.9251 7.83461 20.5049 7.34277C21.1486 6.79655 21.8251 6.2669 22.3193 5.98926C22.9987 5.60764 23.5102 5.39958 24.0029 5.4248C24.4891 5.4497 24.9898 5.70466 25.6377 6.33594V6.33496L25.6719 6.37012L25.6729 6.37109C25.6779 6.37607 25.6829 6.38191 25.6895 6.38867H25.6904L25.707 6.40527C26.3382 7.0531 26.5931 7.55403 26.6182 8.04004C26.6435 8.53262 26.4353 9.04425 26.0537 9.72363C25.7829 10.2057 25.2725 10.8614 24.7402 11.4912C24.2501 12.0712 24.627 12.9819 25.3838 13.0449C26.2111 13.1139 27.0437 13.2167 27.5801 13.3672C28.3302 13.5777 28.8395 13.7921 29.1699 14.1582C29.496 14.5196 29.6699 15.0543 29.6816 15.959V16.0586C29.6697 16.9621 29.4959 17.4963 29.1699 17.8574C28.8393 18.2235 28.3301 18.4379 27.5801 18.6484C27.0357 18.8012 26.1858 18.9057 25.3467 18.9746C24.5892 19.0372 24.2123 19.9486 24.7041 20.5283C25.2491 21.1708 25.7767 21.8457 26.0537 22.3389C26.4353 23.0182 26.6435 23.5299 26.6182 24.0225C26.5931 24.5085 26.3382 25.0094 25.707 25.6572L25.6904 25.6738H25.6895L25.6836 25.6807L25.6377 25.7266C24.9898 26.3578 24.4891 26.6128 24.0029 26.6377C23.5102 26.6629 22.9987 26.4549 22.3193 26.0732C21.8316 25.7993 21.1665 25.2799 20.5303 24.7412C19.9507 24.2505 19.0404 24.6272 18.9766 25.3838C18.9076 26.2022 18.805 27.0224 18.6562 27.5527C18.4457 28.3029 18.2314 28.8122 17.8652 29.1426C17.5038 29.4686 16.9691 29.6426 16.0645 29.6543H15.9668C15.0622 29.6426 14.5274 29.4688 14.166 29.1426C13.8 28.812 13.5855 28.3028 13.375 27.5527C13.2221 27.0076 13.1178 26.1565 13.0488 25.3164C12.9864 24.5588 12.0749 24.181 11.4951 24.6729C10.8514 25.2191 10.1749 25.7487 9.68066 26.0264C9.00129 26.408 8.48977 26.616 7.99707 26.5908C7.51088 26.5659 7.0102 26.311 6.3623 25.6797H6.36133L6.32812 25.6455L6.32715 25.6445L6.31055 25.627H6.30957L6.29297 25.6104C5.66175 24.9625 5.40691 24.4616 5.38184 23.9756C5.3565 23.483 5.56467 22.9714 5.94629 22.292C6.21708 21.8099 6.72751 21.1542 7.25977 20.5244C7.74993 19.9444 7.37302 19.0338 6.61621 18.9707C5.78887 18.9018 4.95628 18.7989 4.41992 18.6484C3.66976 18.4379 3.16048 18.2236 2.83008 17.8574C2.50402 17.496 2.33009 16.9613 2.31836 16.0566V15.959C2.33009 15.0543 2.50387 14.5196 2.83008 14.1582C3.16065 13.7922 3.66988 13.5777 4.41992 13.3672C4.96434 13.2145 5.8142 13.1099 6.65332 13.041C7.41081 12.9784 7.78767 12.067 7.2959 11.4873C6.75089 10.8448 6.22333 10.17 5.94629 9.67676C5.56467 8.99738 5.3565 8.48574 5.38184 7.99316C5.40691 7.50716 5.66175 7.00622 6.29297 6.3584L6.30957 6.3418H6.31055C6.31708 6.33505 6.32211 6.3292 6.32715 6.32422L6.32812 6.32324L6.36133 6.28809L6.3623 6.28906C7.0102 5.65778 7.51088 5.40283 7.99707 5.37793C8.48977 5.35271 9.00129 5.56077 9.68066 5.94238C10.1684 6.21634 10.8335 6.73569 11.4697 7.27441C12.0493 7.76515 12.9596 7.38839 13.0234 6.63184C13.0924 5.8134 13.195 4.99323 13.3438 4.46289C13.5543 3.71273 13.7686 3.20345 14.1348 2.87305C14.4962 2.54699 15.0309 2.37306 15.9355 2.36133ZM15.9961 10.4512C12.9275 10.4512 10.4395 12.9392 10.4395 16.0078C10.4395 19.0764 12.9275 21.5645 15.9961 21.5645C19.0647 21.5645 21.5527 19.0764 21.5527 16.0078C21.5527 12.9392 19.0647 10.4512 15.9961 10.4512Z" stroke="url(#paint18_radial_23692_9272)" stroke-width="0.3"/>
<path d="M15.9355 2.36133H16.0332L16.3555 2.37305C17.0687 2.41864 17.5177 2.58762 17.834 2.87305C18.2 3.20362 18.4145 3.71285 18.625 4.46289C18.7779 5.00799 18.8822 5.85911 18.9512 6.69922C19.0136 7.45687 19.9251 7.83461 20.5049 7.34277C21.1486 6.79655 21.8251 6.2669 22.3193 5.98926C22.9987 5.60764 23.5102 5.39958 24.0029 5.4248C24.4891 5.4497 24.9898 5.70466 25.6377 6.33594V6.33496L25.6719 6.37012L25.6729 6.37109C25.6779 6.37607 25.6829 6.38191 25.6895 6.38867H25.6904L25.707 6.40527C26.3382 7.0531 26.5931 7.55403 26.6182 8.04004C26.6435 8.53262 26.4353 9.04425 26.0537 9.72363C25.7829 10.2057 25.2725 10.8614 24.7402 11.4912C24.2501 12.0712 24.627 12.9819 25.3838 13.0449C26.2111 13.1139 27.0437 13.2167 27.5801 13.3672C28.3302 13.5777 28.8395 13.7921 29.1699 14.1582C29.496 14.5196 29.6699 15.0543 29.6816 15.959V16.0586C29.6697 16.9621 29.4959 17.4963 29.1699 17.8574C28.8393 18.2235 28.3301 18.4379 27.5801 18.6484C27.0357 18.8012 26.1858 18.9057 25.3467 18.9746C24.5892 19.0372 24.2123 19.9486 24.7041 20.5283C25.2491 21.1708 25.7767 21.8457 26.0537 22.3389C26.4353 23.0182 26.6435 23.5299 26.6182 24.0225C26.5931 24.5085 26.3382 25.0094 25.707 25.6572L25.6904 25.6738H25.6895L25.6836 25.6807L25.6377 25.7266C24.9898 26.3578 24.4891 26.6128 24.0029 26.6377C23.5102 26.6629 22.9987 26.4549 22.3193 26.0732C21.8316 25.7993 21.1665 25.2799 20.5303 24.7412C19.9507 24.2505 19.0404 24.6272 18.9766 25.3838C18.9076 26.2022 18.805 27.0224 18.6562 27.5527C18.4457 28.3029 18.2314 28.8122 17.8652 29.1426C17.5038 29.4686 16.9691 29.6426 16.0645 29.6543H15.9668C15.0622 29.6426 14.5274 29.4688 14.166 29.1426C13.8 28.812 13.5855 28.3028 13.375 27.5527C13.2221 27.0076 13.1178 26.1565 13.0488 25.3164C12.9864 24.5588 12.0749 24.181 11.4951 24.6729C10.8514 25.2191 10.1749 25.7487 9.68066 26.0264C9.00129 26.408 8.48977 26.616 7.99707 26.5908C7.51088 26.5659 7.0102 26.311 6.3623 25.6797H6.36133L6.32812 25.6455L6.32715 25.6445L6.31055 25.627H6.30957L6.29297 25.6104C5.66175 24.9625 5.40691 24.4616 5.38184 23.9756C5.3565 23.483 5.56467 22.9714 5.94629 22.292C6.21708 21.8099 6.72751 21.1542 7.25977 20.5244C7.74993 19.9444 7.37302 19.0338 6.61621 18.9707C5.78887 18.9018 4.95628 18.7989 4.41992 18.6484C3.66976 18.4379 3.16048 18.2236 2.83008 17.8574C2.50402 17.496 2.33009 16.9613 2.31836 16.0566V15.959C2.33009 15.0543 2.50387 14.5196 2.83008 14.1582C3.16065 13.7922 3.66988 13.5777 4.41992 13.3672C4.96434 13.2145 5.8142 13.1099 6.65332 13.041C7.41081 12.9784 7.78767 12.067 7.2959 11.4873C6.75089 10.8448 6.22333 10.17 5.94629 9.67676C5.56467 8.99738 5.3565 8.48574 5.38184 7.99316C5.40691 7.50716 5.66175 7.00622 6.29297 6.3584L6.30957 6.3418H6.31055C6.31708 6.33505 6.32211 6.3292 6.32715 6.32422L6.32812 6.32324L6.36133 6.28809L6.3623 6.28906C7.0102 5.65778 7.51088 5.40283 7.99707 5.37793C8.48977 5.35271 9.00129 5.56077 9.68066 5.94238C10.1684 6.21634 10.8335 6.73569 11.4697 7.27441C12.0493 7.76515 12.9596 7.38839 13.0234 6.63184C13.0924 5.8134 13.195 4.99323 13.3438 4.46289C13.5543 3.71273 13.7686 3.20345 14.1348 2.87305C14.4962 2.54699 15.0309 2.37306 15.9355 2.36133ZM15.9961 10.4512C12.9275 10.4512 10.4395 12.9392 10.4395 16.0078C10.4395 19.0764 12.9275 21.5645 15.9961 21.5645C19.0647 21.5645 21.5527 19.0764 21.5527 16.0078C21.5527 12.9392 19.0647 10.4512 15.9961 10.4512Z" stroke="url(#paint19_radial_23692_9272)" stroke-width="0.3"/>
<path d="M15.9355 2.36133H16.0332L16.3555 2.37305C17.0687 2.41864 17.5177 2.58762 17.834 2.87305C18.2 3.20362 18.4145 3.71285 18.625 4.46289C18.7779 5.00799 18.8822 5.85911 18.9512 6.69922C19.0136 7.45687 19.9251 7.83461 20.5049 7.34277C21.1486 6.79655 21.8251 6.2669 22.3193 5.98926C22.9987 5.60764 23.5102 5.39958 24.0029 5.4248C24.4891 5.4497 24.9898 5.70466 25.6377 6.33594V6.33496L25.6719 6.37012L25.6729 6.37109C25.6779 6.37607 25.6829 6.38191 25.6895 6.38867H25.6904L25.707 6.40527C26.3382 7.0531 26.5931 7.55403 26.6182 8.04004C26.6435 8.53262 26.4353 9.04425 26.0537 9.72363C25.7829 10.2057 25.2725 10.8614 24.7402 11.4912C24.2501 12.0712 24.627 12.9819 25.3838 13.0449C26.2111 13.1139 27.0437 13.2167 27.5801 13.3672C28.3302 13.5777 28.8395 13.7921 29.1699 14.1582C29.496 14.5196 29.6699 15.0543 29.6816 15.959V16.0586C29.6697 16.9621 29.4959 17.4963 29.1699 17.8574C28.8393 18.2235 28.3301 18.4379 27.5801 18.6484C27.0357 18.8012 26.1858 18.9057 25.3467 18.9746C24.5892 19.0372 24.2123 19.9486 24.7041 20.5283C25.2491 21.1708 25.7767 21.8457 26.0537 22.3389C26.4353 23.0182 26.6435 23.5299 26.6182 24.0225C26.5931 24.5085 26.3382 25.0094 25.707 25.6572L25.6904 25.6738H25.6895L25.6836 25.6807L25.6377 25.7266C24.9898 26.3578 24.4891 26.6128 24.0029 26.6377C23.5102 26.6629 22.9987 26.4549 22.3193 26.0732C21.8316 25.7993 21.1665 25.2799 20.5303 24.7412C19.9507 24.2505 19.0404 24.6272 18.9766 25.3838C18.9076 26.2022 18.805 27.0224 18.6562 27.5527C18.4457 28.3029 18.2314 28.8122 17.8652 29.1426C17.5038 29.4686 16.9691 29.6426 16.0645 29.6543H15.9668C15.0622 29.6426 14.5274 29.4688 14.166 29.1426C13.8 28.812 13.5855 28.3028 13.375 27.5527C13.2221 27.0076 13.1178 26.1565 13.0488 25.3164C12.9864 24.5588 12.0749 24.181 11.4951 24.6729C10.8514 25.2191 10.1749 25.7487 9.68066 26.0264C9.00129 26.408 8.48977 26.616 7.99707 26.5908C7.51088 26.5659 7.0102 26.311 6.3623 25.6797H6.36133L6.32812 25.6455L6.32715 25.6445L6.31055 25.627H6.30957L6.29297 25.6104C5.66175 24.9625 5.40691 24.4616 5.38184 23.9756C5.3565 23.483 5.56467 22.9714 5.94629 22.292C6.21708 21.8099 6.72751 21.1542 7.25977 20.5244C7.74993 19.9444 7.37302 19.0338 6.61621 18.9707C5.78887 18.9018 4.95628 18.7989 4.41992 18.6484C3.66976 18.4379 3.16048 18.2236 2.83008 17.8574C2.50402 17.496 2.33009 16.9613 2.31836 16.0566V15.959C2.33009 15.0543 2.50387 14.5196 2.83008 14.1582C3.16065 13.7922 3.66988 13.5777 4.41992 13.3672C4.96434 13.2145 5.8142 13.1099 6.65332 13.041C7.41081 12.9784 7.78767 12.067 7.2959 11.4873C6.75089 10.8448 6.22333 10.17 5.94629 9.67676C5.56467 8.99738 5.3565 8.48574 5.38184 7.99316C5.40691 7.50716 5.66175 7.00622 6.29297 6.3584L6.30957 6.3418H6.31055C6.31708 6.33505 6.32211 6.3292 6.32715 6.32422L6.32812 6.32324L6.36133 6.28809L6.3623 6.28906C7.0102 5.65778 7.51088 5.40283 7.99707 5.37793C8.48977 5.35271 9.00129 5.56077 9.68066 5.94238C10.1684 6.21634 10.8335 6.73569 11.4697 7.27441C12.0493 7.76515 12.9596 7.38839 13.0234 6.63184C13.0924 5.8134 13.195 4.99323 13.3438 4.46289C13.5543 3.71273 13.7686 3.20345 14.1348 2.87305C14.4962 2.54699 15.0309 2.37306 15.9355 2.36133ZM15.9961 10.4512C12.9275 10.4512 10.4395 12.9392 10.4395 16.0078C10.4395 19.0764 12.9275 21.5645 15.9961 21.5645C19.0647 21.5645 21.5527 19.0764 21.5527 16.0078C21.5527 12.9392 19.0647 10.4512 15.9961 10.4512Z" stroke="url(#paint20_radial_23692_9272)" stroke-width="0.3"/>
<path fill-rule="evenodd" clip-rule="evenodd" d="M16 23.9023C20.36 23.9023 23.8945 20.3678 23.8945 16.0078C23.8945 11.6478 20.36 8.11328 16 8.11328C11.64 8.11328 8.10547 11.6478 8.10547 16.0078C8.10547 20.3678 11.64 23.9023 16 23.9023ZM16 20.8594C18.6794 20.8594 20.8516 18.6873 20.8516 16.0078C20.8516 13.3284 18.6794 11.1562 16 11.1562C13.3206 11.1562 11.1484 13.3284 11.1484 16.0078C11.1484 18.6873 13.3206 20.8594 16 20.8594Z" fill="url(#paint21_radial_23692_9272)"/>
<path fill-rule="evenodd" clip-rule="evenodd" d="M16 23.9023C20.36 23.9023 23.8945 20.3678 23.8945 16.0078C23.8945 11.6478 20.36 8.11328 16 8.11328C11.64 8.11328 8.10547 11.6478 8.10547 16.0078C8.10547 20.3678 11.64 23.9023 16 23.9023ZM16 20.8594C18.6794 20.8594 20.8516 18.6873 20.8516 16.0078C20.8516 13.3284 18.6794 11.1562 16 11.1562C13.3206 11.1562 11.1484 13.3284 11.1484 16.0078C11.1484 18.6873 13.3206 20.8594 16 20.8594Z" fill="url(#paint22_radial_23692_9272)"/>
<path fill-rule="evenodd" clip-rule="evenodd" d="M16 23.9023C20.36 23.9023 23.8945 20.3678 23.8945 16.0078C23.8945 11.6478 20.36 8.11328 16 8.11328C11.64 8.11328 8.10547 11.6478 8.10547 16.0078C8.10547 20.3678 11.64 23.9023 16 23.9023ZM16 20.8594C18.6794 20.8594 20.8516 18.6873 20.8516 16.0078C20.8516 13.3284 18.6794 11.1562 16 11.1562C13.3206 11.1562 11.1484 13.3284 11.1484 16.0078C11.1484 18.6873 13.3206 20.8594 16 20.8594Z" fill="url(#paint23_radial_23692_9272)"/>
<path fill-rule="evenodd" clip-rule="evenodd" d="M16 23.9023C20.36 23.9023 23.8945 20.3678 23.8945 16.0078C23.8945 11.6478 20.36 8.11328 16 8.11328C11.64 8.11328 8.10547 11.6478 8.10547 16.0078C8.10547 20.3678 11.64 23.9023 16 23.9023ZM16 20.8594C18.6794 20.8594 20.8516 18.6873 20.8516 16.0078C20.8516 13.3284 18.6794 11.1562 16 11.1562C13.3206 11.1562 11.1484 13.3284 11.1484 16.0078C11.1484 18.6873 13.3206 20.8594 16 20.8594Z" fill="url(#paint24_radial_23692_9272)"/>
<path fill-rule="evenodd" clip-rule="evenodd" d="M16 23.9023C20.36 23.9023 23.8945 20.3678 23.8945 16.0078C23.8945 11.6478 20.36 8.11328 16 8.11328C11.64 8.11328 8.10547 11.6478 8.10547 16.0078C8.10547 20.3678 11.64 23.9023 16 23.9023ZM16 20.8594C18.6794 20.8594 20.8516 18.6873 20.8516 16.0078C20.8516 13.3284 18.6794 11.1562 16 11.1562C13.3206 11.1562 11.1484 13.3284 11.1484 16.0078C11.1484 18.6873 13.3206 20.8594 16 20.8594Z" fill="url(#paint25_radial_23692_9272)"/>
<path fill-rule="evenodd" clip-rule="evenodd" d="M16 21.4766C19.0203 21.4766 21.4688 19.0281 21.4688 16.0078C21.4688 12.9875 19.0203 10.5391 16 10.5391C12.9797 10.5391 10.5312 12.9875 10.5312 16.0078C10.5312 19.0281 12.9797 21.4766 16 21.4766ZM16 20.3359C18.3904 20.3359 20.3281 18.3982 20.3281 16.0078C20.3281 13.6175 18.3904 11.6797 16 11.6797C13.6096 11.6797 11.6719 13.6175 11.6719 16.0078C11.6719 18.3982 13.6096 20.3359 16 20.3359Z" fill="url(#paint26_radial_23692_9272)"/>
<path fill-rule="evenodd" clip-rule="evenodd" d="M16 21.4766C19.0203 21.4766 21.4688 19.0281 21.4688 16.0078C21.4688 12.9875 19.0203 10.5391 16 10.5391C12.9797 10.5391 10.5312 12.9875 10.5312 16.0078C10.5312 19.0281 12.9797 21.4766 16 21.4766ZM16 20.3359C18.3904 20.3359 20.3281 18.3982 20.3281 16.0078C20.3281 13.6175 18.3904 11.6797 16 11.6797C13.6096 11.6797 11.6719 13.6175 11.6719 16.0078C11.6719 18.3982 13.6096 20.3359 16 20.3359Z" fill="url(#paint27_radial_23692_9272)"/>
<path fill-rule="evenodd" clip-rule="evenodd" d="M16 20.9453C18.7269 20.9453 20.9375 18.7347 20.9375 16.0078C20.9375 13.2809 18.7269 11.0703 16 11.0703C13.2731 11.0703 11.0625 13.2809 11.0625 16.0078C11.0625 18.7347 13.2731 20.9453 16 20.9453ZM20.3281 16.0078C20.3281 18.3982 18.3904 20.3359 16 20.3359C13.6096 20.3359 11.6719 18.3982 11.6719 16.0078C11.6719 13.6175 13.6096 11.6797 16 11.6797C18.3904 11.6797 20.3281 13.6175 20.3281 16.0078Z" fill="url(#paint28_radial_23692_9272)"/>
<path fill-rule="evenodd" clip-rule="evenodd" d="M16 20.9453C18.7269 20.9453 20.9375 18.7347 20.9375 16.0078C20.9375 13.2809 18.7269 11.0703 16 11.0703C13.2731 11.0703 11.0625 13.2809 11.0625 16.0078C11.0625 18.7347 13.2731 20.9453 16 20.9453ZM20.3281 16.0078C20.3281 18.3982 18.3904 20.3359 16 20.3359C13.6096 20.3359 11.6719 18.3982 11.6719 16.0078C11.6719 13.6175 13.6096 11.6797 16 11.6797C18.3904 11.6797 20.3281 13.6175 20.3281 16.0078Z" fill="url(#paint29_radial_23692_9272)"/>
<path fill-rule="evenodd" clip-rule="evenodd" d="M16 20.9453C18.7269 20.9453 20.9375 18.7347 20.9375 16.0078C20.9375 13.2809 18.7269 11.0703 16 11.0703C13.2731 11.0703 11.0625 13.2809 11.0625 16.0078C11.0625 18.7347 13.2731 20.9453 16 20.9453ZM20.3281 16.0078C20.3281 18.3982 18.3904 20.3359 16 20.3359C13.6096 20.3359 11.6719 18.3982 11.6719 16.0078C11.6719 13.6175 13.6096 11.6797 16 11.6797C18.3904 11.6797 20.3281 13.6175 20.3281 16.0078Z" fill="url(#paint30_radial_23692_9272)"/>
<defs>
<linearGradient id="paint0_linear_23692_9272" x1="25.8125" y1="6.0625" x2="6.125" y2="25.6875" gradientUnits="userSpaceOnUse">
<stop stop-color="#DED6EC"/>
<stop offset="0.916008" stop-color="#BCADD3"/>
</linearGradient>
<radialGradient id="paint1_radial_23692_9272" cx="0" cy="0" r="1" gradientTransform="matrix(-8.85724 0.545915 -0.630609 -10.1964 16.9913 15.4619)" gradientUnits="userSpaceOnUse">
<stop offset="0.7" stop-color="#D0CCD9"/>
<stop offset="0.870062" stop-color="#D0CCD9" stop-opacity="0"/>
</radialGradient>
<radialGradient id="paint2_radial_23692_9272" cx="0" cy="0" r="1" gradientUnits="userSpaceOnUse" gradientTransform="translate(15.8018 16.2536) rotate(96.9184) scale(8.59495)">
<stop offset="0.876332" stop-color="#9B8BAE"/>
<stop offset="0.952383" stop-color="#9B8BAE" stop-opacity="0"/>
</radialGradient>
<radialGradient id="paint3_radial_23692_9272" cx="0" cy="0" r="1" gradientUnits="userSpaceOnUse" gradientTransform="translate(9.66622 5.19927) rotate(38.976) scale(3.30978 1.88806)">
<stop stop-color="#F0F0F5"/>
<stop offset="1" stop-color="#F0F0F5" stop-opacity="0"/>
</radialGradient>
<radialGradient id="paint4_radial_23692_9272" cx="0" cy="0" r="1" gradientUnits="userSpaceOnUse" gradientTransform="translate(19.1721 3.89474) rotate(82.355) scale(4.07535 1.34599)">
<stop stop-color="#F0F0F5"/>
<stop offset="1" stop-color="#F0F0F5" stop-opacity="0"/>
</radialGradient>
<radialGradient id="paint5_radial_23692_9272" cx="0" cy="0" r="1" gradientUnits="userSpaceOnUse" gradientTransform="translate(24.7898 12.3253) rotate(67.543) scale(1.53417 0.408352)">
<stop stop-color="#F0F0F5"/>
<stop offset="0.895851" stop-color="#F0F0F5" stop-opacity="0"/>
</radialGradient>
<radialGradient id="paint6_radial_23692_9272" cx="0" cy="0" r="1" gradientUnits="userSpaceOnUse" gradientTransform="translate(25.8467 6.15434) rotate(44.7582) scale(2.89869 0.701593)">
<stop stop-color="#F0F0F5"/>
<stop offset="0.895851" stop-color="#F0F0F5" stop-opacity="0"/>
</radialGradient>
<radialGradient id="paint7_radial_23692_9272" cx="0" cy="0" r="1" gradientUnits="userSpaceOnUse" gradientTransform="translate(26.8239 7.68852) rotate(71.7005) scale(1.85576 0.568459)">
<stop stop-color="#F0F0F5"/>
<stop offset="0.895851" stop-color="#F0F0F5" stop-opacity="0"/>
</radialGradient>
<radialGradient id="paint8_radial_23692_9272" cx="0" cy="0" r="1" gradientUnits="userSpaceOnUse" gradientTransform="translate(26.2684 21.9603) rotate(53.8646) scale(3.22309 0.987303)">
<stop stop-color="#F0F0F5"/>
<stop offset="0.895851" stop-color="#F0F0F5" stop-opacity="0"/>
</radialGradient>
<radialGradient id="paint9_radial_23692_9272" cx="0" cy="0" r="1" gradientUnits="userSpaceOnUse" gradientTransform="translate(26.9295 23.5304) rotate(81.085) scale(2.133 0.749937)">
<stop stop-color="#F0F0F5"/>
<stop offset="0.895851" stop-color="#F0F0F5" stop-opacity="0"/>
</radialGradient>
<radialGradient id="paint10_radial_23692_9272" cx="0" cy="0" r="1" gradientUnits="userSpaceOnUse" gradientTransform="translate(28.1435 12.8945) rotate(14.9314) scale(3.61017 1.26929)">
<stop stop-color="#F0F0F5"/>
<stop offset="0.895851" stop-color="#F0F0F5" stop-opacity="0"/>
</radialGradient>
<radialGradient id="paint11_radial_23692_9272" cx="0" cy="0" r="1" gradientUnits="userSpaceOnUse" gradientTransform="translate(29.832 13.97) rotate(64.4074) scale(3.96444 1.39385)">
<stop stop-color="#F0F0F5"/>
<stop offset="0.895851" stop-color="#F0F0F5" stop-opacity="0"/>
</radialGradient>
<radialGradient id="paint12_radial_23692_9272" cx="0" cy="0" r="1" gradientUnits="userSpaceOnUse" gradientTransform="translate(7.08007 9.13607) rotate(49.4546) scale(9.04306 2.99875)">
<stop stop-color="#A196B2"/>
<stop offset="1" stop-color="#A196B2" stop-opacity="0"/>
</radialGradient>
<radialGradient id="paint13_radial_23692_9272" cx="0" cy="0" r="1" gradientUnits="userSpaceOnUse" gradientTransform="translate(4.20744 17.0306) rotate(6.05418) scale(8.5899 4.3792)">
<stop stop-color="#A196B2"/>
<stop offset="1" stop-color="#A196B2" stop-opacity="0"/>
</radialGradient>
<radialGradient id="paint14_radial_23692_9272" cx="0" cy="0" r="1" gradientUnits="userSpaceOnUse" gradientTransform="translate(7.96793 22.5854) rotate(-20.0467) scale(7.93976 2.31131)">
<stop stop-color="#A196B2"/>
<stop offset="1" stop-color="#A196B2" stop-opacity="0"/>
</radialGradient>
<radialGradient id="paint15_radial_23692_9272" cx="0" cy="0" r="1" gradientUnits="userSpaceOnUse" gradientTransform="translate(9.47845 24.6987) rotate(-39.1054) scale(7.66534 2.23142)">
<stop stop-color="#A389C1"/>
<stop offset="1" stop-color="#A389C1" stop-opacity="0"/>
</radialGradient>
<radialGradient id="paint16_radial_23692_9272" cx="0" cy="0" r="1" gradientUnits="userSpaceOnUse" gradientTransform="translate(15.296 26.0391) rotate(-88.7877) scale(6.17671 2.97997)">
<stop stop-color="#A389C1"/>
<stop offset="1" stop-color="#A389C1" stop-opacity="0"/>
</radialGradient>
<radialGradient id="paint17_radial_23692_9272" cx="0" cy="0" r="1" gradientUnits="userSpaceOnUse" gradientTransform="translate(22.7222 24.9803) rotate(-127.786) scale(5.89273 2.84296)">
<stop stop-color="#A389C1"/>
<stop offset="1" stop-color="#A389C1" stop-opacity="0"/>
</radialGradient>
<radialGradient id="paint18_radial_23692_9272" cx="0" cy="0" r="1" gradientUnits="userSpaceOnUse" gradientTransform="translate(25.9141 17.3406) rotate(-173.863) scale(4.89443 2.36133)">
<stop stop-color="#A389C1"/>
<stop offset="1" stop-color="#A389C1" stop-opacity="0"/>
</radialGradient>
<radialGradient id="paint19_radial_23692_9272" cx="0" cy="0" r="1" gradientUnits="userSpaceOnUse" gradientTransform="translate(14.9048 5.4233) rotate(89.3758) scale(4.28155 3.06738)">
<stop stop-color="#9E9BA3"/>
<stop offset="1" stop-color="#9E9BA3" stop-opacity="0"/>
</radialGradient>
<radialGradient id="paint20_radial_23692_9272" cx="0" cy="0" r="1" gradientUnits="userSpaceOnUse" gradientTransform="translate(22.3683 7.91112) rotate(130.292) scale(3.26162 2.33668)">
<stop stop-color="#9E9BA3"/>
<stop offset="1" stop-color="#9E9BA3" stop-opacity="0"/>
</radialGradient>
<radialGradient id="paint21_radial_23692_9272" cx="0" cy="0" r="1" gradientUnits="userSpaceOnUse" gradientTransform="translate(20.9687 11.1562) rotate(133.81) scale(14.8967 19.4343)">
<stop offset="0.032715" stop-color="#E5DFF0"/>
<stop offset="1" stop-color="#9A8BAD"/>
</radialGradient>
<radialGradient id="paint22_radial_23692_9272" cx="0" cy="0" r="1" gradientUnits="userSpaceOnUse" gradientTransform="translate(10.319 15.4717) rotate(52.3524) scale(7.55628)">
<stop stop-color="#A097AC"/>
<stop offset="1" stop-color="#A097AC" stop-opacity="0"/>
</radialGradient>
<radialGradient id="paint23_radial_23692_9272" cx="0" cy="0" r="1" gradientUnits="userSpaceOnUse" gradientTransform="translate(16.9044 15.0735) rotate(134.864) scale(10.5035)">
<stop offset="0.770833" stop-color="#A091B3" stop-opacity="0"/>
<stop offset="0.833333" stop-color="#9885AE"/>
</radialGradient>
<radialGradient id="paint24_radial_23692_9272" cx="0" cy="0" r="1" gradientUnits="userSpaceOnUse" gradientTransform="translate(16 16.0078) rotate(90) scale(6.95154)">
<stop offset="0.673149" stop-color="#AEA9B7"/>
<stop offset="0.816075" stop-color="#9888AC" stop-opacity="0"/>
</radialGradient>
<radialGradient id="paint25_radial_23692_9272" cx="0" cy="0" r="1" gradientUnits="userSpaceOnUse" gradientTransform="translate(15.7125 16.8897) rotate(87.2876) scale(6.07642)">
<stop offset="0.676529" stop-color="#9988AE"/>
<stop offset="0.842892" stop-color="#9988AE" stop-opacity="0"/>
</radialGradient>
<radialGradient id="paint26_radial_23692_9272" cx="0" cy="0" r="1" gradientUnits="userSpaceOnUse" gradientTransform="translate(20.4375 12.7813) rotate(128.71) scale(11.1432)">
<stop stop-color="#E6E0F1"/>
<stop offset="1" stop-color="#A89ABA"/>
</radialGradient>
<radialGradient id="paint27_radial_23692_9272" cx="0" cy="0" r="1" gradientUnits="userSpaceOnUse" gradientTransform="translate(11.1875 12.9687) rotate(32.5741) scale(5.34 10.7649)">
<stop stop-color="#90899A"/>
<stop offset="1" stop-color="#90899A" stop-opacity="0"/>
</radialGradient>
<radialGradient id="paint28_radial_23692_9272" cx="0" cy="0" r="1" gradientUnits="userSpaceOnUse" gradientTransform="translate(19.5937 12.9375) rotate(136.338) scale(9.46013 9.40439)">
<stop offset="0.246219" stop-color="#C9BFD7"/>
<stop offset="1" stop-color="#ADA4BB"/>
</radialGradient>
<radialGradient id="paint29_radial_23692_9272" cx="0" cy="0" r="1" gradientUnits="userSpaceOnUse" gradientTransform="translate(12.0625 19.6875) rotate(-45.5162) scale(4.90575 7.79856)">
<stop offset="0.342773" stop-color="#BCB6C4"/>
<stop offset="1" stop-color="#BCB6C4" stop-opacity="0"/>
</radialGradient>
<radialGradient id="paint30_radial_23692_9272" cx="0" cy="0" r="1" gradientUnits="userSpaceOnUse" gradientTransform="translate(12.7812 11.6563) rotate(49.2589) scale(4.16575 7.39539)">
<stop offset="0.193614" stop-color="#A294B3"/>
<stop offset="1" stop-color="#A294B3" stop-opacity="0"/>
</radialGradient>
</defs>
</svg>
