<svg width="32" height="32" viewBox="0 0 32 32" fill="none" xmlns="http://www.w3.org/2000/svg">
<path d="M15.0017 29.4181C15.5846 29.7507 16.2922 29.7318 16.873 29.3952C20.2765 27.4227 26.0412 23.0085 28.3225 17.2959C31.7134 9.7639 23.7516 3.75134 18.249 8.07578C17.7023 8.50544 17.0216 8.99422 16.5289 9.4623C16.264 9.71404 15.8012 9.73974 15.5284 9.49647C14.8744 8.91314 13.9052 8.191 13.2743 7.76417C8.58321 4.59034 0.0476172 8.77399 3.6886 17.7029C5.00744 21.6659 11.2365 27.2696 15.0017 29.4181Z" fill="url(#paint0_radial_23061_10704)"/>
<path d="M15.0017 29.4181C15.5846 29.7507 16.2922 29.7318 16.873 29.3952C20.2765 27.4227 26.0412 23.0085 28.3225 17.2959C31.7134 9.7639 23.7516 3.75134 18.249 8.07578C17.7023 8.50544 17.0216 8.99422 16.5289 9.4623C16.264 9.71404 15.8012 9.73974 15.5284 9.49647C14.8744 8.91314 13.9052 8.191 13.2743 7.76417C8.58321 4.59034 0.0476172 8.77399 3.6886 17.7029C5.00744 21.6659 11.2365 27.2696 15.0017 29.4181Z" fill="url(#paint1_radial_23061_10704)"/>
<path d="M15.0017 29.4181C15.5846 29.7507 16.2922 29.7318 16.873 29.3952C20.2765 27.4227 26.0412 23.0085 28.3225 17.2959C31.7134 9.7639 23.7516 3.75134 18.249 8.07578C17.7023 8.50544 17.0216 8.99422 16.5289 9.4623C16.264 9.71404 15.8012 9.73974 15.5284 9.49647C14.8744 8.91314 13.9052 8.191 13.2743 7.76417C8.58321 4.59034 0.0476172 8.77399 3.6886 17.7029C5.00744 21.6659 11.2365 27.2696 15.0017 29.4181Z" fill="url(#paint2_radial_23061_10704)"/>
<path d="M15.0017 29.4181C15.5846 29.7507 16.2922 29.7318 16.873 29.3952C20.2765 27.4227 26.0412 23.0085 28.3225 17.2959C31.7134 9.7639 23.7516 3.75134 18.249 8.07578C17.7023 8.50544 17.0216 8.99422 16.5289 9.4623C16.264 9.71404 15.8012 9.73974 15.5284 9.49647C14.8744 8.91314 13.9052 8.191 13.2743 7.76417C8.58321 4.59034 0.0476172 8.77399 3.6886 17.7029C5.00744 21.6659 11.2365 27.2696 15.0017 29.4181Z" fill="url(#paint3_radial_23061_10704)"/>
<path d="M15.0017 29.4181C15.5846 29.7507 16.2922 29.7318 16.873 29.3952C20.2765 27.4227 26.0412 23.0085 28.3225 17.2959C31.7134 9.7639 23.7516 3.75134 18.249 8.07578C17.7023 8.50544 17.0216 8.99422 16.5289 9.4623C16.264 9.71404 15.8012 9.73974 15.5284 9.49647C14.8744 8.91314 13.9052 8.191 13.2743 7.76417C8.58321 4.59034 0.0476172 8.77399 3.6886 17.7029C5.00744 21.6659 11.2365 27.2696 15.0017 29.4181Z" fill="url(#paint4_radial_23061_10704)"/>
<path d="M15.0017 29.4181C15.5846 29.7507 16.2922 29.7318 16.873 29.3952C20.2765 27.4227 26.0412 23.0085 28.3225 17.2959C31.7134 9.7639 23.7516 3.75134 18.249 8.07578C17.7023 8.50544 17.0216 8.99422 16.5289 9.4623C16.264 9.71404 15.8012 9.73974 15.5284 9.49647C14.8744 8.91314 13.9052 8.191 13.2743 7.76417C8.58321 4.59034 0.0476172 8.77399 3.6886 17.7029C5.00744 21.6659 11.2365 27.2696 15.0017 29.4181Z" fill="url(#paint5_linear_23061_10704)"/>
<path d="M15.0017 29.4181C15.5846 29.7507 16.2922 29.7318 16.873 29.3952C20.2765 27.4227 26.0412 23.0085 28.3225 17.2959C31.7134 9.7639 23.7516 3.75134 18.249 8.07578C17.7023 8.50544 17.0216 8.99422 16.5289 9.4623C16.264 9.71404 15.8012 9.73974 15.5284 9.49647C14.8744 8.91314 13.9052 8.191 13.2743 7.76417C8.58321 4.59034 0.0476172 8.77399 3.6886 17.7029C5.00744 21.6659 11.2365 27.2696 15.0017 29.4181Z" fill="url(#paint6_linear_23061_10704)"/>
<path d="M15.0017 29.4181C15.5846 29.7507 16.2922 29.7318 16.873 29.3952C20.2765 27.4227 26.0412 23.0085 28.3225 17.2959C31.7134 9.7639 23.7516 3.75134 18.249 8.07578C17.7023 8.50544 17.0216 8.99422 16.5289 9.4623C16.264 9.71404 15.8012 9.73974 15.5284 9.49647C14.8744 8.91314 13.9052 8.191 13.2743 7.76417C8.58321 4.59034 0.0476172 8.77399 3.6886 17.7029C5.00744 21.6659 11.2365 27.2696 15.0017 29.4181Z" fill="url(#paint7_radial_23061_10704)"/>
<path d="M15.0017 29.4181C15.5846 29.7507 16.2922 29.7318 16.873 29.3952C20.2765 27.4227 26.0412 23.0085 28.3225 17.2959C31.7134 9.7639 23.7516 3.75134 18.249 8.07578C17.7023 8.50544 17.0216 8.99422 16.5289 9.4623C16.264 9.71404 15.8012 9.73974 15.5284 9.49647C14.8744 8.91314 13.9052 8.191 13.2743 7.76417C8.58321 4.59034 0.0476172 8.77399 3.6886 17.7029C5.00744 21.6659 11.2365 27.2696 15.0017 29.4181Z" fill="url(#paint8_radial_23061_10704)"/>
<path d="M15.0017 29.4181C15.5846 29.7507 16.2922 29.7318 16.873 29.3952C20.2765 27.4227 26.0412 23.0085 28.3225 17.2959C31.7134 9.7639 23.7516 3.75134 18.249 8.07578C17.7023 8.50544 17.0216 8.99422 16.5289 9.4623C16.264 9.71404 15.8012 9.73974 15.5284 9.49647C14.8744 8.91314 13.9052 8.191 13.2743 7.76417C8.58321 4.59034 0.0476172 8.77399 3.6886 17.7029C5.00744 21.6659 11.2365 27.2696 15.0017 29.4181Z" fill="url(#paint9_radial_23061_10704)"/>
<path d="M15.0017 29.4181C15.5846 29.7507 16.2922 29.7318 16.873 29.3952C20.2765 27.4227 26.0412 23.0085 28.3225 17.2959C31.7134 9.7639 23.7516 3.75134 18.249 8.07578C17.7023 8.50544 17.0216 8.99422 16.5289 9.4623C16.264 9.71404 15.8012 9.73974 15.5284 9.49647C14.8744 8.91314 13.9052 8.191 13.2743 7.76417C8.58321 4.59034 0.0476172 8.77399 3.6886 17.7029C5.00744 21.6659 11.2365 27.2696 15.0017 29.4181Z" fill="url(#paint10_radial_23061_10704)"/>
<path d="M15.0017 29.4181C15.5846 29.7507 16.2922 29.7318 16.873 29.3952C20.2765 27.4227 26.0412 23.0085 28.3225 17.2959C31.7134 9.7639 23.7516 3.75134 18.249 8.07578C17.7023 8.50544 17.0216 8.99422 16.5289 9.4623C16.264 9.71404 15.8012 9.73974 15.5284 9.49647C14.8744 8.91314 13.9052 8.191 13.2743 7.76417C8.58321 4.59034 0.0476172 8.77399 3.6886 17.7029C5.00744 21.6659 11.2365 27.2696 15.0017 29.4181Z" fill="url(#paint11_radial_23061_10704)"/>
<path d="M15.0017 29.4181C15.5846 29.7507 16.2922 29.7318 16.873 29.3952C20.2765 27.4227 26.0412 23.0085 28.3225 17.2959C31.7134 9.7639 23.7516 3.75134 18.249 8.07578C17.7023 8.50544 17.0216 8.99422 16.5289 9.4623C16.264 9.71404 15.8012 9.73974 15.5284 9.49647C14.8744 8.91314 13.9052 8.191 13.2743 7.76417C8.58321 4.59034 0.0476172 8.77399 3.6886 17.7029C5.00744 21.6659 11.2365 27.2696 15.0017 29.4181Z" fill="url(#paint12_radial_23061_10704)"/>
<path d="M15.0017 29.4181C15.5846 29.7507 16.2922 29.7318 16.873 29.3952C20.2765 27.4227 26.0412 23.0085 28.3225 17.2959C31.7134 9.7639 23.7516 3.75134 18.249 8.07578C17.7023 8.50544 17.0216 8.99422 16.5289 9.4623C16.264 9.71404 15.8012 9.73974 15.5284 9.49647C14.8744 8.91314 13.9052 8.191 13.2743 7.76417C8.58321 4.59034 0.0476172 8.77399 3.6886 17.7029C5.00744 21.6659 11.2365 27.2696 15.0017 29.4181Z" fill="url(#paint13_radial_23061_10704)"/>
<path d="M15.0017 29.4181C15.5846 29.7507 16.2922 29.7318 16.873 29.3952C20.2765 27.4227 26.0412 23.0085 28.3225 17.2959C31.7134 9.7639 23.7516 3.75134 18.249 8.07578C17.7023 8.50544 17.0216 8.99422 16.5289 9.4623C16.264 9.71404 15.8012 9.73974 15.5284 9.49647C14.8744 8.91314 13.9052 8.191 13.2743 7.76417C8.58321 4.59034 0.0476172 8.77399 3.6886 17.7029C5.00744 21.6659 11.2365 27.2696 15.0017 29.4181Z" fill="url(#paint14_radial_23061_10704)"/>
<path d="M4.73672 19.8203H27.0522C27.5428 19.0118 27.9729 18.1689 28.3216 17.2957C28.6887 16.4803 28.9228 15.6827 29.0413 14.9141H2.9043C3.03059 15.783 3.28448 16.7137 3.68774 17.7027C3.90986 18.3701 4.27127 19.0841 4.73672 19.8203Z" fill="#FFE042"/>
<path d="M4.73672 19.8203H27.0522C27.5428 19.0118 27.9729 18.1689 28.3216 17.2957C28.6887 16.4803 28.9228 15.6827 29.0413 14.9141H2.9043C3.03059 15.783 3.28448 16.7137 3.68774 17.7027C3.90986 18.3701 4.27127 19.0841 4.73672 19.8203Z" fill="url(#paint15_radial_23061_10704)"/>
<path d="M4.73672 19.8203H27.0522C27.5428 19.0118 27.9729 18.1689 28.3216 17.2957C28.6887 16.4803 28.9228 15.6827 29.0413 14.9141H2.9043C3.03059 15.783 3.28448 16.7137 3.68774 17.7027C3.90986 18.3701 4.27127 19.0841 4.73672 19.8203Z" fill="url(#paint16_linear_23061_10704)"/>
<path d="M5.97463 18.2695L9.48356 19.5467L7.16658 25.9125C7.05772 26.2116 6.6385 26.2219 6.51508 25.9285L6.05954 24.8457C5.92546 24.5269 5.55045 24.3872 5.24051 24.5405L4.135 25.0872C3.85201 25.2272 3.54298 24.9504 3.65095 24.6538L5.97463 18.2695Z" fill="url(#paint17_linear_23061_10704)"/>
<path d="M5.97463 18.2695L9.48356 19.5467L7.16658 25.9125C7.05772 26.2116 6.6385 26.2219 6.51508 25.9285L6.05954 24.8457C5.92546 24.5269 5.55045 24.3872 5.24051 24.5405L4.135 25.0872C3.85201 25.2272 3.54298 24.9504 3.65095 24.6538L5.97463 18.2695Z" fill="url(#paint18_linear_23061_10704)"/>
<path d="M5.97463 18.2695L9.48356 19.5467L7.16658 25.9125C7.05772 26.2116 6.6385 26.2219 6.51508 25.9285L6.05954 24.8457C5.92546 24.5269 5.55045 24.3872 5.24051 24.5405L4.135 25.0872C3.85201 25.2272 3.54298 24.9504 3.65095 24.6538L5.97463 18.2695Z" fill="url(#paint19_radial_23061_10704)"/>
<path d="M5.97463 18.2695L9.48356 19.5467L7.16658 25.9125C7.05772 26.2116 6.6385 26.2219 6.51508 25.9285L6.05954 24.8457C5.92546 24.5269 5.55045 24.3872 5.24051 24.5405L4.135 25.0872C3.85201 25.2272 3.54298 24.9504 3.65095 24.6538L5.97463 18.2695Z" fill="url(#paint20_linear_23061_10704)"/>
<path d="M12.6203 18.2695L9.11133 19.5467L11.4283 25.9125C11.5372 26.2116 11.9564 26.2219 12.0798 25.9285L12.5354 24.8457C12.6694 24.5269 13.0444 24.3872 13.3544 24.5405L14.4599 25.0872C14.7429 25.2272 15.0519 24.9504 14.9439 24.6538L12.6203 18.2695Z" fill="url(#paint21_linear_23061_10704)"/>
<path d="M12.6203 18.2695L9.11133 19.5467L11.4283 25.9125C11.5372 26.2116 11.9564 26.2219 12.0798 25.9285L12.5354 24.8457C12.6694 24.5269 13.0444 24.3872 13.3544 24.5405L14.4599 25.0872C14.7429 25.2272 15.0519 24.9504 14.9439 24.6538L12.6203 18.2695Z" fill="url(#paint22_linear_23061_10704)"/>
<path d="M12.6203 18.2695L9.11133 19.5467L11.4283 25.9125C11.5372 26.2116 11.9564 26.2219 12.0798 25.9285L12.5354 24.8457C12.6694 24.5269 13.0444 24.3872 13.3544 24.5405L14.4599 25.0872C14.7429 25.2272 15.0519 24.9504 14.9439 24.6538L12.6203 18.2695Z" fill="url(#paint23_linear_23061_10704)"/>
<path d="M1.80469 15.2079C1.80778 13.8587 3.41337 12.8764 5.07427 13.4618L7.08159 14.3561C7.29107 14.4494 7.51406 14.5088 7.7422 14.5321V19.5555L1.80469 19.2274V15.2079Z" fill="url(#paint24_linear_23061_10704)"/>
<path d="M1.80469 15.2079C1.80778 13.8587 3.41337 12.8764 5.07427 13.4618L7.08159 14.3561C7.29107 14.4494 7.51406 14.5088 7.7422 14.5321V19.5555L1.80469 19.2274V15.2079Z" fill="url(#paint25_linear_23061_10704)"/>
<path d="M1.80469 15.2079C1.80778 13.8587 3.41337 12.8764 5.07427 13.4618L7.08159 14.3561C7.29107 14.4494 7.51406 14.5088 7.7422 14.5321V19.5555L1.80469 19.2274V15.2079Z" fill="url(#paint26_radial_23061_10704)"/>
<path fill-rule="evenodd" clip-rule="evenodd" d="M1.80469 19.2364V19.2354L1.80469 19.2334C1.80469 18.3907 2.40168 17.8177 3.07344 17.5491C3.74357 17.2811 4.5832 17.2677 5.26265 17.6034L5.26376 17.604L7.87393 18.8764C8.01143 18.9434 8.09866 19.083 8.09866 19.2359C8.09866 19.3889 8.01143 19.5285 7.87393 19.5955L5.26376 20.8679L5.26268 20.8684C4.58322 21.2042 3.74357 21.1907 3.07344 20.9228C2.40168 20.6542 1.80469 20.0817 1.80469 19.2389L1.80469 19.2364Z" fill="url(#paint27_linear_23061_10704)"/>
<path fill-rule="evenodd" clip-rule="evenodd" d="M1.80469 19.2364V19.2354L1.80469 19.2334C1.80469 18.3907 2.40168 17.8177 3.07344 17.5491C3.74357 17.2811 4.5832 17.2677 5.26265 17.6034L5.26376 17.604L7.87393 18.8764C8.01143 18.9434 8.09866 19.083 8.09866 19.2359C8.09866 19.3889 8.01143 19.5285 7.87393 19.5955L5.26376 20.8679L5.26268 20.8684C4.58322 21.2042 3.74357 21.1907 3.07344 20.9228C2.40168 20.6542 1.80469 20.0817 1.80469 19.2389L1.80469 19.2364Z" fill="url(#paint28_radial_23061_10704)"/>
<path fill-rule="evenodd" clip-rule="evenodd" d="M1.80469 19.2364V19.2354L1.80469 19.2334C1.80469 18.3907 2.40168 17.8177 3.07344 17.5491C3.74357 17.2811 4.5832 17.2677 5.26265 17.6034L5.26376 17.604L7.87393 18.8764C8.01143 18.9434 8.09866 19.083 8.09866 19.2359C8.09866 19.3889 8.01143 19.5285 7.87393 19.5955L5.26376 20.8679L5.26268 20.8684C4.58322 21.2042 3.74357 21.1907 3.07344 20.9228C2.40168 20.6542 1.80469 20.0817 1.80469 19.2389L1.80469 19.2364Z" fill="url(#paint29_linear_23061_10704)"/>
<path fill-rule="evenodd" clip-rule="evenodd" d="M1.80469 19.2364V19.2354L1.80469 19.2334C1.80469 18.3907 2.40168 17.8177 3.07344 17.5491C3.74357 17.2811 4.5832 17.2677 5.26265 17.6034L5.26376 17.604L7.87393 18.8764C8.01143 18.9434 8.09866 19.083 8.09866 19.2359C8.09866 19.3889 8.01143 19.5285 7.87393 19.5955L5.26376 20.8679L5.26268 20.8684C4.58322 21.2042 3.74357 21.1907 3.07344 20.9228C2.40168 20.6542 1.80469 20.0817 1.80469 19.2389L1.80469 19.2364Z" fill="url(#paint30_radial_23061_10704)"/>
<path fill-rule="evenodd" clip-rule="evenodd" d="M1.80469 19.2364V19.2354L1.80469 19.2334C1.80469 18.3907 2.40168 17.8177 3.07344 17.5491C3.74357 17.2811 4.5832 17.2677 5.26265 17.6034L5.26376 17.604L7.87393 18.8764C8.01143 18.9434 8.09866 19.083 8.09866 19.2359C8.09866 19.3889 8.01143 19.5285 7.87393 19.5955L5.26376 20.8679L5.26268 20.8684C4.58322 21.2042 3.74357 21.1907 3.07344 20.9228C2.40168 20.6542 1.80469 20.0817 1.80469 19.2389L1.80469 19.2364Z" fill="url(#paint31_radial_23061_10704)"/>
<path fill-rule="evenodd" clip-rule="evenodd" d="M1.80469 19.2364V19.2354L1.80469 19.2334C1.80469 18.3907 2.40168 17.8177 3.07344 17.5491C3.74357 17.2811 4.5832 17.2677 5.26265 17.6034L5.26376 17.604L7.87393 18.8764C8.01143 18.9434 8.09866 19.083 8.09866 19.2359C8.09866 19.3889 8.01143 19.5285 7.87393 19.5955L5.26376 20.8679L5.26268 20.8684C4.58322 21.2042 3.74357 21.1907 3.07344 20.9228C2.40168 20.6542 1.80469 20.0817 1.80469 19.2389L1.80469 19.2364Z" fill="url(#paint32_radial_23061_10704)"/>
<path fill-rule="evenodd" clip-rule="evenodd" d="M1.80469 19.2364V19.2354L1.80469 19.2334C1.80469 18.3907 2.40168 17.8177 3.07344 17.5491C3.74357 17.2811 4.5832 17.2677 5.26265 17.6034L5.26376 17.604L7.87393 18.8764C8.01143 18.9434 8.09866 19.083 8.09866 19.2359C8.09866 19.3889 8.01143 19.5285 7.87393 19.5955L5.26376 20.8679L5.26268 20.8684C4.58322 21.2042 3.74357 21.1907 3.07344 20.9228C2.40168 20.6542 1.80469 20.0817 1.80469 19.2389L1.80469 19.2364Z" fill="url(#paint33_radial_23061_10704)"/>
<path fill-rule="evenodd" clip-rule="evenodd" d="M1.80469 19.2364V19.2354L1.80469 19.2334C1.80469 18.3907 2.40168 17.8177 3.07344 17.5491C3.74357 17.2811 4.5832 17.2677 5.26265 17.6034L5.26376 17.604L7.87393 18.8764C8.01143 18.9434 8.09866 19.083 8.09866 19.2359C8.09866 19.3889 8.01143 19.5285 7.87393 19.5955L5.26376 20.8679L5.26268 20.8684C4.58322 21.2042 3.74357 21.1907 3.07344 20.9228C2.40168 20.6542 1.80469 20.0817 1.80469 19.2389L1.80469 19.2364Z" fill="url(#paint34_radial_23061_10704)"/>
<path d="M2.2041 19.2328C2.2041 17.9859 3.95625 17.4035 5.08577 17.9624L7.69807 19.2358L5.08577 20.5093C3.95625 21.0682 2.2041 20.4858 2.2041 19.2389L2.20411 19.2358L2.2041 19.2328Z" fill="url(#paint35_radial_23061_10704)"/>
<path d="M2.2041 19.2328C2.2041 17.9859 3.95625 17.4035 5.08577 17.9624L7.69807 19.2358L5.08577 20.5093C3.95625 21.0682 2.2041 20.4858 2.2041 19.2389L2.20411 19.2358L2.2041 19.2328Z" fill="url(#paint36_radial_23061_10704)"/>
<path d="M16.9639 15.2079C16.9608 13.8587 15.3552 12.8764 13.6943 13.4618L11.687 14.3561C11.4775 14.4494 11.2545 14.5088 11.0264 14.5321V19.5555L16.9639 19.2274V15.2079Z" fill="url(#paint37_linear_23061_10704)"/>
<path d="M16.9639 15.2079C16.9608 13.8587 15.3552 12.8764 13.6943 13.4618L11.687 14.3561C11.4775 14.4494 11.2545 14.5088 11.0264 14.5321V19.5555L16.9639 19.2274V15.2079Z" fill="url(#paint38_linear_23061_10704)"/>
<path d="M16.9639 15.2079C16.9608 13.8587 15.3552 12.8764 13.6943 13.4618L11.687 14.3561C11.4775 14.4494 11.2545 14.5088 11.0264 14.5321V19.5555L16.9639 19.2274V15.2079Z" fill="url(#paint39_radial_23061_10704)"/>
<path d="M16.9639 15.2079C16.9608 13.8587 15.3552 12.8764 13.6943 13.4618L11.687 14.3561C11.4775 14.4494 11.2545 14.5088 11.0264 14.5321V19.5555L16.9639 19.2274V15.2079Z" fill="url(#paint40_linear_23061_10704)"/>
<path fill-rule="evenodd" clip-rule="evenodd" d="M16.9639 19.2364V19.2354L16.9639 19.2334C16.9639 18.3907 16.3669 17.8177 15.6951 17.5491C15.025 17.2811 14.1854 17.2677 13.5059 17.6034L13.5048 17.604L10.8946 18.8764C10.7571 18.9434 10.6699 19.083 10.6699 19.2359C10.6699 19.3889 10.7571 19.5285 10.8946 19.5955L13.5048 20.8679L13.5059 20.8684C14.1853 21.2042 15.025 21.1907 15.6951 20.9228C16.3669 20.6542 16.9639 20.0817 16.9639 19.2389L16.9639 19.2364Z" fill="url(#paint41_linear_23061_10704)"/>
<path fill-rule="evenodd" clip-rule="evenodd" d="M16.9639 19.2364V19.2354L16.9639 19.2334C16.9639 18.3907 16.3669 17.8177 15.6951 17.5491C15.025 17.2811 14.1854 17.2677 13.5059 17.6034L13.5048 17.604L10.8946 18.8764C10.7571 18.9434 10.6699 19.083 10.6699 19.2359C10.6699 19.3889 10.7571 19.5285 10.8946 19.5955L13.5048 20.8679L13.5059 20.8684C14.1853 21.2042 15.025 21.1907 15.6951 20.9228C16.3669 20.6542 16.9639 20.0817 16.9639 19.2389L16.9639 19.2364Z" fill="url(#paint42_radial_23061_10704)"/>
<path fill-rule="evenodd" clip-rule="evenodd" d="M16.9639 19.2364V19.2354L16.9639 19.2334C16.9639 18.3907 16.3669 17.8177 15.6951 17.5491C15.025 17.2811 14.1854 17.2677 13.5059 17.6034L13.5048 17.604L10.8946 18.8764C10.7571 18.9434 10.6699 19.083 10.6699 19.2359C10.6699 19.3889 10.7571 19.5285 10.8946 19.5955L13.5048 20.8679L13.5059 20.8684C14.1853 21.2042 15.025 21.1907 15.6951 20.9228C16.3669 20.6542 16.9639 20.0817 16.9639 19.2389L16.9639 19.2364Z" fill="url(#paint43_linear_23061_10704)"/>
<path fill-rule="evenodd" clip-rule="evenodd" d="M16.9639 19.2364V19.2354L16.9639 19.2334C16.9639 18.3907 16.3669 17.8177 15.6951 17.5491C15.025 17.2811 14.1854 17.2677 13.5059 17.6034L13.5048 17.604L10.8946 18.8764C10.7571 18.9434 10.6699 19.083 10.6699 19.2359C10.6699 19.3889 10.7571 19.5285 10.8946 19.5955L13.5048 20.8679L13.5059 20.8684C14.1853 21.2042 15.025 21.1907 15.6951 20.9228C16.3669 20.6542 16.9639 20.0817 16.9639 19.2389L16.9639 19.2364Z" fill="url(#paint44_radial_23061_10704)"/>
<path fill-rule="evenodd" clip-rule="evenodd" d="M16.9639 19.2364V19.2354L16.9639 19.2334C16.9639 18.3907 16.3669 17.8177 15.6951 17.5491C15.025 17.2811 14.1854 17.2677 13.5059 17.6034L13.5048 17.604L10.8946 18.8764C10.7571 18.9434 10.6699 19.083 10.6699 19.2359C10.6699 19.3889 10.7571 19.5285 10.8946 19.5955L13.5048 20.8679L13.5059 20.8684C14.1853 21.2042 15.025 21.1907 15.6951 20.9228C16.3669 20.6542 16.9639 20.0817 16.9639 19.2389L16.9639 19.2364Z" fill="url(#paint45_radial_23061_10704)"/>
<path fill-rule="evenodd" clip-rule="evenodd" d="M16.9639 19.2364V19.2354L16.9639 19.2334C16.9639 18.3907 16.3669 17.8177 15.6951 17.5491C15.025 17.2811 14.1854 17.2677 13.5059 17.6034L13.5048 17.604L10.8946 18.8764C10.7571 18.9434 10.6699 19.083 10.6699 19.2359C10.6699 19.3889 10.7571 19.5285 10.8946 19.5955L13.5048 20.8679L13.5059 20.8684C14.1853 21.2042 15.025 21.1907 15.6951 20.9228C16.3669 20.6542 16.9639 20.0817 16.9639 19.2389L16.9639 19.2364Z" fill="url(#paint46_radial_23061_10704)"/>
<path fill-rule="evenodd" clip-rule="evenodd" d="M16.9639 19.2364V19.2354L16.9639 19.2334C16.9639 18.3907 16.3669 17.8177 15.6951 17.5491C15.025 17.2811 14.1854 17.2677 13.5059 17.6034L13.5048 17.604L10.8946 18.8764C10.7571 18.9434 10.6699 19.083 10.6699 19.2359C10.6699 19.3889 10.7571 19.5285 10.8946 19.5955L13.5048 20.8679L13.5059 20.8684C14.1853 21.2042 15.025 21.1907 15.6951 20.9228C16.3669 20.6542 16.9639 20.0817 16.9639 19.2389L16.9639 19.2364Z" fill="url(#paint47_radial_23061_10704)"/>
<path fill-rule="evenodd" clip-rule="evenodd" d="M16.9639 19.2364V19.2354L16.9639 19.2334C16.9639 18.3907 16.3669 17.8177 15.6951 17.5491C15.025 17.2811 14.1854 17.2677 13.5059 17.6034L13.5048 17.604L10.8946 18.8764C10.7571 18.9434 10.6699 19.083 10.6699 19.2359C10.6699 19.3889 10.7571 19.5285 10.8946 19.5955L13.5048 20.8679L13.5059 20.8684C14.1853 21.2042 15.025 21.1907 15.6951 20.9228C16.3669 20.6542 16.9639 20.0817 16.9639 19.2389L16.9639 19.2364Z" fill="url(#paint48_radial_23061_10704)"/>
<path d="M16.5635 19.2328C16.5635 17.9859 14.8113 17.4035 13.6818 17.9624L11.0695 19.2358L13.6818 20.5093C14.8113 21.0682 16.5635 20.4858 16.5635 19.2389L16.5635 19.2358L16.5635 19.2328Z" fill="url(#paint49_radial_23061_10704)"/>
<path d="M16.5635 19.2328C16.5635 17.9859 14.8113 17.4035 13.6818 17.9624L11.0695 19.2358L13.6818 20.5093C14.8113 21.0682 16.5635 20.4858 16.5635 19.2389L16.5635 19.2358L16.5635 19.2328Z" fill="url(#paint50_radial_23061_10704)"/>
<rect x="7.40723" y="13.6328" width="3.78125" height="7" rx="1" fill="url(#paint51_linear_23061_10704)"/>
<rect x="7.40723" y="13.6328" width="3.78125" height="7" rx="1" fill="url(#paint52_linear_23061_10704)"/>
<rect x="7.40723" y="13.6328" width="3.78125" height="7" rx="1" fill="url(#paint53_linear_23061_10704)"/>
<rect x="7.40723" y="13.6328" width="3.78125" height="7" rx="1" fill="url(#paint54_linear_23061_10704)"/>
<rect x="7.40723" y="13.6328" width="3.78125" height="7" rx="1" fill="url(#paint55_radial_23061_10704)"/>
<rect x="7.40723" y="13.6328" width="3.78125" height="7" rx="1" fill="url(#paint56_radial_23061_10704)"/>
<rect x="7.40723" y="13.6328" width="3.78125" height="7" rx="1" fill="url(#paint57_radial_23061_10704)"/>
<defs>
<radialGradient id="paint0_radial_23061_10704" cx="0" cy="0" r="1" gradientUnits="userSpaceOnUse" gradientTransform="translate(14.9871 -1.04887) rotate(88.5481) scale(30.4135 31.3186)">
<stop stop-color="#F12E52"/>
<stop offset="0.67675" stop-color="#FF3B79"/>
<stop offset="1" stop-color="#FF4EC6"/>
</radialGradient>
<radialGradient id="paint1_radial_23061_10704" cx="0" cy="0" r="1" gradientUnits="userSpaceOnUse" gradientTransform="translate(22.5053 12.6365) rotate(142.986) scale(24.7777 46.411)">
<stop offset="0.483055" stop-color="#B91D43" stop-opacity="0"/>
<stop offset="0.833898" stop-color="#B91D43"/>
</radialGradient>
<radialGradient id="paint2_radial_23061_10704" cx="0" cy="0" r="1" gradientUnits="userSpaceOnUse" gradientTransform="translate(19.6444 18.7071) rotate(-158.663) scale(21.4925 30.3827)">
<stop offset="0.40984" stop-color="#B91D43" stop-opacity="0"/>
<stop offset="0.833898" stop-color="#B91D43"/>
</radialGradient>
<radialGradient id="paint3_radial_23061_10704" cx="0" cy="0" r="1" gradientUnits="userSpaceOnUse" gradientTransform="translate(9.34413 20.4375) rotate(90) scale(4.5625)">
<stop stop-color="#AA092B"/>
<stop offset="1" stop-color="#AA092B" stop-opacity="0"/>
</radialGradient>
<radialGradient id="paint4_radial_23061_10704" cx="0" cy="0" r="1" gradientUnits="userSpaceOnUse" gradientTransform="translate(15.4529 14.9535) rotate(90) scale(18.7056 18.7056)">
<stop offset="0.671096" stop-color="#FF7AF2" stop-opacity="0"/>
<stop offset="0.933555" stop-color="#FFBCE6"/>
</radialGradient>
<linearGradient id="paint5_linear_23061_10704" x1="17.5174" y1="17.1431" x2="25.0872" y2="26.1518" gradientUnits="userSpaceOnUse">
<stop offset="0.694491" stop-color="#FF7AF2" stop-opacity="0"/>
<stop offset="0.933555" stop-color="#FFBCE6"/>
</linearGradient>
<linearGradient id="paint6_linear_23061_10704" x1="16.579" y1="17.5185" x2="7.69538" y2="27.5282" gradientUnits="userSpaceOnUse">
<stop offset="0.694491" stop-color="#FF7AF2" stop-opacity="0"/>
<stop offset="0.933555" stop-color="#FFBCE6"/>
</linearGradient>
<radialGradient id="paint7_radial_23061_10704" cx="0" cy="0" r="1" gradientUnits="userSpaceOnUse" gradientTransform="translate(18.0859 14.0845) rotate(164.618) scale(16.2638 17.176)">
<stop offset="0.802083" stop-color="#FF73A6" stop-opacity="0"/>
<stop offset="1" stop-color="#FF93BA" stop-opacity="0.6"/>
</radialGradient>
<radialGradient id="paint8_radial_23061_10704" cx="0" cy="0" r="1" gradientUnits="userSpaceOnUse" gradientTransform="translate(15.9094 10.1724) rotate(-90) scale(11.2041 13.3495)">
<stop stop-color="#FC0D1A" stop-opacity="0.6"/>
<stop offset="0.802083" stop-color="#FC1020" stop-opacity="0"/>
</radialGradient>
<radialGradient id="paint9_radial_23061_10704" cx="0" cy="0" r="1" gradientTransform="matrix(-6.09711 7.46862 -5.42549 -3.41902 26.0308 10.6728)" gradientUnits="userSpaceOnUse">
<stop stop-color="#FF93BA" stop-opacity="0.5"/>
<stop offset="1" stop-color="#FF73A6" stop-opacity="0"/>
</radialGradient>
<radialGradient id="paint10_radial_23061_10704" cx="0" cy="0" r="1" gradientTransform="matrix(2.18328 2.22876 -1.29418 1.62225 13.447 13.3399)" gradientUnits="userSpaceOnUse">
<stop stop-color="#FF93BA" stop-opacity="0.4"/>
<stop offset="1" stop-color="#FF73A6" stop-opacity="0"/>
</radialGradient>
<radialGradient id="paint11_radial_23061_10704" cx="0" cy="0" r="1" gradientUnits="userSpaceOnUse" gradientTransform="translate(22.5439 8.24556) rotate(176.279) scale(2.80323 1.82146)">
<stop stop-color="#FF93BA" stop-opacity="0.3"/>
<stop offset="1" stop-color="#FF73A6" stop-opacity="0"/>
</radialGradient>
<radialGradient id="paint12_radial_23061_10704" cx="0" cy="0" r="1" gradientUnits="userSpaceOnUse" gradientTransform="translate(9.03492 8.31379) rotate(1.07082) scale(2.43387 1.24523)">
<stop stop-color="#FF93BA" stop-opacity="0.3"/>
<stop offset="1" stop-color="#FF73A6" stop-opacity="0"/>
</radialGradient>
<radialGradient id="paint13_radial_23061_10704" cx="0" cy="0" r="1" gradientUnits="userSpaceOnUse" gradientTransform="translate(17.6771 14.3405) rotate(-90) scale(5.48093 2.00378)">
<stop stop-color="#FA1E3A" stop-opacity="0.7"/>
<stop offset="1" stop-color="#FA1E3A" stop-opacity="0"/>
</radialGradient>
<radialGradient id="paint14_radial_23061_10704" cx="0" cy="0" r="1" gradientUnits="userSpaceOnUse" gradientTransform="translate(23.321 12.6299) rotate(-151.991) scale(6.01077)">
<stop stop-color="#FA1E3A" stop-opacity="0.7"/>
<stop offset="1" stop-color="#FA1E3A" stop-opacity="0"/>
</radialGradient>
<radialGradient id="paint15_radial_23061_10704" cx="0" cy="0" r="1" gradientUnits="userSpaceOnUse" gradientTransform="translate(16.1546 17.7578) scale(7 8.36441)">
<stop stop-color="#D9810E"/>
<stop offset="0.322917" stop-color="#FFA022"/>
<stop offset="1" stop-color="#FFA022" stop-opacity="0"/>
</radialGradient>
<linearGradient id="paint16_linear_23061_10704" x1="30.2171" y1="19.1953" x2="25.8734" y2="17.1016" gradientUnits="userSpaceOnUse">
<stop stop-color="#FFA630"/>
<stop offset="1" stop-color="#FFA022" stop-opacity="0"/>
</linearGradient>
<linearGradient id="paint17_linear_23061_10704" x1="7.87386" y1="27.6953" x2="5.40511" y2="18.9453" gradientUnits="userSpaceOnUse">
<stop stop-color="#F8EC1D"/>
<stop offset="0.568974" stop-color="#F89C20"/>
<stop offset="0.848958" stop-color="#C13A24"/>
</linearGradient>
<linearGradient id="paint18_linear_23061_10704" x1="3.73323" y1="23.1953" x2="4.42073" y2="23.4218" gradientUnits="userSpaceOnUse">
<stop stop-color="#D06400"/>
<stop offset="1" stop-color="#D06400" stop-opacity="0"/>
</linearGradient>
<radialGradient id="paint19_radial_23061_10704" cx="0" cy="0" r="1" gradientUnits="userSpaceOnUse" gradientTransform="translate(3.68636 29.7421) rotate(-67.6363) scale(5.91352 3.42197)">
<stop offset="0.717917" stop-color="#D06400"/>
<stop offset="0.974296" stop-color="#D06400" stop-opacity="0"/>
</radialGradient>
<linearGradient id="paint20_linear_23061_10704" x1="6.98323" y1="25.8281" x2="7.41292" y2="25.9843" gradientUnits="userSpaceOnUse">
<stop stop-color="#FFC42D" stop-opacity="0"/>
<stop offset="0.447917" stop-color="#FFC42D"/>
</linearGradient>
<linearGradient id="paint21_linear_23061_10704" x1="11.4985" y1="28.1015" x2="12.6548" y2="18.6015" gradientUnits="userSpaceOnUse">
<stop offset="0.140625" stop-color="#F8EC1D"/>
<stop offset="0.625" stop-color="#F89C20"/>
<stop offset="0.848958" stop-color="#C13A24"/>
</linearGradient>
<linearGradient id="paint22_linear_23061_10704" x1="10.4829" y1="23.5546" x2="10.7329" y2="23.4687" gradientUnits="userSpaceOnUse">
<stop stop-color="#D06400"/>
<stop offset="1" stop-color="#D06400" stop-opacity="0"/>
</linearGradient>
<linearGradient id="paint23_linear_23061_10704" x1="14.6704" y1="24.3984" x2="14.9985" y2="24.2734" gradientUnits="userSpaceOnUse">
<stop stop-color="#FFE601" stop-opacity="0"/>
<stop offset="1" stop-color="#FFF101"/>
</linearGradient>
<linearGradient id="paint24_linear_23061_10704" x1="3.83595" y1="15.976" x2="0.976578" y2="15.976" gradientUnits="userSpaceOnUse">
<stop stop-color="#FFEA3F"/>
<stop offset="0.911458" stop-color="#A2831C"/>
</linearGradient>
<linearGradient id="paint25_linear_23061_10704" x1="8.53043" y1="16.083" x2="6.71793" y2="16.083" gradientUnits="userSpaceOnUse">
<stop offset="0.255208" stop-color="#EB8D10"/>
<stop offset="1" stop-color="#FFA022" stop-opacity="0"/>
</linearGradient>
<radialGradient id="paint26_radial_23061_10704" cx="0" cy="0" r="1" gradientUnits="userSpaceOnUse" gradientTransform="translate(5.2422 18.9291) rotate(-79.1359) scale(1.57511 2.80146)">
<stop stop-color="#FFF45A"/>
<stop offset="1" stop-color="#FFF45A" stop-opacity="0"/>
</radialGradient>
<linearGradient id="paint27_linear_23061_10704" x1="4.69158" y1="18.7423" x2="8.91033" y2="18.7423" gradientUnits="userSpaceOnUse">
<stop stop-color="#F9AB4E"/>
<stop offset="1" stop-color="#F89B4C"/>
</linearGradient>
<radialGradient id="paint28_radial_23061_10704" cx="0" cy="0" r="1" gradientUnits="userSpaceOnUse" gradientTransform="translate(6.19158 17.883) rotate(103.422) scale(4.24083 9.22084)">
<stop offset="0.838542" stop-color="#F48629" stop-opacity="0"/>
<stop offset="1" stop-color="#F48629"/>
</radialGradient>
<linearGradient id="paint29_linear_23061_10704" x1="4.2072" y1="21.6173" x2="8.59783" y2="19.6955" gradientUnits="userSpaceOnUse">
<stop offset="0.64551" stop-color="#F48629" stop-opacity="0"/>
<stop offset="1" stop-color="#F48629"/>
</linearGradient>
<radialGradient id="paint30_radial_23061_10704" cx="0" cy="0" r="1" gradientUnits="userSpaceOnUse" gradientTransform="translate(3.59783 19.633) rotate(106.504) scale(1.32001 1.69701)">
<stop offset="0.0341" stop-color="#FFF45A"/>
<stop offset="1" stop-color="#FFF45A" stop-opacity="0"/>
</radialGradient>
<radialGradient id="paint31_radial_23061_10704" cx="0" cy="0" r="1" gradientUnits="userSpaceOnUse" gradientTransform="translate(5.34002 20.0939) rotate(66.666) scale(0.433928 1.66384)">
<stop stop-color="#FFF45A" stop-opacity="0.911283"/>
<stop offset="1" stop-color="#FFF45A" stop-opacity="0"/>
</radialGradient>
<radialGradient id="paint32_radial_23061_10704" cx="0" cy="0" r="1" gradientUnits="userSpaceOnUse" gradientTransform="translate(5.59783 21.4923) rotate(-137.479) scale(5.23639 3.80855)">
<stop offset="0.872134" stop-color="#FFF45A" stop-opacity="0"/>
<stop offset="0.971574" stop-color="#D8CC28" stop-opacity="0.911283"/>
</radialGradient>
<radialGradient id="paint33_radial_23061_10704" cx="0" cy="0" r="1" gradientUnits="userSpaceOnUse" gradientTransform="translate(4.7072 21.8361) rotate(-65.9204) scale(4.27002 12.1433)">
<stop offset="0.868756" stop-color="#FFF45A" stop-opacity="0"/>
<stop offset="0.971574" stop-color="#FFF45A" stop-opacity="0.911283"/>
</radialGradient>
<radialGradient id="paint34_radial_23061_10704" cx="0" cy="0" r="1" gradientUnits="userSpaceOnUse" gradientTransform="translate(7.84783 19.133) rotate(180) scale(6.34375 3.71766)">
<stop offset="0.895262" stop-color="#A2831C" stop-opacity="0"/>
<stop offset="1" stop-color="#A2831C"/>
</radialGradient>
<radialGradient id="paint35_radial_23061_10704" cx="0" cy="0" r="1" gradientUnits="userSpaceOnUse" gradientTransform="translate(3.39411 21.8672) rotate(-72.2065) scale(4.19275 10.9917)">
<stop offset="0.0192045" stop-color="#FC8306"/>
<stop offset="0.217544" stop-color="#F78E13"/>
<stop offset="0.817108" stop-color="#B23A28"/>
</radialGradient>
<radialGradient id="paint36_radial_23061_10704" cx="0" cy="0" r="1" gradientUnits="userSpaceOnUse" gradientTransform="translate(4.17119 18.7597) rotate(103.496) scale(1.06335 1.96525)">
<stop stop-color="#B23A28"/>
<stop offset="1" stop-color="#B23A28" stop-opacity="0"/>
</radialGradient>
<linearGradient id="paint37_linear_23061_10704" x1="14.4053" y1="15.976" x2="7.53026" y2="15.976" gradientUnits="userSpaceOnUse">
<stop stop-color="#FFEA3F"/>
<stop offset="0.911458" stop-color="#A2831C"/>
</linearGradient>
<linearGradient id="paint38_linear_23061_10704" x1="10.7803" y1="16.102" x2="11.6553" y2="16.102" gradientUnits="userSpaceOnUse">
<stop offset="0.255208" stop-color="#FF9B16"/>
<stop offset="1" stop-color="#FFA022" stop-opacity="0"/>
</linearGradient>
<radialGradient id="paint39_radial_23061_10704" cx="0" cy="0" r="1" gradientUnits="userSpaceOnUse" gradientTransform="translate(13.5264 18.9291) rotate(-100.864) scale(1.57511 2.80146)">
<stop stop-color="#FFF45A"/>
<stop offset="1" stop-color="#FFF45A" stop-opacity="0"/>
</radialGradient>
<linearGradient id="paint40_linear_23061_10704" x1="18.4678" y1="16.083" x2="16.4365" y2="16.083" gradientUnits="userSpaceOnUse">
<stop offset="0.255208" stop-color="#EB8D10"/>
<stop offset="1" stop-color="#FFA022" stop-opacity="0"/>
</linearGradient>
<linearGradient id="paint41_linear_23061_10704" x1="14.077" y1="18.7423" x2="9.85823" y2="18.7423" gradientUnits="userSpaceOnUse">
<stop stop-color="#F9AB4E"/>
<stop offset="1" stop-color="#F89B4C"/>
</linearGradient>
<radialGradient id="paint42_radial_23061_10704" cx="0" cy="0" r="1" gradientUnits="userSpaceOnUse" gradientTransform="translate(12.577 17.883) rotate(76.5782) scale(4.24083 9.22084)">
<stop offset="0.838542" stop-color="#F48629" stop-opacity="0"/>
<stop offset="1" stop-color="#F48629"/>
</radialGradient>
<linearGradient id="paint43_linear_23061_10704" x1="14.5614" y1="21.6173" x2="10.1707" y2="19.6955" gradientUnits="userSpaceOnUse">
<stop offset="0.64551" stop-color="#F48629" stop-opacity="0"/>
<stop offset="1" stop-color="#F48629"/>
</linearGradient>
<radialGradient id="paint44_radial_23061_10704" cx="0" cy="0" r="1" gradientUnits="userSpaceOnUse" gradientTransform="translate(15.1707 19.633) rotate(73.4956) scale(1.32001 1.69701)">
<stop offset="0.0341" stop-color="#FFF45A"/>
<stop offset="1" stop-color="#FFF45A" stop-opacity="0"/>
</radialGradient>
<radialGradient id="paint45_radial_23061_10704" cx="0" cy="0" r="1" gradientUnits="userSpaceOnUse" gradientTransform="translate(13.499 19.9611) rotate(113.839) scale(0.734541 2.8165)">
<stop stop-color="#FFF45A" stop-opacity="0.911283"/>
<stop offset="1" stop-color="#FFF45A" stop-opacity="0"/>
</radialGradient>
<radialGradient id="paint46_radial_23061_10704" cx="0" cy="0" r="1" gradientUnits="userSpaceOnUse" gradientTransform="translate(13.1707 21.4923) rotate(-42.5209) scale(5.23639 3.80855)">
<stop offset="0.872134" stop-color="#FFF45A" stop-opacity="0"/>
<stop offset="0.971574" stop-color="#D8CC28" stop-opacity="0.911283"/>
</radialGradient>
<radialGradient id="paint47_radial_23061_10704" cx="0" cy="0" r="1" gradientUnits="userSpaceOnUse" gradientTransform="translate(14.0614 21.8361) rotate(-114.08) scale(4.27002 12.1433)">
<stop offset="0.868756" stop-color="#FFF45A" stop-opacity="0"/>
<stop offset="0.971574" stop-color="#FFF45A" stop-opacity="0.911283"/>
</radialGradient>
<radialGradient id="paint48_radial_23061_10704" cx="0" cy="0" r="1" gradientUnits="userSpaceOnUse" gradientTransform="translate(14.0303 19.4767) rotate(-5.92458) scale(3.33029 2.36931)">
<stop offset="0.868756" stop-color="#FFF45A" stop-opacity="0"/>
<stop offset="0.971574" stop-color="#FFF45A" stop-opacity="0.911283"/>
</radialGradient>
<radialGradient id="paint49_radial_23061_10704" cx="0" cy="0" r="1" gradientUnits="userSpaceOnUse" gradientTransform="translate(15.3735 21.8672) rotate(-107.793) scale(4.19275 10.9917)">
<stop offset="0.0192045" stop-color="#FC8306"/>
<stop offset="0.217544" stop-color="#F78E13"/>
<stop offset="0.817108" stop-color="#B23A28"/>
</radialGradient>
<radialGradient id="paint50_radial_23061_10704" cx="0" cy="0" r="1" gradientUnits="userSpaceOnUse" gradientTransform="translate(14.5964 18.7597) rotate(76.5043) scale(1.06335 1.96525)">
<stop stop-color="#B23A28"/>
<stop offset="1" stop-color="#B23A28" stop-opacity="0"/>
</radialGradient>
<linearGradient id="paint51_linear_23061_10704" x1="11.1885" y1="16.0078" x2="6.90535" y2="21.6953" gradientUnits="userSpaceOnUse">
<stop stop-color="#F8EC1D"/>
<stop offset="1" stop-color="#F89C20"/>
</linearGradient>
<linearGradient id="paint52_linear_23061_10704" x1="5.3741" y1="19.8203" x2="8.9366" y2="19.8203" gradientUnits="userSpaceOnUse">
<stop stop-color="#CC872E"/>
<stop offset="1" stop-color="#CC872E" stop-opacity="0"/>
</linearGradient>
<linearGradient id="paint53_linear_23061_10704" x1="9.1241" y1="15.7891" x2="9.1241" y2="21.8984" gradientUnits="userSpaceOnUse">
<stop offset="0.671096" stop-color="#FF7AF2" stop-opacity="0"/>
<stop offset="0.933555" stop-color="#FFBCE6"/>
</linearGradient>
<linearGradient id="paint54_linear_23061_10704" x1="6.15535" y1="16.775" x2="8.09285" y2="16.6641" gradientUnits="userSpaceOnUse">
<stop offset="0.510417" stop-color="#FF9B16"/>
<stop offset="1" stop-color="#FFA022" stop-opacity="0"/>
</linearGradient>
<radialGradient id="paint55_radial_23061_10704" cx="0" cy="0" r="1" gradientUnits="userSpaceOnUse" gradientTransform="translate(9.29785 19.3279) rotate(90) scale(0.84375 2.10503)">
<stop stop-color="#FFAB44"/>
<stop offset="1" stop-color="#FFAB44" stop-opacity="0"/>
</radialGradient>
<radialGradient id="paint56_radial_23061_10704" cx="0" cy="0" r="1" gradientUnits="userSpaceOnUse" gradientTransform="translate(10.469 18.5936) rotate(150.132) scale(0.807546)">
<stop stop-color="#FFF58C" stop-opacity="0.6"/>
<stop offset="1" stop-color="#FFF58C" stop-opacity="0"/>
</radialGradient>
<radialGradient id="paint57_radial_23061_10704" cx="0" cy="0" r="1" gradientUnits="userSpaceOnUse" gradientTransform="translate(10.4143 14.2108) rotate(114.228) scale(0.856707)">
<stop stop-color="#FFF58C" stop-opacity="0.7"/>
<stop offset="1" stop-color="#FFF58C" stop-opacity="0"/>
</radialGradient>
</defs>
</svg>
