<svg width="48" height="48" viewBox="0 0 48 48" fill="none" xmlns="http://www.w3.org/2000/svg">
<path fill-rule="evenodd" clip-rule="evenodd" d="M16.3641 10.4533C16.3641 6.37849 19.6674 3.0752 23.7423 3.0752C27.8171 3.0752 31.1204 6.37849 31.1204 10.4533V16.7346C31.1204 20.8094 27.8171 24.1127 23.7423 24.1127C19.6674 24.1127 16.3641 20.8094 16.3641 16.7346V10.4533ZM23.7423 5.5502C21.0343 5.5502 18.8391 7.7454 18.8391 10.4533V16.7346C18.8391 19.4425 21.0343 21.6377 23.7423 21.6377C26.4502 21.6377 28.6454 19.4425 28.6454 16.7346V10.4533C28.6454 7.7454 26.4502 5.5502 23.7423 5.5502Z" fill="url(#paint0_radial_21186_9615)"/>
<path fill-rule="evenodd" clip-rule="evenodd" d="M16.3641 10.4533C16.3641 6.37849 19.6674 3.0752 23.7423 3.0752C27.8171 3.0752 31.1204 6.37849 31.1204 10.4533V16.7346C31.1204 20.8094 27.8171 24.1127 23.7423 24.1127C19.6674 24.1127 16.3641 20.8094 16.3641 16.7346V10.4533ZM23.7423 5.5502C21.0343 5.5502 18.8391 7.7454 18.8391 10.4533V16.7346C18.8391 19.4425 21.0343 21.6377 23.7423 21.6377C26.4502 21.6377 28.6454 19.4425 28.6454 16.7346V10.4533C28.6454 7.7454 26.4502 5.5502 23.7423 5.5502Z" fill="url(#paint1_radial_21186_9615)" fill-opacity="0.8"/>
<path fill-rule="evenodd" clip-rule="evenodd" d="M16.3641 10.4533C16.3641 6.37849 19.6674 3.0752 23.7423 3.0752C27.8171 3.0752 31.1204 6.37849 31.1204 10.4533V16.7346C31.1204 20.8094 27.8171 24.1127 23.7423 24.1127C19.6674 24.1127 16.3641 20.8094 16.3641 16.7346V10.4533ZM23.7423 5.5502C21.0343 5.5502 18.8391 7.7454 18.8391 10.4533V16.7346C18.8391 19.4425 21.0343 21.6377 23.7423 21.6377C26.4502 21.6377 28.6454 19.4425 28.6454 16.7346V10.4533C28.6454 7.7454 26.4502 5.5502 23.7423 5.5502Z" fill="url(#paint2_linear_21186_9615)"/>
<path d="M7.125 24.1406C7.125 15.0279 14.5123 7.64062 23.625 7.64062C32.7377 7.64062 40.125 15.0279 40.125 24.1406V38.918C40.125 42.2317 37.4387 44.918 34.125 44.918H32.535L23.6913 42.8756L14.42 44.918H13.125C9.81129 44.918 7.125 42.2317 7.125 38.918V24.1406Z" fill="#C4C4C4" fill-opacity="0.5"/>
<path d="M7.125 24.1406C7.125 15.0279 14.5123 7.64062 23.625 7.64062C32.7377 7.64062 40.125 15.0279 40.125 24.1406V38.918C40.125 42.2317 37.4387 44.918 34.125 44.918H32.535L23.6913 42.8756L14.42 44.918H13.125C9.81129 44.918 7.125 42.2317 7.125 38.918V24.1406Z" fill="url(#paint3_radial_21186_9615)"/>
<path d="M7.125 24.1406C7.125 15.0279 14.5123 7.64062 23.625 7.64062C32.7377 7.64062 40.125 15.0279 40.125 24.1406V38.918C40.125 42.2317 37.4387 44.918 34.125 44.918H32.535L23.6913 42.8756L14.42 44.918H13.125C9.81129 44.918 7.125 42.2317 7.125 38.918V24.1406Z" fill="url(#paint4_linear_21186_9615)"/>
<path d="M7.125 24.1406C7.125 15.0279 14.5123 7.64062 23.625 7.64062C32.7377 7.64062 40.125 15.0279 40.125 24.1406V38.918C40.125 42.2317 37.4387 44.918 34.125 44.918H32.535L23.6913 42.8756L14.42 44.918H13.125C9.81129 44.918 7.125 42.2317 7.125 38.918V24.1406Z" fill="url(#paint5_linear_21186_9615)"/>
<path d="M7.125 24.1406C7.125 15.0279 14.5123 7.64062 23.625 7.64062C32.7377 7.64062 40.125 15.0279 40.125 24.1406V38.918C40.125 42.2317 37.4387 44.918 34.125 44.918H32.535L23.6913 42.8756L14.42 44.918H13.125C9.81129 44.918 7.125 42.2317 7.125 38.918V24.1406Z" fill="url(#paint6_radial_21186_9615)" fill-opacity="0.4"/>
<path d="M7.125 24.1406C7.125 15.0279 14.5123 7.64062 23.625 7.64062C32.7377 7.64062 40.125 15.0279 40.125 24.1406V38.918C40.125 42.2317 37.4387 44.918 34.125 44.918H32.535L23.6913 42.8756L14.42 44.918H13.125C9.81129 44.918 7.125 42.2317 7.125 38.918V24.1406Z" fill="url(#paint7_radial_21186_9615)"/>
<path d="M7.125 24.1406C7.125 15.0279 14.5123 7.64062 23.625 7.64062C32.7377 7.64062 40.125 15.0279 40.125 24.1406V38.918C40.125 42.2317 37.4387 44.918 34.125 44.918H32.535L23.6913 42.8756L14.42 44.918H13.125C9.81129 44.918 7.125 42.2317 7.125 38.918V24.1406Z" fill="url(#paint8_radial_21186_9615)"/>
<path d="M7.125 24.1406C7.125 15.0279 14.5123 7.64062 23.625 7.64062C32.7377 7.64062 40.125 15.0279 40.125 24.1406V38.918C40.125 42.2317 37.4387 44.918 34.125 44.918H32.535L23.6913 42.8756L14.42 44.918H13.125C9.81129 44.918 7.125 42.2317 7.125 38.918V24.1406Z" fill="url(#paint9_radial_21186_9615)"/>
<path d="M7.125 24.1406C7.125 15.0279 14.5123 7.64062 23.625 7.64062C32.7377 7.64062 40.125 15.0279 40.125 24.1406V38.918C40.125 42.2317 37.4387 44.918 34.125 44.918H32.535L23.6913 42.8756L14.42 44.918H13.125C9.81129 44.918 7.125 42.2317 7.125 38.918V24.1406Z" fill="url(#paint10_radial_21186_9615)" fill-opacity="0.6"/>
<path d="M7.125 24.1406C7.125 15.0279 14.5123 7.64062 23.625 7.64062C32.7377 7.64062 40.125 15.0279 40.125 24.1406V38.918C40.125 42.2317 37.4387 44.918 34.125 44.918H32.535L23.6913 42.8756L14.42 44.918H13.125C9.81129 44.918 7.125 42.2317 7.125 38.918V24.1406Z" fill="url(#paint11_radial_21186_9615)" fill-opacity="0.9"/>
<path d="M7.125 24.1406C7.125 15.0279 14.5123 7.64062 23.625 7.64062C32.7377 7.64062 40.125 15.0279 40.125 24.1406V38.918C40.125 42.2317 37.4387 44.918 34.125 44.918H32.535L23.6913 42.8756L14.42 44.918H13.125C9.81129 44.918 7.125 42.2317 7.125 38.918V24.1406Z" fill="url(#paint12_radial_21186_9615)" fill-opacity="0.8"/>
<path d="M7.125 24.1406C7.125 15.0279 14.5123 7.64062 23.625 7.64062C32.7377 7.64062 40.125 15.0279 40.125 24.1406V38.918C40.125 42.2317 37.4387 44.918 34.125 44.918H32.535L23.6913 42.8756L14.42 44.918H13.125C9.81129 44.918 7.125 42.2317 7.125 38.918V24.1406Z" fill="url(#paint13_radial_21186_9615)" fill-opacity="0.8"/>
<path d="M7.125 24.1406C7.125 15.0279 14.5123 7.64062 23.625 7.64062C32.7377 7.64062 40.125 15.0279 40.125 24.1406V38.918C40.125 42.2317 37.4387 44.918 34.125 44.918H32.535L23.6913 42.8756L14.42 44.918H13.125C9.81129 44.918 7.125 42.2317 7.125 38.918V24.1406Z" fill="url(#paint14_linear_21186_9615)" fill-opacity="0.2"/>
<path d="M7.125 24.1406C7.125 15.0279 14.5123 7.64062 23.625 7.64062C32.7377 7.64062 40.125 15.0279 40.125 24.1406V38.918C40.125 42.2317 37.4387 44.918 34.125 44.918H32.535L23.6913 42.8756L14.42 44.918H13.125C9.81129 44.918 7.125 42.2317 7.125 38.918V24.1406Z" fill="url(#paint15_linear_21186_9615)" fill-opacity="0.3"/>
<path d="M7.125 24.1406C7.125 15.0279 14.5123 7.64062 23.625 7.64062C32.7377 7.64062 40.125 15.0279 40.125 24.1406V38.918C40.125 42.2317 37.4387 44.918 34.125 44.918H32.535L23.6913 42.8756L14.42 44.918H13.125C9.81129 44.918 7.125 42.2317 7.125 38.918V24.1406Z" fill="url(#paint16_linear_21186_9615)" fill-opacity="0.3"/>
<path fill-rule="evenodd" clip-rule="evenodd" d="M23.6249 10.9453C18.2518 10.9453 13.5913 14.0019 11.2897 18.4747C11.1002 18.843 10.648 18.9879 10.2797 18.7984C9.91136 18.6089 9.76643 18.1567 9.95595 17.7883C12.5045 12.8356 17.6682 9.44531 23.6249 9.44531C29.5817 9.44531 34.7453 12.8356 37.2939 17.7883C37.4834 18.1567 37.3385 18.6089 36.9702 18.7984C36.6019 18.9879 36.1496 18.843 35.9601 18.4747C33.6586 14.0019 28.9981 10.9453 23.6249 10.9453Z" fill="url(#paint17_linear_21186_9615)"/>
<path fill-rule="evenodd" clip-rule="evenodd" d="M23.6249 10.9453C18.2518 10.9453 13.5913 14.0019 11.2897 18.4747C11.1002 18.843 10.648 18.9879 10.2797 18.7984C9.91136 18.6089 9.76643 18.1567 9.95595 17.7883C12.5045 12.8356 17.6682 9.44531 23.6249 9.44531C29.5817 9.44531 34.7453 12.8356 37.2939 17.7883C37.4834 18.1567 37.3385 18.6089 36.9702 18.7984C36.6019 18.9879 36.1496 18.843 35.9601 18.4747C33.6586 14.0019 28.9981 10.9453 23.6249 10.9453Z" fill="url(#paint18_linear_21186_9615)"/>
<path fill-rule="evenodd" clip-rule="evenodd" d="M23.6249 10.9453C18.2518 10.9453 13.5913 14.0019 11.2897 18.4747C11.1002 18.843 10.648 18.9879 10.2797 18.7984C9.91136 18.6089 9.76643 18.1567 9.95595 17.7883C12.5045 12.8356 17.6682 9.44531 23.6249 9.44531C29.5817 9.44531 34.7453 12.8356 37.2939 17.7883C37.4834 18.1567 37.3385 18.6089 36.9702 18.7984C36.6019 18.9879 36.1496 18.843 35.9601 18.4747C33.6586 14.0019 28.9981 10.9453 23.6249 10.9453Z" fill="url(#paint19_radial_21186_9615)" fill-opacity="0.5"/>
<path fill-rule="evenodd" clip-rule="evenodd" d="M23.6249 10.9453C18.2518 10.9453 13.5913 14.0019 11.2897 18.4747C11.1002 18.843 10.648 18.9879 10.2797 18.7984C9.91136 18.6089 9.76643 18.1567 9.95595 17.7883C12.5045 12.8356 17.6682 9.44531 23.6249 9.44531C29.5817 9.44531 34.7453 12.8356 37.2939 17.7883C37.4834 18.1567 37.3385 18.6089 36.9702 18.7984C36.6019 18.9879 36.1496 18.843 35.9601 18.4747C33.6586 14.0019 28.9981 10.9453 23.6249 10.9453Z" fill="url(#paint20_linear_21186_9615)"/>
<path fill-rule="evenodd" clip-rule="evenodd" d="M23.6249 10.9453C18.2518 10.9453 13.5913 14.0019 11.2897 18.4747C11.1002 18.843 10.648 18.9879 10.2797 18.7984C9.91136 18.6089 9.76643 18.1567 9.95595 17.7883C12.5045 12.8356 17.6682 9.44531 23.6249 9.44531C29.5817 9.44531 34.7453 12.8356 37.2939 17.7883C37.4834 18.1567 37.3385 18.6089 36.9702 18.7984C36.6019 18.9879 36.1496 18.843 35.9601 18.4747C33.6586 14.0019 28.9981 10.9453 23.6249 10.9453Z" fill="url(#paint21_radial_21186_9615)"/>
<rect x="19.1953" y="13.6641" width="8.92969" height="4.46745" rx="1.25" fill="#FFC442"/>
<rect x="19.1953" y="13.6641" width="8.92969" height="4.46745" rx="1.25" fill="url(#paint22_radial_21186_9615)"/>
<rect x="19.1953" y="13.6641" width="8.92969" height="4.46745" rx="1.25" fill="url(#paint23_linear_21186_9615)"/>
<rect x="19.1953" y="13.6641" width="8.92969" height="4.46745" rx="1.25" fill="url(#paint24_linear_21186_9615)"/>
<rect x="19.1953" y="13.6641" width="8.92969" height="4.46745" rx="1.25" fill="url(#paint25_linear_21186_9615)"/>
<rect x="19.1953" y="13.6641" width="8.92969" height="4.46745" rx="1.25" fill="url(#paint26_linear_21186_9615)"/>
<path d="M32.3594 44.918C33.9757 44.918 35.5285 44.0684 36.0322 42.5325C36.4524 41.2513 36.6797 39.8827 36.6797 38.4609C36.6797 31.251 30.8349 25.4062 23.625 25.4062C16.4151 25.4062 10.5703 31.251 10.5703 38.4609C10.5703 39.8827 10.7976 41.2513 11.2178 42.5325C11.7215 44.0684 13.2743 44.918 14.8906 44.918H32.3594Z" fill="url(#paint27_radial_21186_9615)"/>
<path d="M32.3594 44.918C33.9757 44.918 35.5285 44.0684 36.0322 42.5325C36.4524 41.2513 36.6797 39.8827 36.6797 38.4609C36.6797 31.251 30.8349 25.4062 23.625 25.4062C16.4151 25.4062 10.5703 31.251 10.5703 38.4609C10.5703 39.8827 10.7976 41.2513 11.2178 42.5325C11.7215 44.0684 13.2743 44.918 14.8906 44.918H32.3594Z" fill="url(#paint28_linear_21186_9615)"/>
<path d="M32.3594 44.918C33.9757 44.918 35.5285 44.0684 36.0322 42.5325C36.4524 41.2513 36.6797 39.8827 36.6797 38.4609C36.6797 31.251 30.8349 25.4062 23.625 25.4062C16.4151 25.4062 10.5703 31.251 10.5703 38.4609C10.5703 39.8827 10.7976 41.2513 11.2178 42.5325C11.7215 44.0684 13.2743 44.918 14.8906 44.918H32.3594Z" fill="url(#paint29_radial_21186_9615)"/>
<path d="M32.3594 44.918C33.9757 44.918 35.5285 44.0684 36.0322 42.5325C36.4524 41.2513 36.6797 39.8827 36.6797 38.4609C36.6797 31.251 30.8349 25.4062 23.625 25.4062C16.4151 25.4062 10.5703 31.251 10.5703 38.4609C10.5703 39.8827 10.7976 41.2513 11.2178 42.5325C11.7215 44.0684 13.2743 44.918 14.8906 44.918H32.3594Z" fill="url(#paint30_radial_21186_9615)" fill-opacity="0.9"/>
<path d="M32.3594 44.918C33.9757 44.918 35.5285 44.0684 36.0322 42.5325C36.4524 41.2513 36.6797 39.8827 36.6797 38.4609C36.6797 31.251 30.8349 25.4062 23.625 25.4062C16.4151 25.4062 10.5703 31.251 10.5703 38.4609C10.5703 39.8827 10.7976 41.2513 11.2178 42.5325C11.7215 44.0684 13.2743 44.918 14.8906 44.918H32.3594Z" fill="url(#paint31_radial_21186_9615)" fill-opacity="0.9"/>
<path d="M10.5854 37.8281C10.9155 30.9121 16.6273 25.4062 23.625 25.4062C30.6227 25.4062 36.3345 30.9121 36.6646 37.8281C36.6747 37.6184 36.6797 37.4075 36.6797 37.1953C36.6797 29.9854 30.8349 24.1406 23.625 24.1406C16.4151 24.1406 10.5703 29.9854 10.5703 37.1953C10.5703 37.4075 10.5753 37.6184 10.5854 37.8281Z" fill="url(#paint32_radial_21186_9615)"/>
<path fill-rule="evenodd" clip-rule="evenodd" d="M11.2847 34.1528C10.6534 34.1528 10.1369 34.6373 10.0968 35.2496L9.6823 38.0853C9.59638 38.6731 10.0588 39.1994 10.6612 39.1994H11.8899C12.4903 39.1994 12.9522 38.6763 12.8694 38.09L12.4745 35.2922C12.4198 34.6525 11.9304 34.1528 11.2847 34.1528ZM11.2619 36.006C11.6372 36.006 11.9415 35.7017 11.9415 35.3264C11.9415 34.951 11.6372 34.6467 11.2619 34.6467C10.8865 34.6467 10.5822 34.951 10.5822 35.3264C10.5822 35.7017 10.8865 36.006 11.2619 36.006Z" fill="url(#paint33_radial_21186_9615)"/>
<path fill-rule="evenodd" clip-rule="evenodd" d="M11.2847 34.1528C10.6534 34.1528 10.1369 34.6373 10.0968 35.2496L9.6823 38.0853C9.59638 38.6731 10.0588 39.1994 10.6612 39.1994H11.8899C12.4903 39.1994 12.9522 38.6763 12.8694 38.09L12.4745 35.2922C12.4198 34.6525 11.9304 34.1528 11.2847 34.1528ZM11.2619 36.006C11.6372 36.006 11.9415 35.7017 11.9415 35.3264C11.9415 34.951 11.6372 34.6467 11.2619 34.6467C10.8865 34.6467 10.5822 34.951 10.5822 35.3264C10.5822 35.7017 10.8865 36.006 11.2619 36.006Z" fill="url(#paint34_linear_21186_9615)" fill-opacity="0.8"/>
<defs>
<radialGradient id="paint0_radial_21186_9615" cx="0" cy="0" r="1" gradientUnits="userSpaceOnUse" gradientTransform="translate(28.9688 4.3127) rotate(141.554) scale(7.84047 13.2176)">
<stop stop-color="#CE4767"/>
<stop offset="1" stop-color="#AF3349"/>
</radialGradient>
<radialGradient id="paint1_radial_21186_9615" cx="0" cy="0" r="1" gradientUnits="userSpaceOnUse" gradientTransform="translate(23.8964 12.1917) rotate(-179.47) scale(9.41366 10.9692)">
<stop offset="0.575572" stop-color="#AF3349" stop-opacity="0"/>
<stop offset="0.6791" stop-color="#D55570" stop-opacity="0.46"/>
<stop offset="0.7213" stop-color="#D55570" stop-opacity="0.86"/>
<stop offset="0.76703" stop-color="#D2526D" stop-opacity="0.58"/>
<stop offset="0.828817" stop-color="#AF3349" stop-opacity="0"/>
</radialGradient>
<linearGradient id="paint2_linear_21186_9615" x1="33.3097" y1="12.2788" x2="14.4831" y2="12.1045" gradientUnits="userSpaceOnUse">
<stop offset="0.4377" stop-color="#AF3349" stop-opacity="0"/>
<stop offset="0.816441" stop-color="#AF3349" stop-opacity="0.78"/>
</linearGradient>
<radialGradient id="paint3_radial_21186_9615" cx="0" cy="0" r="1" gradientUnits="userSpaceOnUse" gradientTransform="translate(29.5312 15.75) rotate(112.419) scale(22.6155 21.2695)">
<stop offset="0.216088" stop-color="#FF5AAC"/>
<stop offset="1" stop-color="#E02E7A"/>
</radialGradient>
<linearGradient id="paint4_linear_21186_9615" x1="39.0938" y1="45.8437" x2="23.1563" y2="34.7813" gradientUnits="userSpaceOnUse">
<stop stop-color="#F63659"/>
<stop offset="1" stop-color="#F63659" stop-opacity="0"/>
</linearGradient>
<linearGradient id="paint5_linear_21186_9615" x1="8.0625" y1="44.3438" x2="17.0625" y2="31.7813" gradientUnits="userSpaceOnUse">
<stop offset="0.0351833" stop-color="#D64456"/>
<stop offset="1" stop-color="#D64456" stop-opacity="0"/>
</linearGradient>
<radialGradient id="paint6_radial_21186_9615" cx="0" cy="0" r="1" gradientUnits="userSpaceOnUse" gradientTransform="translate(24.4052 31.9948) rotate(161.434) scale(20.7533 25.6661)">
<stop offset="0.861031" stop-color="#BA155A" stop-opacity="0"/>
<stop offset="0.993893" stop-color="#792146"/>
<stop offset="1" stop-color="#D75189" stop-opacity="0"/>
</radialGradient>
<radialGradient id="paint7_radial_21186_9615" cx="0" cy="0" r="1" gradientUnits="userSpaceOnUse" gradientTransform="translate(23.625 21.4495) rotate(90) scale(23.4685 29.1392)">
<stop offset="0.397256" stop-color="#F72F79" stop-opacity="0"/>
<stop offset="0.442277" stop-color="#EF246F"/>
<stop offset="0.542596" stop-color="#EE3665" stop-opacity="0"/>
</radialGradient>
<radialGradient id="paint8_radial_21186_9615" cx="0" cy="0" r="1" gradientUnits="userSpaceOnUse" gradientTransform="translate(23.625 22.5026) rotate(90) scale(8.05226 23.0395)">
<stop offset="0.630216" stop-color="#FA52A3"/>
<stop offset="0.986842" stop-color="#F850A0" stop-opacity="0"/>
</radialGradient>
<radialGradient id="paint9_radial_21186_9615" cx="0" cy="0" r="1" gradientUnits="userSpaceOnUse" gradientTransform="translate(23.625 20.7548) rotate(113.345) scale(31.3205 24.5361)">
<stop offset="0.0363277" stop-color="#FF5AAC" stop-opacity="0"/>
<stop offset="0.528166" stop-color="#E02E7A" stop-opacity="0.65"/>
<stop offset="1" stop-color="#F13561" stop-opacity="0.57"/>
</radialGradient>
<radialGradient id="paint10_radial_21186_9615" cx="0" cy="0" r="1" gradientUnits="userSpaceOnUse" gradientTransform="translate(23.9119 13.8456) rotate(0.975559) scale(8.54861 1.78982)">
<stop offset="0.138281" stop-color="#AF235E" stop-opacity="0.42"/>
<stop offset="0.494658" stop-color="#EC3D87" stop-opacity="0"/>
</radialGradient>
<radialGradient id="paint11_radial_21186_9615" cx="0" cy="0" r="1" gradientUnits="userSpaceOnUse" gradientTransform="translate(20.6823 16.1758) rotate(86.6866) scale(7.02877 5.68825)">
<stop offset="0.0986967" stop-color="#AF235E"/>
<stop offset="0.436643" stop-color="#EC3D87" stop-opacity="0"/>
</radialGradient>
<radialGradient id="paint12_radial_21186_9615" cx="0" cy="0" r="1" gradientUnits="userSpaceOnUse" gradientTransform="translate(26.8868 15.9173) rotate(92.0576) scale(6.17157 4.99453)">
<stop offset="0.0986967" stop-color="#AF235E"/>
<stop offset="0.436643" stop-color="#EC3D87" stop-opacity="0"/>
</radialGradient>
<radialGradient id="paint13_radial_21186_9615" cx="0" cy="0" r="1" gradientUnits="userSpaceOnUse" gradientTransform="translate(23.625 18.0568) rotate(0.464495) scale(9.4297 2.49951)">
<stop offset="0.138281" stop-color="#C9276C" stop-opacity="0.42"/>
<stop offset="0.494658" stop-color="#EC3D87" stop-opacity="0"/>
</radialGradient>
<linearGradient id="paint14_linear_21186_9615" x1="34.4671" y1="32.145" x2="40.6281" y2="32.1653" gradientUnits="userSpaceOnUse">
<stop offset="0.524102" stop-color="#BA155A" stop-opacity="0"/>
<stop offset="0.8873" stop-color="#792146" stop-opacity="0.52"/>
<stop offset="1" stop-color="#D75189" stop-opacity="0"/>
</linearGradient>
<linearGradient id="paint15_linear_21186_9615" x1="10.267" y1="32.1653" x2="3.795" y2="32.1653" gradientUnits="userSpaceOnUse">
<stop offset="0.188086" stop-color="#9A5B75" stop-opacity="0"/>
<stop offset="0.491634" stop-color="#792146" stop-opacity="0.72"/>
<stop offset="1" stop-color="#D75189" stop-opacity="0"/>
</linearGradient>
<linearGradient id="paint16_linear_21186_9615" x1="23.2215" y1="44.0179" x2="23.2215" y2="46.0949" gradientUnits="userSpaceOnUse">
<stop stop-color="#9A5B75" stop-opacity="0"/>
<stop offset="0.491634" stop-color="#792146" stop-opacity="0.72"/>
<stop offset="1" stop-color="#D75189" stop-opacity="0"/>
</linearGradient>
<linearGradient id="paint17_linear_21186_9615" x1="10.6228" y1="17.2031" x2="22.9687" y2="17.2031" gradientUnits="userSpaceOnUse">
<stop stop-color="#E98832"/>
<stop offset="1" stop-color="#FFC349"/>
</linearGradient>
<linearGradient id="paint18_linear_21186_9615" x1="36.627" y1="17.7187" x2="28.3124" y2="10.1953" gradientUnits="userSpaceOnUse">
<stop stop-color="#FFC74B"/>
<stop offset="1" stop-color="#FFC24C" stop-opacity="0"/>
</linearGradient>
<radialGradient id="paint19_radial_21186_9615" cx="0" cy="0" r="1" gradientUnits="userSpaceOnUse" gradientTransform="translate(23.6249 21.6218) rotate(90) scale(16.4269 19.7209)">
<stop offset="0.649169" stop-color="#EC6926"/>
<stop offset="0.682667" stop-color="#FED75B" stop-opacity="0.56"/>
<stop offset="0.689778" stop-color="#FED75B" stop-opacity="0.97"/>
<stop offset="0.701364" stop-color="#FED75B" stop-opacity="0.4"/>
<stop offset="0.72957" stop-color="#EC6926"/>
</radialGradient>
<linearGradient id="paint20_linear_21186_9615" x1="8.77592" y1="11.594" x2="34.2889" y2="15.9254" gradientUnits="userSpaceOnUse">
<stop stop-color="#EB8835"/>
<stop offset="1" stop-color="#FFC24C" stop-opacity="0"/>
</linearGradient>
<radialGradient id="paint21_radial_21186_9615" cx="0" cy="0" r="1" gradientUnits="userSpaceOnUse" gradientTransform="translate(36.0031 19.0808) rotate(-13.0431) scale(4.49948 1.20633)">
<stop stop-color="#EB8835"/>
<stop offset="1" stop-color="#FFC24C" stop-opacity="0"/>
</radialGradient>
<radialGradient id="paint22_radial_21186_9615" cx="0" cy="0" r="1" gradientUnits="userSpaceOnUse" gradientTransform="translate(20.7188 15.8978) scale(7.64062 6.93034)">
<stop offset="0.791411" stop-color="#FFEB6D" stop-opacity="0"/>
<stop offset="1" stop-color="#FFEB6D"/>
</radialGradient>
<linearGradient id="paint23_linear_21186_9615" x1="23.4485" y1="15.8978" x2="23.4485" y2="19.0161" gradientUnits="userSpaceOnUse">
<stop offset="0.325736" stop-color="#FFC543" stop-opacity="0"/>
<stop offset="0.550941" stop-color="#F79F37" stop-opacity="0.64"/>
<stop offset="0.749336" stop-color="#E98B1D"/>
</linearGradient>
<linearGradient id="paint24_linear_21186_9615" x1="20.8074" y1="15.1448" x2="19.1953" y2="13.6641" gradientUnits="userSpaceOnUse">
<stop offset="0.202206" stop-color="#FFC543" stop-opacity="0"/>
<stop offset="0.660642" stop-color="#E98B1D"/>
</linearGradient>
<linearGradient id="paint25_linear_21186_9615" x1="20.4525" y1="16.4915" x2="19.1953" y2="17.9543" gradientUnits="userSpaceOnUse">
<stop offset="0.0243533" stop-color="#FFC543" stop-opacity="0"/>
<stop offset="0.660642" stop-color="#E98B1D"/>
</linearGradient>
<linearGradient id="paint26_linear_21186_9615" x1="21.0619" y1="15.8978" x2="18.5688" y2="15.8978" gradientUnits="userSpaceOnUse">
<stop offset="0.258513" stop-color="#FFC543" stop-opacity="0"/>
<stop offset="0.551795" stop-color="#F79F37" stop-opacity="0.64"/>
<stop offset="0.749336" stop-color="#E98B1D"/>
</linearGradient>
<radialGradient id="paint27_radial_21186_9615" cx="0" cy="0" r="1" gradientUnits="userSpaceOnUse" gradientTransform="translate(32.8125 30.8437) rotate(131.779) scale(15.3375 15.7828)">
<stop stop-color="#FF56A6"/>
<stop offset="1" stop-color="#F02779"/>
</radialGradient>
<linearGradient id="paint28_linear_21186_9615" x1="25.0312" y1="45.6563" x2="25.0312" y2="39.8438" gradientUnits="userSpaceOnUse">
<stop stop-color="#E41863"/>
<stop offset="1" stop-color="#E41863" stop-opacity="0"/>
</linearGradient>
<radialGradient id="paint29_radial_21186_9615" cx="0" cy="0" r="1" gradientUnits="userSpaceOnUse" gradientTransform="translate(14.625 36.6562) rotate(15.4456) scale(22.8811 23.4341)">
<stop offset="0.903867" stop-color="#F55178" stop-opacity="0"/>
<stop offset="1" stop-color="#F55178"/>
</radialGradient>
<radialGradient id="paint30_radial_21186_9615" cx="0" cy="0" r="1" gradientUnits="userSpaceOnUse" gradientTransform="translate(24.8386 38.1386) rotate(165.709) scale(14.3091 13.4689)">
<stop offset="0.952048" stop-color="#F55178" stop-opacity="0"/>
<stop offset="1" stop-color="#F55178"/>
</radialGradient>
<radialGradient id="paint31_radial_21186_9615" cx="0" cy="0" r="1" gradientUnits="userSpaceOnUse" gradientTransform="translate(14.4119 45.5119) rotate(127.304) scale(0.963708 9.89952)">
<stop offset="0.071105" stop-color="#F55178"/>
<stop offset="0.552096" stop-color="#F55178" stop-opacity="0"/>
</radialGradient>
<radialGradient id="paint32_radial_21186_9615" cx="0" cy="0" r="1" gradientUnits="userSpaceOnUse" gradientTransform="translate(32.3906 26.25) rotate(127.129) scale(14.522 27.7013)">
<stop offset="0.522193" stop-color="#CB184D"/>
<stop offset="1" stop-color="#AA2743"/>
</radialGradient>
<radialGradient id="paint33_radial_21186_9615" cx="0" cy="0" r="1" gradientUnits="userSpaceOnUse" gradientTransform="translate(11.2755 37.7346) rotate(-90) scale(2.46094 1.56391)">
<stop stop-color="#FFB54E"/>
<stop offset="1" stop-color="#FFAF4D"/>
</radialGradient>
<linearGradient id="paint34_linear_21186_9615" x1="13.125" y1="36.3986" x2="11.5547" y2="36.6761" gradientUnits="userSpaceOnUse">
<stop offset="0.249538" stop-color="#FCD676"/>
<stop offset="0.665024" stop-color="#FFB04E" stop-opacity="0"/>
</linearGradient>
</defs>
</svg>
