<svg width="48" height="48" viewBox="0 0 48 48" fill="none" xmlns="http://www.w3.org/2000/svg">
<path d="M13.1031 3.21533C12.3237 3.21533 11.6919 3.84715 11.6919 4.62653V13.7175C11.6919 14.4081 11.7873 15.0953 11.9753 15.7598L14.4269 24.4226C14.6182 25.0988 14.5661 25.8208 14.2796 26.4625L10.8597 34.1232C10.4277 35.0909 10.7295 36.2289 11.5843 36.8553L21.1186 43.842C22.834 45.0991 25.1663 45.0991 26.8817 43.842L36.416 36.8553C37.2708 36.2289 37.5726 35.0909 37.1406 34.1232L33.7206 26.4625C33.4342 25.8208 33.3821 25.0988 33.5734 24.4226L36.025 15.7598C36.213 15.0953 36.3084 14.4081 36.3084 13.7175V4.62653C36.3084 3.84715 35.6766 3.21533 34.8972 3.21533C34.1178 3.21533 33.486 3.84715 33.486 4.62653V7.51409C33.486 8.5082 32.6801 9.31409 31.686 9.31409H16.3143C15.3202 9.31409 14.5143 8.5082 14.5143 7.51409V4.62653C14.5143 3.84715 13.8825 3.21533 13.1031 3.21533Z" fill="url(#paint0_radial_21186_27657)"/>
<path d="M13.1031 3.21533C12.3237 3.21533 11.6919 3.84715 11.6919 4.62653V13.7175C11.6919 14.4081 11.7873 15.0953 11.9753 15.7598L14.4269 24.4226C14.6182 25.0988 14.5661 25.8208 14.2796 26.4625L10.8597 34.1232C10.4277 35.0909 10.7295 36.2289 11.5843 36.8553L21.1186 43.842C22.834 45.0991 25.1663 45.0991 26.8817 43.842L36.416 36.8553C37.2708 36.2289 37.5726 35.0909 37.1406 34.1232L33.7206 26.4625C33.4342 25.8208 33.3821 25.0988 33.5734 24.4226L36.025 15.7598C36.213 15.0953 36.3084 14.4081 36.3084 13.7175V4.62653C36.3084 3.84715 35.6766 3.21533 34.8972 3.21533C34.1178 3.21533 33.486 3.84715 33.486 4.62653V7.51409C33.486 8.5082 32.6801 9.31409 31.686 9.31409H16.3143C15.3202 9.31409 14.5143 8.5082 14.5143 7.51409V4.62653C14.5143 3.84715 13.8825 3.21533 13.1031 3.21533Z" fill="url(#paint1_radial_21186_27657)"/>
<path d="M13.1031 3.21533C12.3237 3.21533 11.6919 3.84715 11.6919 4.62653V13.7175C11.6919 14.4081 11.7873 15.0953 11.9753 15.7598L14.4269 24.4226C14.6182 25.0988 14.5661 25.8208 14.2796 26.4625L10.8597 34.1232C10.4277 35.0909 10.7295 36.2289 11.5843 36.8553L21.1186 43.842C22.834 45.0991 25.1663 45.0991 26.8817 43.842L36.416 36.8553C37.2708 36.2289 37.5726 35.0909 37.1406 34.1232L33.7206 26.4625C33.4342 25.8208 33.3821 25.0988 33.5734 24.4226L36.025 15.7598C36.213 15.0953 36.3084 14.4081 36.3084 13.7175V4.62653C36.3084 3.84715 35.6766 3.21533 34.8972 3.21533C34.1178 3.21533 33.486 3.84715 33.486 4.62653V7.51409C33.486 8.5082 32.6801 9.31409 31.686 9.31409H16.3143C15.3202 9.31409 14.5143 8.5082 14.5143 7.51409V4.62653C14.5143 3.84715 13.8825 3.21533 13.1031 3.21533Z" fill="url(#paint2_radial_21186_27657)" fill-opacity="0.8"/>
<path d="M13.1031 3.21533C12.3237 3.21533 11.6919 3.84715 11.6919 4.62653V13.7175C11.6919 14.4081 11.7873 15.0953 11.9753 15.7598L14.4269 24.4226C14.6182 25.0988 14.5661 25.8208 14.2796 26.4625L10.8597 34.1232C10.4277 35.0909 10.7295 36.2289 11.5843 36.8553L21.1186 43.842C22.834 45.0991 25.1663 45.0991 26.8817 43.842L36.416 36.8553C37.2708 36.2289 37.5726 35.0909 37.1406 34.1232L33.7206 26.4625C33.4342 25.8208 33.3821 25.0988 33.5734 24.4226L36.025 15.7598C36.213 15.0953 36.3084 14.4081 36.3084 13.7175V4.62653C36.3084 3.84715 35.6766 3.21533 34.8972 3.21533C34.1178 3.21533 33.486 3.84715 33.486 4.62653V7.51409C33.486 8.5082 32.6801 9.31409 31.686 9.31409H16.3143C15.3202 9.31409 14.5143 8.5082 14.5143 7.51409V4.62653C14.5143 3.84715 13.8825 3.21533 13.1031 3.21533Z" fill="url(#paint3_radial_21186_27657)" fill-opacity="0.8"/>
<path d="M13.1031 3.21533C12.3237 3.21533 11.6919 3.84715 11.6919 4.62653V13.7175C11.6919 14.4081 11.7873 15.0953 11.9753 15.7598L14.4269 24.4226C14.6182 25.0988 14.5661 25.8208 14.2796 26.4625L10.8597 34.1232C10.4277 35.0909 10.7295 36.2289 11.5843 36.8553L21.1186 43.842C22.834 45.0991 25.1663 45.0991 26.8817 43.842L36.416 36.8553C37.2708 36.2289 37.5726 35.0909 37.1406 34.1232L33.7206 26.4625C33.4342 25.8208 33.3821 25.0988 33.5734 24.4226L36.025 15.7598C36.213 15.0953 36.3084 14.4081 36.3084 13.7175V4.62653C36.3084 3.84715 35.6766 3.21533 34.8972 3.21533C34.1178 3.21533 33.486 3.84715 33.486 4.62653V7.51409C33.486 8.5082 32.6801 9.31409 31.686 9.31409H16.3143C15.3202 9.31409 14.5143 8.5082 14.5143 7.51409V4.62653C14.5143 3.84715 13.8825 3.21533 13.1031 3.21533Z" fill="url(#paint4_radial_21186_27657)" fill-opacity="0.8"/>
<path d="M13.1031 3.21533C12.3237 3.21533 11.6919 3.84715 11.6919 4.62653V13.7175C11.6919 14.4081 11.7873 15.0953 11.9753 15.7598L14.4269 24.4226C14.6182 25.0988 14.5661 25.8208 14.2796 26.4625L10.8597 34.1232C10.4277 35.0909 10.7295 36.2289 11.5843 36.8553L21.1186 43.842C22.834 45.0991 25.1663 45.0991 26.8817 43.842L36.416 36.8553C37.2708 36.2289 37.5726 35.0909 37.1406 34.1232L33.7206 26.4625C33.4342 25.8208 33.3821 25.0988 33.5734 24.4226L36.025 15.7598C36.213 15.0953 36.3084 14.4081 36.3084 13.7175V4.62653C36.3084 3.84715 35.6766 3.21533 34.8972 3.21533C34.1178 3.21533 33.486 3.84715 33.486 4.62653V7.51409C33.486 8.5082 32.6801 9.31409 31.686 9.31409H16.3143C15.3202 9.31409 14.5143 8.5082 14.5143 7.51409V4.62653C14.5143 3.84715 13.8825 3.21533 13.1031 3.21533Z" fill="url(#paint5_linear_21186_27657)"/>
<path d="M13.1031 3.21533C12.3237 3.21533 11.6919 3.84715 11.6919 4.62653V13.7175C11.6919 14.4081 11.7873 15.0953 11.9753 15.7598L14.4269 24.4226C14.6182 25.0988 14.5661 25.8208 14.2796 26.4625L10.8597 34.1232C10.4277 35.0909 10.7295 36.2289 11.5843 36.8553L21.1186 43.842C22.834 45.0991 25.1663 45.0991 26.8817 43.842L36.416 36.8553C37.2708 36.2289 37.5726 35.0909 37.1406 34.1232L33.7206 26.4625C33.4342 25.8208 33.3821 25.0988 33.5734 24.4226L36.025 15.7598C36.213 15.0953 36.3084 14.4081 36.3084 13.7175V4.62653C36.3084 3.84715 35.6766 3.21533 34.8972 3.21533C34.1178 3.21533 33.486 3.84715 33.486 4.62653V7.51409C33.486 8.5082 32.6801 9.31409 31.686 9.31409H16.3143C15.3202 9.31409 14.5143 8.5082 14.5143 7.51409V4.62653C14.5143 3.84715 13.8825 3.21533 13.1031 3.21533Z" fill="url(#paint6_linear_21186_27657)"/>
<path d="M13.1031 3.21533C12.3237 3.21533 11.6919 3.84715 11.6919 4.62653V13.7175C11.6919 14.4081 11.7873 15.0953 11.9753 15.7598L14.4269 24.4226C14.6182 25.0988 14.5661 25.8208 14.2796 26.4625L10.8597 34.1232C10.4277 35.0909 10.7295 36.2289 11.5843 36.8553L21.1186 43.842C22.834 45.0991 25.1663 45.0991 26.8817 43.842L36.416 36.8553C37.2708 36.2289 37.5726 35.0909 37.1406 34.1232L33.7206 26.4625C33.4342 25.8208 33.3821 25.0988 33.5734 24.4226L36.025 15.7598C36.213 15.0953 36.3084 14.4081 36.3084 13.7175V4.62653C36.3084 3.84715 35.6766 3.21533 34.8972 3.21533C34.1178 3.21533 33.486 3.84715 33.486 4.62653V7.51409C33.486 8.5082 32.6801 9.31409 31.686 9.31409H16.3143C15.3202 9.31409 14.5143 8.5082 14.5143 7.51409V4.62653C14.5143 3.84715 13.8825 3.21533 13.1031 3.21533Z" fill="url(#paint7_radial_21186_27657)" fill-opacity="0.8"/>
<path d="M13.1031 3.21533C12.3237 3.21533 11.6919 3.84715 11.6919 4.62653V13.7175C11.6919 14.4081 11.7873 15.0953 11.9753 15.7598L14.4269 24.4226C14.6182 25.0988 14.5661 25.8208 14.2796 26.4625L10.8597 34.1232C10.4277 35.0909 10.7295 36.2289 11.5843 36.8553L21.1186 43.842C22.834 45.0991 25.1663 45.0991 26.8817 43.842L36.416 36.8553C37.2708 36.2289 37.5726 35.0909 37.1406 34.1232L33.7206 26.4625C33.4342 25.8208 33.3821 25.0988 33.5734 24.4226L36.025 15.7598C36.213 15.0953 36.3084 14.4081 36.3084 13.7175V4.62653C36.3084 3.84715 35.6766 3.21533 34.8972 3.21533C34.1178 3.21533 33.486 3.84715 33.486 4.62653V7.51409C33.486 8.5082 32.6801 9.31409 31.686 9.31409H16.3143C15.3202 9.31409 14.5143 8.5082 14.5143 7.51409V4.62653C14.5143 3.84715 13.8825 3.21533 13.1031 3.21533Z" fill="url(#paint8_radial_21186_27657)"/>
<path d="M13.1031 3.21533C12.3237 3.21533 11.6919 3.84715 11.6919 4.62653V13.7175C11.6919 14.4081 11.7873 15.0953 11.9753 15.7598L14.4269 24.4226C14.6182 25.0988 14.5661 25.8208 14.2796 26.4625L10.8597 34.1232C10.4277 35.0909 10.7295 36.2289 11.5843 36.8553L21.1186 43.842C22.834 45.0991 25.1663 45.0991 26.8817 43.842L36.416 36.8553C37.2708 36.2289 37.5726 35.0909 37.1406 34.1232L33.7206 26.4625C33.4342 25.8208 33.3821 25.0988 33.5734 24.4226L36.025 15.7598C36.213 15.0953 36.3084 14.4081 36.3084 13.7175V4.62653C36.3084 3.84715 35.6766 3.21533 34.8972 3.21533C34.1178 3.21533 33.486 3.84715 33.486 4.62653V7.51409C33.486 8.5082 32.6801 9.31409 31.686 9.31409H16.3143C15.3202 9.31409 14.5143 8.5082 14.5143 7.51409V4.62653C14.5143 3.84715 13.8825 3.21533 13.1031 3.21533Z" fill="url(#paint9_radial_21186_27657)" fill-opacity="0.8"/>
<path d="M13.1031 3.21533C12.3237 3.21533 11.6919 3.84715 11.6919 4.62653V13.7175C11.6919 14.4081 11.7873 15.0953 11.9753 15.7598L14.4269 24.4226C14.6182 25.0988 14.5661 25.8208 14.2796 26.4625L10.8597 34.1232C10.4277 35.0909 10.7295 36.2289 11.5843 36.8553L21.1186 43.842C22.834 45.0991 25.1663 45.0991 26.8817 43.842L36.416 36.8553C37.2708 36.2289 37.5726 35.0909 37.1406 34.1232L33.7206 26.4625C33.4342 25.8208 33.3821 25.0988 33.5734 24.4226L36.025 15.7598C36.213 15.0953 36.3084 14.4081 36.3084 13.7175V4.62653C36.3084 3.84715 35.6766 3.21533 34.8972 3.21533C34.1178 3.21533 33.486 3.84715 33.486 4.62653V7.51409C33.486 8.5082 32.6801 9.31409 31.686 9.31409H16.3143C15.3202 9.31409 14.5143 8.5082 14.5143 7.51409V4.62653C14.5143 3.84715 13.8825 3.21533 13.1031 3.21533Z" fill="url(#paint10_radial_21186_27657)"/>
<path d="M13.1031 3.21533C12.3237 3.21533 11.6919 3.84715 11.6919 4.62653V13.7175C11.6919 14.4081 11.7873 15.0953 11.9753 15.7598L14.4269 24.4226C14.6182 25.0988 14.5661 25.8208 14.2796 26.4625L10.8597 34.1232C10.4277 35.0909 10.7295 36.2289 11.5843 36.8553L21.1186 43.842C22.834 45.0991 25.1663 45.0991 26.8817 43.842L36.416 36.8553C37.2708 36.2289 37.5726 35.0909 37.1406 34.1232L33.7206 26.4625C33.4342 25.8208 33.3821 25.0988 33.5734 24.4226L36.025 15.7598C36.213 15.0953 36.3084 14.4081 36.3084 13.7175V4.62653C36.3084 3.84715 35.6766 3.21533 34.8972 3.21533C34.1178 3.21533 33.486 3.84715 33.486 4.62653V7.51409C33.486 8.5082 32.6801 9.31409 31.686 9.31409H16.3143C15.3202 9.31409 14.5143 8.5082 14.5143 7.51409V4.62653C14.5143 3.84715 13.8825 3.21533 13.1031 3.21533Z" fill="url(#paint11_radial_21186_27657)"/>
<path d="M13.1031 3.21533C12.3237 3.21533 11.6919 3.84715 11.6919 4.62653V13.7175C11.6919 14.4081 11.7873 15.0953 11.9753 15.7598L14.4269 24.4226C14.6182 25.0988 14.5661 25.8208 14.2796 26.4625L10.8597 34.1232C10.4277 35.0909 10.7295 36.2289 11.5843 36.8553L21.1186 43.842C22.834 45.0991 25.1663 45.0991 26.8817 43.842L36.416 36.8553C37.2708 36.2289 37.5726 35.0909 37.1406 34.1232L33.7206 26.4625C33.4342 25.8208 33.3821 25.0988 33.5734 24.4226L36.025 15.7598C36.213 15.0953 36.3084 14.4081 36.3084 13.7175V4.62653C36.3084 3.84715 35.6766 3.21533 34.8972 3.21533C34.1178 3.21533 33.486 3.84715 33.486 4.62653V7.51409C33.486 8.5082 32.6801 9.31409 31.686 9.31409H16.3143C15.3202 9.31409 14.5143 8.5082 14.5143 7.51409V4.62653C14.5143 3.84715 13.8825 3.21533 13.1031 3.21533Z" fill="url(#paint12_radial_21186_27657)"/>
<path d="M13.1031 3.21533C12.3237 3.21533 11.6919 3.84715 11.6919 4.62653V13.7175C11.6919 14.4081 11.7873 15.0953 11.9753 15.7598L14.4269 24.4226C14.6182 25.0988 14.5661 25.8208 14.2796 26.4625L10.8597 34.1232C10.4277 35.0909 10.7295 36.2289 11.5843 36.8553L21.1186 43.842C22.834 45.0991 25.1663 45.0991 26.8817 43.842L36.416 36.8553C37.2708 36.2289 37.5726 35.0909 37.1406 34.1232L33.7206 26.4625C33.4342 25.8208 33.3821 25.0988 33.5734 24.4226L36.025 15.7598C36.213 15.0953 36.3084 14.4081 36.3084 13.7175V4.62653C36.3084 3.84715 35.6766 3.21533 34.8972 3.21533C34.1178 3.21533 33.486 3.84715 33.486 4.62653V7.51409C33.486 8.5082 32.6801 9.31409 31.686 9.31409H16.3143C15.3202 9.31409 14.5143 8.5082 14.5143 7.51409V4.62653C14.5143 3.84715 13.8825 3.21533 13.1031 3.21533Z" fill="url(#paint13_radial_21186_27657)"/>
<path d="M13.1031 3.21533C12.3237 3.21533 11.6919 3.84715 11.6919 4.62653V13.7175C11.6919 14.4081 11.7873 15.0953 11.9753 15.7598L14.4269 24.4226C14.6182 25.0988 14.5661 25.8208 14.2796 26.4625L10.8597 34.1232C10.4277 35.0909 10.7295 36.2289 11.5843 36.8553L21.1186 43.842C22.834 45.0991 25.1663 45.0991 26.8817 43.842L36.416 36.8553C37.2708 36.2289 37.5726 35.0909 37.1406 34.1232L33.7206 26.4625C33.4342 25.8208 33.3821 25.0988 33.5734 24.4226L36.025 15.7598C36.213 15.0953 36.3084 14.4081 36.3084 13.7175V4.62653C36.3084 3.84715 35.6766 3.21533 34.8972 3.21533C34.1178 3.21533 33.486 3.84715 33.486 4.62653V7.51409C33.486 8.5082 32.6801 9.31409 31.686 9.31409H16.3143C15.3202 9.31409 14.5143 8.5082 14.5143 7.51409V4.62653C14.5143 3.84715 13.8825 3.21533 13.1031 3.21533Z" fill="url(#paint14_linear_21186_27657)"/>
<path d="M13.1031 3.21533C12.3237 3.21533 11.6919 3.84715 11.6919 4.62653V13.7175C11.6919 14.4081 11.7873 15.0953 11.9753 15.7598L14.4269 24.4226C14.6182 25.0988 14.5661 25.8208 14.2796 26.4625L10.8597 34.1232C10.4277 35.0909 10.7295 36.2289 11.5843 36.8553L21.1186 43.842C22.834 45.0991 25.1663 45.0991 26.8817 43.842L36.416 36.8553C37.2708 36.2289 37.5726 35.0909 37.1406 34.1232L33.7206 26.4625C33.4342 25.8208 33.3821 25.0988 33.5734 24.4226L36.025 15.7598C36.213 15.0953 36.3084 14.4081 36.3084 13.7175V4.62653C36.3084 3.84715 35.6766 3.21533 34.8972 3.21533C34.1178 3.21533 33.486 3.84715 33.486 4.62653V7.51409C33.486 8.5082 32.6801 9.31409 31.686 9.31409H16.3143C15.3202 9.31409 14.5143 8.5082 14.5143 7.51409V4.62653C14.5143 3.84715 13.8825 3.21533 13.1031 3.21533Z" fill="url(#paint15_radial_21186_27657)"/>
<path d="M34.9221 19.6567H13.0781L13.9337 22.6802H34.0665L34.9221 19.6567Z" fill="url(#paint16_radial_21186_27657)"/>
<path d="M34.9221 19.6567H13.0781L13.9337 22.6802H34.0665L34.9221 19.6567Z" fill="url(#paint17_linear_21186_27657)"/>
<path d="M33.7279 23.8755H14.2717L14.4265 24.4226C14.6179 25.0988 14.5658 25.8208 14.2793 26.4625L14.0845 26.8989H33.9151L33.7203 26.4625C33.4338 25.8208 33.3817 25.0988 33.5731 24.4226L33.7279 23.8755Z" fill="url(#paint18_radial_21186_27657)"/>
<path d="M33.7279 23.8755H14.2717L14.4265 24.4226C14.6179 25.0988 14.5658 25.8208 14.2793 26.4625L14.0845 26.8989H33.9151L33.7203 26.4625C33.4338 25.8208 33.3817 25.0988 33.5731 24.4226L33.7279 23.8755Z" fill="url(#paint19_radial_21186_27657)"/>
<defs>
<radialGradient id="paint0_radial_21186_27657" cx="0" cy="0" r="1" gradientUnits="userSpaceOnUse" gradientTransform="translate(34.131 25.4224) rotate(-176.322) scale(22.1707 49.9628)">
<stop offset="0.145019" stop-color="#FF75D2"/>
<stop offset="1" stop-color="#E755AD"/>
</radialGradient>
<radialGradient id="paint1_radial_21186_27657" cx="0" cy="0" r="1" gradientUnits="userSpaceOnUse" gradientTransform="translate(35.4904 3.71924) rotate(90) scale(7.6875 1.59375)">
<stop stop-color="#FF8FDF"/>
<stop offset="1" stop-color="#FF8FDF" stop-opacity="0"/>
</radialGradient>
<radialGradient id="paint2_radial_21186_27657" cx="0" cy="0" r="1" gradientUnits="userSpaceOnUse" gradientTransform="translate(31.3473 16.1965) rotate(106.795) scale(8.1512 4.66039)">
<stop offset="0.0367465" stop-color="#FF8FDF"/>
<stop offset="1" stop-color="#FF8FDF" stop-opacity="0"/>
</radialGradient>
<radialGradient id="paint3_radial_21186_27657" cx="0" cy="0" r="1" gradientUnits="userSpaceOnUse" gradientTransform="translate(30.062 28.8909) rotate(66.0812) scale(8.13194 3.40086)">
<stop stop-color="#FF8FDF"/>
<stop offset="1" stop-color="#FF8FDF" stop-opacity="0"/>
</radialGradient>
<radialGradient id="paint4_radial_21186_27657" cx="0" cy="0" r="1" gradientUnits="userSpaceOnUse" gradientTransform="translate(36.1594 31.1358) rotate(-114.48) scale(9.53582 1.52232)">
<stop offset="0.00526198" stop-color="#E45ABC"/>
<stop offset="1" stop-color="#E65CBD" stop-opacity="0"/>
</radialGradient>
<linearGradient id="paint5_linear_21186_27657" x1="32.7448" y1="44.7848" x2="27.5426" y2="37.8551" gradientUnits="userSpaceOnUse">
<stop offset="0.519879" stop-color="#E359BB"/>
<stop offset="0.768813" stop-color="#FA6FCB" stop-opacity="0"/>
</linearGradient>
<linearGradient id="paint6_linear_21186_27657" x1="14.9424" y1="43.8654" x2="20.1474" y2="36.54" gradientUnits="userSpaceOnUse">
<stop offset="0.416559" stop-color="#C8599F"/>
<stop offset="0.768813" stop-color="#F365BF" stop-opacity="0"/>
</linearGradient>
<radialGradient id="paint7_radial_21186_27657" cx="0" cy="0" r="1" gradientUnits="userSpaceOnUse" gradientTransform="translate(13.6544 4.40062) rotate(90.8814) scale(6.19214 0.961999)">
<stop stop-color="#FF8FDF" stop-opacity="0.81"/>
<stop offset="0.866692" stop-color="#FF8FDF" stop-opacity="0"/>
</radialGradient>
<radialGradient id="paint8_radial_21186_27657" cx="0" cy="0" r="1" gradientUnits="userSpaceOnUse" gradientTransform="translate(13.5473 1.95394) rotate(110.419) scale(4.29707 4.83607)">
<stop offset="0.413408" stop-color="#E958B0"/>
<stop offset="0.539014" stop-color="#E958B0" stop-opacity="0"/>
</radialGradient>
<radialGradient id="paint9_radial_21186_27657" cx="0" cy="0" r="1" gradientUnits="userSpaceOnUse" gradientTransform="translate(16.4535 8.44734) rotate(89.0978) scale(3.0496 3.86517)">
<stop offset="0.503595" stop-color="#FF8FDF" stop-opacity="0"/>
<stop offset="0.666329" stop-color="#FF8FDF" stop-opacity="0.54"/>
<stop offset="0.917975" stop-color="#EB5BB3" stop-opacity="0"/>
</radialGradient>
<radialGradient id="paint10_radial_21186_27657" cx="0" cy="0" r="1" gradientUnits="userSpaceOnUse" gradientTransform="translate(14.9898 6.10707) rotate(90.8214) scale(5.98168 1.95352)">
<stop offset="0.244188" stop-color="#E356B2"/>
<stop offset="0.580063" stop-color="#EA59B1" stop-opacity="0.85"/>
<stop offset="0.888038" stop-color="#EA59B1" stop-opacity="0"/>
</radialGradient>
<radialGradient id="paint11_radial_21186_27657" cx="0" cy="0" r="1" gradientUnits="userSpaceOnUse" gradientTransform="translate(18.509 9.18653) rotate(0.349361) scale(5.18264 1.17986)">
<stop offset="0.244188" stop-color="#E356B2"/>
<stop offset="0.580063" stop-color="#EA59B1" stop-opacity="0.85"/>
<stop offset="0.888038" stop-color="#EA59B1" stop-opacity="0"/>
</radialGradient>
<radialGradient id="paint12_radial_21186_27657" cx="0" cy="0" r="1" gradientUnits="userSpaceOnUse" gradientTransform="translate(17.8052 10.3816) rotate(32.3474) scale(3.63797 3.39303)">
<stop offset="0.286736" stop-color="#EC5CB5"/>
<stop offset="0.827254" stop-color="#EA59B1" stop-opacity="0"/>
</radialGradient>
<radialGradient id="paint13_radial_21186_27657" cx="0" cy="0" r="1" gradientUnits="userSpaceOnUse" gradientTransform="translate(35.2502 2.95722) rotate(96.9942) scale(2.41101 8.35625)">
<stop offset="0.152754" stop-color="#E958B0" stop-opacity="0.87"/>
<stop offset="1" stop-color="#FF89DC" stop-opacity="0"/>
</radialGradient>
<linearGradient id="paint14_linear_21186_27657" x1="40.7027" y1="7.36052" x2="32.5898" y2="7.73547" gradientUnits="userSpaceOnUse">
<stop offset="0.416559" stop-color="#C8599F"/>
<stop offset="0.768813" stop-color="#F365BF" stop-opacity="0"/>
</linearGradient>
<radialGradient id="paint15_radial_21186_27657" cx="0" cy="0" r="1" gradientUnits="userSpaceOnUse" gradientTransform="translate(34.796 19.8346) rotate(-72.4708) scale(8.43425 1.0206)">
<stop stop-color="#E45ABC"/>
<stop offset="1" stop-color="#E65CBD" stop-opacity="0"/>
</radialGradient>
<radialGradient id="paint16_radial_21186_27657" cx="0" cy="0" r="1" gradientUnits="userSpaceOnUse" gradientTransform="translate(29.8185 22.6802) rotate(-90) scale(5.27344 10.3125)">
<stop stop-color="#9074CE"/>
<stop offset="1" stop-color="#7B5EB8"/>
</radialGradient>
<linearGradient id="paint17_linear_21186_27657" x1="13.8341" y1="22.0005" x2="18.2403" y2="21.1685" gradientUnits="userSpaceOnUse">
<stop stop-color="#8C7AB8"/>
<stop offset="1" stop-color="#775AB3" stop-opacity="0"/>
</linearGradient>
<radialGradient id="paint18_radial_21186_27657" cx="0" cy="0" r="1" gradientUnits="userSpaceOnUse" gradientTransform="translate(32.49 27.4849) rotate(-107.622) scale(4.18056 4.61312)">
<stop stop-color="#AB93E2"/>
<stop offset="1" stop-color="#8466C2"/>
</radialGradient>
<radialGradient id="paint19_radial_21186_27657" cx="0" cy="0" r="1" gradientUnits="userSpaceOnUse" gradientTransform="translate(14.0845 25.3872) scale(3.03053 2.96368)">
<stop stop-color="#9283BB"/>
<stop offset="1" stop-color="#775DB0" stop-opacity="0"/>
</radialGradient>
</defs>
</svg>
