<svg width="48" height="48" viewBox="0 0 48 48" fill="none" xmlns="http://www.w3.org/2000/svg">
<path d="M22.1484 22.1719C22.1484 21.3434 22.82 20.6719 23.6484 20.6719H43.1953C44.0237 20.6719 44.6953 21.3434 44.6953 22.1719V43.3594C44.6953 44.1878 44.0237 44.8594 43.1953 44.8594H23.6484C22.82 44.8594 22.1484 44.1878 22.1484 43.3594V22.1719Z" fill="url(#paint0_linear_21186_32542)"/>
<path d="M22.1484 22.1719C22.1484 21.3434 22.82 20.6719 23.6484 20.6719H43.1953C44.0237 20.6719 44.6953 21.3434 44.6953 22.1719V43.3594C44.6953 44.1878 44.0237 44.8594 43.1953 44.8594H23.6484C22.82 44.8594 22.1484 44.1878 22.1484 43.3594V22.1719Z" fill="url(#paint1_radial_21186_32542)"/>
<path d="M22.1484 22.1719C22.1484 21.3434 22.82 20.6719 23.6484 20.6719H43.1953C44.0237 20.6719 44.6953 21.3434 44.6953 22.1719V43.3594C44.6953 44.1878 44.0237 44.8594 43.1953 44.8594H23.6484C22.82 44.8594 22.1484 44.1878 22.1484 43.3594V22.1719Z" fill="url(#paint2_linear_21186_32542)"/>
<path d="M22.1484 22.1719C22.1484 21.3434 22.82 20.6719 23.6484 20.6719H43.1953C44.0237 20.6719 44.6953 21.3434 44.6953 22.1719V43.3594C44.6953 44.1878 44.0237 44.8594 43.1953 44.8594H23.6484C22.82 44.8594 22.1484 44.1878 22.1484 43.3594V22.1719Z" fill="url(#paint3_linear_21186_32542)"/>
<path d="M22.1484 22.1719C22.1484 21.3434 22.82 20.6719 23.6484 20.6719H43.1953C44.0237 20.6719 44.6953 21.3434 44.6953 22.1719V43.3594C44.6953 44.1878 44.0237 44.8594 43.1953 44.8594H23.6484C22.82 44.8594 22.1484 44.1878 22.1484 43.3594V22.1719Z" fill="url(#paint4_linear_21186_32542)"/>
<path fill-rule="evenodd" clip-rule="evenodd" d="M41.039 27.4219C41.039 31.932 37.5745 35.6719 33.2812 35.6719C28.9879 35.6719 25.5234 31.932 25.5234 27.4219L25.5234 24.2109C25.5234 23.7967 25.8592 23.4609 26.2734 23.4609C26.6877 23.4609 27.0234 23.7967 27.0234 24.2109L27.0234 27.4219C27.0234 31.196 29.9058 34.1719 33.2812 34.1719C36.6566 34.1719 39.539 31.196 39.539 27.4219L39.5391 24.2109C39.5391 23.7967 39.8749 23.4609 40.2891 23.4609C40.7033 23.4609 41.0391 23.7967 41.0391 24.2109L41.039 27.4219Z" fill="#E45A3B"/>
<path fill-rule="evenodd" clip-rule="evenodd" d="M41.039 27.4219C41.039 31.932 37.5745 35.6719 33.2812 35.6719C28.9879 35.6719 25.5234 31.932 25.5234 27.4219L25.5234 24.2109C25.5234 23.7967 25.8592 23.4609 26.2734 23.4609C26.6877 23.4609 27.0234 23.7967 27.0234 24.2109L27.0234 27.4219C27.0234 31.196 29.9058 34.1719 33.2812 34.1719C36.6566 34.1719 39.539 31.196 39.539 27.4219L39.5391 24.2109C39.5391 23.7967 39.8749 23.4609 40.2891 23.4609C40.7033 23.4609 41.0391 23.7967 41.0391 24.2109L41.039 27.4219Z" fill="url(#paint5_radial_21186_32542)" fill-opacity="0.5"/>
<path fill-rule="evenodd" clip-rule="evenodd" d="M41.039 27.4219C41.039 31.932 37.5745 35.6719 33.2812 35.6719C28.9879 35.6719 25.5234 31.932 25.5234 27.4219L25.5234 24.2109C25.5234 23.7967 25.8592 23.4609 26.2734 23.4609C26.6877 23.4609 27.0234 23.7967 27.0234 24.2109L27.0234 27.4219C27.0234 31.196 29.9058 34.1719 33.2812 34.1719C36.6566 34.1719 39.539 31.196 39.539 27.4219L39.5391 24.2109C39.5391 23.7967 39.8749 23.4609 40.2891 23.4609C40.7033 23.4609 41.0391 23.7967 41.0391 24.2109L41.039 27.4219Z" fill="url(#paint6_radial_21186_32542)"/>
<path fill-rule="evenodd" clip-rule="evenodd" d="M41.039 27.4219C41.039 31.932 37.5745 35.6719 33.2812 35.6719C28.9879 35.6719 25.5234 31.932 25.5234 27.4219L25.5234 24.2109C25.5234 23.7967 25.8592 23.4609 26.2734 23.4609C26.6877 23.4609 27.0234 23.7967 27.0234 24.2109L27.0234 27.4219C27.0234 31.196 29.9058 34.1719 33.2812 34.1719C36.6566 34.1719 39.539 31.196 39.539 27.4219L39.5391 24.2109C39.5391 23.7967 39.8749 23.4609 40.2891 23.4609C40.7033 23.4609 41.0391 23.7967 41.0391 24.2109L41.039 27.4219Z" fill="url(#paint7_linear_21186_32542)" fill-opacity="0.3"/>
<path fill-rule="evenodd" clip-rule="evenodd" d="M41.039 27.4219C41.039 31.932 37.5745 35.6719 33.2812 35.6719C28.9879 35.6719 25.5234 31.932 25.5234 27.4219L25.5234 24.2109C25.5234 23.7967 25.8592 23.4609 26.2734 23.4609C26.6877 23.4609 27.0234 23.7967 27.0234 24.2109L27.0234 27.4219C27.0234 31.196 29.9058 34.1719 33.2812 34.1719C36.6566 34.1719 39.539 31.196 39.539 27.4219L39.5391 24.2109C39.5391 23.7967 39.8749 23.4609 40.2891 23.4609C40.7033 23.4609 41.0391 23.7967 41.0391 24.2109L41.039 27.4219Z" fill="url(#paint8_radial_21186_32542)"/>
<path fill-rule="evenodd" clip-rule="evenodd" d="M41.039 27.4219C41.039 31.932 37.5745 35.6719 33.2812 35.6719C28.9879 35.6719 25.5234 31.932 25.5234 27.4219L25.5234 24.2109C25.5234 23.7967 25.8592 23.4609 26.2734 23.4609C26.6877 23.4609 27.0234 23.7967 27.0234 24.2109L27.0234 27.4219C27.0234 31.196 29.9058 34.1719 33.2812 34.1719C36.6566 34.1719 39.539 31.196 39.539 27.4219L39.5391 24.2109C39.5391 23.7967 39.8749 23.4609 40.2891 23.4609C40.7033 23.4609 41.0391 23.7967 41.0391 24.2109L41.039 27.4219Z" fill="url(#paint9_radial_21186_32542)"/>
<path fill-rule="evenodd" clip-rule="evenodd" d="M41.039 27.4219C41.039 31.932 37.5745 35.6719 33.2812 35.6719C28.9879 35.6719 25.5234 31.932 25.5234 27.4219L25.5234 24.2109C25.5234 23.7967 25.8592 23.4609 26.2734 23.4609C26.6877 23.4609 27.0234 23.7967 27.0234 24.2109L27.0234 27.4219C27.0234 31.196 29.9058 34.1719 33.2812 34.1719C36.6566 34.1719 39.539 31.196 39.539 27.4219L39.5391 24.2109C39.5391 23.7967 39.8749 23.4609 40.2891 23.4609C40.7033 23.4609 41.0391 23.7967 41.0391 24.2109L41.039 27.4219Z" fill="url(#paint10_radial_21186_32542)"/>
<path d="M4.52344 11.5312C3.69501 11.5312 3.02344 12.2028 3.02344 13.0312V20.9531L16.4297 22.2786L29.8359 20.9531V13.0312C29.8359 12.2028 29.1644 11.5312 28.3359 11.5312H4.52344Z" fill="url(#paint11_linear_21186_32542)"/>
<path d="M4.52344 11.5312C3.69501 11.5312 3.02344 12.2028 3.02344 13.0312V20.9531L16.4297 22.2786L29.8359 20.9531V13.0312C29.8359 12.2028 29.1644 11.5312 28.3359 11.5312H4.52344Z" fill="url(#paint12_linear_21186_32542)"/>
<path d="M4.52344 11.5312C3.69501 11.5312 3.02344 12.2028 3.02344 13.0312V20.9531L16.4297 22.2786L29.8359 20.9531V13.0312C29.8359 12.2028 29.1644 11.5312 28.3359 11.5312H4.52344Z" fill="url(#paint13_linear_21186_32542)"/>
<path d="M4.52344 11.5312C3.69501 11.5312 3.02344 12.2028 3.02344 13.0312V20.9531L16.4297 22.2786L29.8359 20.9531V13.0312C29.8359 12.2028 29.1644 11.5312 28.3359 11.5312H4.52344Z" fill="url(#paint14_linear_21186_32542)"/>
<path d="M4.52344 11.5312C3.69501 11.5312 3.02344 12.2028 3.02344 13.0312V20.9531L16.4297 22.2786L29.8359 20.9531V13.0312C29.8359 12.2028 29.1644 11.5312 28.3359 11.5312H4.52344Z" fill="url(#paint15_linear_21186_32542)"/>
<path d="M4.52344 11.5312C3.69501 11.5312 3.02344 12.2028 3.02344 13.0312V20.9531L16.4297 22.2786L29.8359 20.9531V13.0312C29.8359 12.2028 29.1644 11.5312 28.3359 11.5312H4.52344Z" fill="url(#paint16_radial_21186_32542)" fill-opacity="0.4"/>
<path d="M29.8359 24.2812L16.4297 23.3658L3.02344 24.2812V27.9375L16.4297 29.2161L29.8359 27.9375V24.2812Z" fill="url(#paint17_linear_21186_32542)"/>
<path d="M29.8359 24.2812L16.4297 23.3658L3.02344 24.2812V27.9375L16.4297 29.2161L29.8359 27.9375V24.2812Z" fill="url(#paint18_linear_21186_32542)"/>
<path d="M29.8359 24.2812L16.4297 23.3658L3.02344 24.2812V27.9375L16.4297 29.2161L29.8359 27.9375V24.2812Z" fill="url(#paint19_linear_21186_32542)"/>
<path d="M29.8359 24.2812L16.4297 23.3658L3.02344 24.2812V27.9375L16.4297 29.2161L29.8359 27.9375V24.2812Z" fill="url(#paint20_linear_21186_32542)"/>
<path d="M29.8359 24.2812L16.4297 23.3658L3.02344 24.2812V27.9375L16.4297 29.2161L29.8359 27.9375V24.2812Z" fill="url(#paint21_linear_21186_32542)"/>
<path d="M29.8359 24.2812L16.4297 23.3658L3.02344 24.2812V27.9375L16.4297 29.2161L29.8359 27.9375V24.2812Z" fill="url(#paint22_radial_21186_32542)" fill-opacity="0.4"/>
<path d="M3.02344 34.9219V31.2656L16.4297 30.4586L29.8359 31.2656V34.9219L16.4297 35.8947L3.02344 34.9219Z" fill="url(#paint23_linear_21186_32542)"/>
<path d="M3.02344 34.9219V31.2656L16.4297 30.4586L29.8359 31.2656V34.9219L16.4297 35.8947L3.02344 34.9219Z" fill="url(#paint24_linear_21186_32542)"/>
<path d="M3.02344 34.9219V31.2656L16.4297 30.4586L29.8359 31.2656V34.9219L16.4297 35.8947L3.02344 34.9219Z" fill="url(#paint25_linear_21186_32542)"/>
<path d="M3.02344 34.9219V31.2656L16.4297 30.4586L29.8359 31.2656V34.9219L16.4297 35.8947L3.02344 34.9219Z" fill="url(#paint26_linear_21186_32542)"/>
<path d="M3.02344 34.9219V31.2656L16.4297 30.4586L29.8359 31.2656V34.9219L16.4297 35.8947L3.02344 34.9219Z" fill="url(#paint27_linear_21186_32542)"/>
<path d="M3.02344 34.9219V31.2656L16.4297 30.4586L29.8359 31.2656V34.9219L16.4297 35.8947L3.02344 34.9219Z" fill="url(#paint28_radial_21186_32542)" fill-opacity="0.4"/>
<path d="M3.02344 38.25V40.1719C3.02344 41.0003 3.69501 41.6719 4.52344 41.6719H28.3359C29.1644 41.6719 29.8359 41.0003 29.8359 40.1719V38.25L16.4297 37.189L3.02344 38.25Z" fill="url(#paint29_linear_21186_32542)"/>
<path d="M3.02344 38.25V40.1719C3.02344 41.0003 3.69501 41.6719 4.52344 41.6719H28.3359C29.1644 41.6719 29.8359 41.0003 29.8359 40.1719V38.25L16.4297 37.189L3.02344 38.25Z" fill="url(#paint30_linear_21186_32542)"/>
<path d="M3.02344 38.25V40.1719C3.02344 41.0003 3.69501 41.6719 4.52344 41.6719H28.3359C29.1644 41.6719 29.8359 41.0003 29.8359 40.1719V38.25L16.4297 37.189L3.02344 38.25Z" fill="url(#paint31_linear_21186_32542)"/>
<path d="M3.02344 38.25V40.1719C3.02344 41.0003 3.69501 41.6719 4.52344 41.6719H28.3359C29.1644 41.6719 29.8359 41.0003 29.8359 40.1719V38.25L16.4297 37.189L3.02344 38.25Z" fill="url(#paint32_linear_21186_32542)"/>
<path d="M3.02344 38.25V40.1719C3.02344 41.0003 3.69501 41.6719 4.52344 41.6719H28.3359C29.1644 41.6719 29.8359 41.0003 29.8359 40.1719V38.25L16.4297 37.189L3.02344 38.25Z" fill="url(#paint33_linear_21186_32542)"/>
<path d="M3.02344 38.25V40.1719C3.02344 41.0003 3.69501 41.6719 4.52344 41.6719H28.3359C29.1644 41.6719 29.8359 41.0003 29.8359 40.1719V38.25L16.4297 37.189L3.02344 38.25Z" fill="url(#paint34_radial_21186_32542)" fill-opacity="0.4"/>
<path d="M3.02344 24.2812V20.9531H29.8359V24.2812H3.02344Z" fill="#3A92EA"/>
<path d="M3.02344 24.2812V20.9531H29.8359V24.2812H3.02344Z" fill="url(#paint35_linear_21186_32542)"/>
<path d="M3.02344 24.2812V20.9531H29.8359V24.2812H3.02344Z" fill="url(#paint36_linear_21186_32542)"/>
<path d="M3.02344 24.2812V20.9531H29.8359V24.2812H3.02344Z" fill="url(#paint37_linear_21186_32542)"/>
<path d="M3.02344 31.2656V27.9375H29.8359V31.2656H3.02344Z" fill="#3A91ED"/>
<path d="M3.02344 31.2656V27.9375H29.8359V31.2656H3.02344Z" fill="url(#paint38_linear_21186_32542)"/>
<path d="M3.02344 31.2656V27.9375H29.8359V31.2656H3.02344Z" fill="url(#paint39_linear_21186_32542)"/>
<path d="M3.02344 31.2656V27.9375H29.8359V31.2656H3.02344Z" fill="url(#paint40_linear_21186_32542)"/>
<path d="M3.02344 38.25V34.9219H29.8359V38.25H3.02344Z" fill="#3A8FF0"/>
<path d="M3.02344 38.25V34.9219H29.8359V38.25H3.02344Z" fill="url(#paint41_linear_21186_32542)"/>
<path d="M3.02344 38.25V34.9219H29.8359V38.25H3.02344Z" fill="url(#paint42_linear_21186_32542)"/>
<path d="M3.02344 38.25V34.9219H29.8359V38.25H3.02344Z" fill="url(#paint43_linear_21186_32542)"/>
<path fill-rule="evenodd" clip-rule="evenodd" d="M8.10938 10.9219C8.10938 6.35646 11.8825 2.67188 16.4297 2.67188C20.9769 2.67188 24.75 6.35646 24.75 10.9219V16.2656C24.75 16.6798 24.4142 17.0156 24 17.0156C23.5858 17.0156 23.25 16.6798 23.25 16.2656V10.9219C23.25 7.20302 20.1667 4.17188 16.4297 4.17188C12.6926 4.17188 9.60938 7.20302 9.60938 10.9219V16.2656C9.60938 16.6798 9.27359 17.0156 8.85938 17.0156C8.44516 17.0156 8.10938 16.6798 8.10938 16.2656V10.9219Z" fill="url(#paint44_radial_21186_32542)"/>
<path fill-rule="evenodd" clip-rule="evenodd" d="M8.10938 10.9219C8.10938 6.35646 11.8825 2.67188 16.4297 2.67188C20.9769 2.67188 24.75 6.35646 24.75 10.9219V16.2656C24.75 16.6798 24.4142 17.0156 24 17.0156C23.5858 17.0156 23.25 16.6798 23.25 16.2656V10.9219C23.25 7.20302 20.1667 4.17188 16.4297 4.17188C12.6926 4.17188 9.60938 7.20302 9.60938 10.9219V16.2656C9.60938 16.6798 9.27359 17.0156 8.85938 17.0156C8.44516 17.0156 8.10938 16.6798 8.10938 16.2656V10.9219Z" fill="url(#paint45_radial_21186_32542)" fill-opacity="0.9"/>
<path fill-rule="evenodd" clip-rule="evenodd" d="M8.10938 10.9219C8.10938 6.35646 11.8825 2.67188 16.4297 2.67188C20.9769 2.67188 24.75 6.35646 24.75 10.9219V16.2656C24.75 16.6798 24.4142 17.0156 24 17.0156C23.5858 17.0156 23.25 16.6798 23.25 16.2656V10.9219C23.25 7.20302 20.1667 4.17188 16.4297 4.17188C12.6926 4.17188 9.60938 7.20302 9.60938 10.9219V16.2656C9.60938 16.6798 9.27359 17.0156 8.85938 17.0156C8.44516 17.0156 8.10938 16.6798 8.10938 16.2656V10.9219Z" fill="url(#paint46_linear_21186_32542)" fill-opacity="0.9"/>
<path fill-rule="evenodd" clip-rule="evenodd" d="M8.10938 10.9219C8.10938 6.35646 11.8825 2.67188 16.4297 2.67188C20.9769 2.67188 24.75 6.35646 24.75 10.9219V16.2656C24.75 16.6798 24.4142 17.0156 24 17.0156C23.5858 17.0156 23.25 16.6798 23.25 16.2656V10.9219C23.25 7.20302 20.1667 4.17188 16.4297 4.17188C12.6926 4.17188 9.60938 7.20302 9.60938 10.9219V16.2656C9.60938 16.6798 9.27359 17.0156 8.85938 17.0156C8.44516 17.0156 8.10938 16.6798 8.10938 16.2656V10.9219Z" fill="url(#paint47_radial_21186_32542)" fill-opacity="0.9"/>
<path fill-rule="evenodd" clip-rule="evenodd" d="M8.10938 10.9219C8.10938 6.35646 11.8825 2.67188 16.4297 2.67188C20.9769 2.67188 24.75 6.35646 24.75 10.9219V16.2656C24.75 16.6798 24.4142 17.0156 24 17.0156C23.5858 17.0156 23.25 16.6798 23.25 16.2656V10.9219C23.25 7.20302 20.1667 4.17188 16.4297 4.17188C12.6926 4.17188 9.60938 7.20302 9.60938 10.9219V16.2656C9.60938 16.6798 9.27359 17.0156 8.85938 17.0156C8.44516 17.0156 8.10938 16.6798 8.10938 16.2656V10.9219Z" fill="url(#paint48_radial_21186_32542)" fill-opacity="0.9"/>
<path fill-rule="evenodd" clip-rule="evenodd" d="M8.10938 10.9219C8.10938 6.35646 11.8825 2.67188 16.4297 2.67188C20.9769 2.67188 24.75 6.35646 24.75 10.9219V16.2656C24.75 16.6798 24.4142 17.0156 24 17.0156C23.5858 17.0156 23.25 16.6798 23.25 16.2656V10.9219C23.25 7.20302 20.1667 4.17188 16.4297 4.17188C12.6926 4.17188 9.60938 7.20302 9.60938 10.9219V16.2656C9.60938 16.6798 9.27359 17.0156 8.85938 17.0156C8.44516 17.0156 8.10938 16.6798 8.10938 16.2656V10.9219Z" fill="url(#paint49_radial_21186_32542)" fill-opacity="0.9"/>
<path fill-rule="evenodd" clip-rule="evenodd" d="M8.10938 10.9219C8.10938 6.35646 11.8825 2.67188 16.4297 2.67188C20.9769 2.67188 24.75 6.35646 24.75 10.9219V16.2656C24.75 16.6798 24.4142 17.0156 24 17.0156C23.5858 17.0156 23.25 16.6798 23.25 16.2656V10.9219C23.25 7.20302 20.1667 4.17188 16.4297 4.17188C12.6926 4.17188 9.60938 7.20302 9.60938 10.9219V16.2656C9.60938 16.6798 9.27359 17.0156 8.85938 17.0156C8.44516 17.0156 8.10938 16.6798 8.10938 16.2656V10.9219Z" fill="url(#paint50_linear_21186_32542)"/>
<defs>
<linearGradient id="paint0_linear_21186_32542" x1="27.8203" y1="25.5937" x2="35.4141" y2="38.7187" gradientUnits="userSpaceOnUse">
<stop stop-color="#FEC243"/>
<stop offset="1" stop-color="#FDB046"/>
</linearGradient>
<radialGradient id="paint1_radial_21186_32542" cx="0" cy="0" r="1" gradientUnits="userSpaceOnUse" gradientTransform="translate(23.4991 40.7143) rotate(52.0795) scale(5.25448 7.14729)">
<stop offset="0.224669" stop-color="#D38D3C"/>
<stop offset="1" stop-color="#D38D3C" stop-opacity="0"/>
</radialGradient>
<linearGradient id="paint2_linear_21186_32542" x1="45.4238" y1="35.0267" x2="37.6177" y2="35.099" gradientUnits="userSpaceOnUse">
<stop offset="0.0438865" stop-color="#FAB254" stop-opacity="0.48"/>
<stop offset="0.14895" stop-color="#E8B585" stop-opacity="0.19"/>
<stop offset="0.247068" stop-color="#FFF2D2" stop-opacity="0.16"/>
<stop offset="0.317564" stop-color="#FFF0CD" stop-opacity="0.16"/>
<stop offset="0.457158" stop-color="#FEC159" stop-opacity="0"/>
<stop offset="1" stop-color="#E8B585" stop-opacity="0"/>
</linearGradient>
<linearGradient id="paint3_linear_21186_32542" x1="31.1517" y1="40.9093" x2="31.1898" y2="45.6223" gradientUnits="userSpaceOnUse">
<stop offset="0.128631" stop-color="#FDB047" stop-opacity="0"/>
<stop offset="0.832901" stop-color="#E6914B"/>
</linearGradient>
<linearGradient id="paint4_linear_21186_32542" x1="31.1517" y1="22.4788" x2="31.1517" y2="19.455" gradientUnits="userSpaceOnUse">
<stop offset="0.128631" stop-color="#FFBC46" stop-opacity="0"/>
<stop offset="0.627191" stop-color="#FCAF47"/>
</linearGradient>
<radialGradient id="paint5_radial_21186_32542" cx="0" cy="0" r="1" gradientUnits="userSpaceOnUse" gradientTransform="translate(32.6534 25.8384) rotate(-106.678) scale(10.6854 8.9705)">
<stop offset="0.157322" stop-color="#FF0000" stop-opacity="0"/>
<stop offset="0.772337" stop-color="#FF0000" stop-opacity="0"/>
<stop offset="0.849899" stop-color="white" stop-opacity="0.3"/>
<stop offset="1" stop-color="#FF0000" stop-opacity="0"/>
</radialGradient>
<radialGradient id="paint6_radial_21186_32542" cx="0" cy="0" r="1" gradientUnits="userSpaceOnUse" gradientTransform="translate(38.7843 31.3367) rotate(-130.662) scale(5.90148 5.79879)">
<stop offset="0.0651489" stop-color="#E0562D"/>
<stop offset="1" stop-color="#E55B3C" stop-opacity="0"/>
</radialGradient>
<linearGradient id="paint7_linear_21186_32542" x1="38.7592" y1="25.1166" x2="42.3938" y2="25.1338" gradientUnits="userSpaceOnUse">
<stop offset="0.155866" stop-color="#E1572E" stop-opacity="0"/>
<stop offset="0.26033" stop-color="#E1572E" stop-opacity="0.87"/>
<stop offset="0.323532" stop-color="#E1572E"/>
<stop offset="0.386557" stop-color="#E1572E" stop-opacity="0.39"/>
<stop offset="0.456025" stop-color="white" stop-opacity="0.29"/>
<stop offset="0.479854" stop-color="white" stop-opacity="0.32"/>
<stop offset="0.536502" stop-color="#E1572E" stop-opacity="0.5"/>
<stop offset="0.65313" stop-color="#E1572E" stop-opacity="0"/>
</linearGradient>
<radialGradient id="paint8_radial_21186_32542" cx="0" cy="0" r="1" gradientUnits="userSpaceOnUse" gradientTransform="translate(40.1184 23.4609) rotate(91.2846) scale(1.07388 3.5793)">
<stop offset="0.427382" stop-color="#E0562D"/>
<stop offset="1" stop-color="#E35A35" stop-opacity="0"/>
</radialGradient>
<radialGradient id="paint9_radial_21186_32542" cx="0" cy="0" r="1" gradientUnits="userSpaceOnUse" gradientTransform="translate(39.8559 24.4758) rotate(-176.255) scale(1.19801 3.99301)">
<stop offset="0.159726" stop-color="#E0562D"/>
<stop offset="0.434508" stop-color="#E35A35" stop-opacity="0"/>
</radialGradient>
<radialGradient id="paint10_radial_21186_32542" cx="0" cy="0" r="1" gradientUnits="userSpaceOnUse" gradientTransform="translate(40.7115 30.0042) rotate(110.342) scale(2.46171 1.48181)">
<stop stop-color="#E0562D"/>
<stop offset="0.931389" stop-color="#E55B3C" stop-opacity="0"/>
</radialGradient>
<linearGradient id="paint11_linear_21186_32542" x1="16.4297" y1="11.5313" x2="16.4297" y2="41.6719" gradientUnits="userSpaceOnUse">
<stop stop-color="#59C1FA"/>
<stop offset="1" stop-color="#49A8FF"/>
</linearGradient>
<linearGradient id="paint12_linear_21186_32542" x1="3.02344" y1="38.2031" x2="5.64844" y2="38.2031" gradientUnits="userSpaceOnUse">
<stop stop-color="#358ACA"/>
<stop offset="1" stop-color="#449FEE" stop-opacity="0"/>
</linearGradient>
<linearGradient id="paint13_linear_21186_32542" x1="30.7022" y1="29.4192" x2="21.4192" y2="29.5012" gradientUnits="userSpaceOnUse">
<stop offset="0.000347238" stop-color="#52B6FD" stop-opacity="0.9"/>
<stop offset="0.0920241" stop-color="#52B6FD" stop-opacity="0"/>
<stop offset="0.161088" stop-color="#E9F6FF" stop-opacity="0.16"/>
<stop offset="0.223814" stop-color="#E9F6FF" stop-opacity="0.22"/>
<stop offset="0.277332" stop-color="#E9F6FF" stop-opacity="0.24"/>
<stop offset="0.363502" stop-color="#52B6FD" stop-opacity="0.17"/>
<stop offset="1" stop-color="#52B6FD" stop-opacity="0"/>
</linearGradient>
<linearGradient id="paint14_linear_21186_32542" x1="15.9141" y1="42.375" x2="15.9141" y2="35.8125" gradientUnits="userSpaceOnUse">
<stop stop-color="#4676F8"/>
<stop offset="1" stop-color="#439AFF" stop-opacity="0"/>
</linearGradient>
<linearGradient id="paint15_linear_21186_32542" x1="16.4297" y1="11.5313" x2="16.4297" y2="14.7656" gradientUnits="userSpaceOnUse">
<stop offset="0.15942" stop-color="#61C9E8"/>
<stop offset="1" stop-color="#61C9E8" stop-opacity="0"/>
</linearGradient>
<radialGradient id="paint16_radial_21186_32542" cx="0" cy="0" r="1" gradientUnits="userSpaceOnUse" gradientTransform="translate(28.3639 14.206) rotate(89.5226) scale(1.65739 1.02964)">
<stop stop-color="white" stop-opacity="0.37"/>
<stop offset="1" stop-color="white" stop-opacity="0"/>
</radialGradient>
<linearGradient id="paint17_linear_21186_32542" x1="16.4297" y1="11.5313" x2="16.4297" y2="41.6719" gradientUnits="userSpaceOnUse">
<stop stop-color="#59C1FA"/>
<stop offset="1" stop-color="#49A8FF"/>
</linearGradient>
<linearGradient id="paint18_linear_21186_32542" x1="3.02344" y1="38.2031" x2="5.64844" y2="38.2031" gradientUnits="userSpaceOnUse">
<stop stop-color="#358ACA"/>
<stop offset="1" stop-color="#449FEE" stop-opacity="0"/>
</linearGradient>
<linearGradient id="paint19_linear_21186_32542" x1="30.7022" y1="29.4192" x2="21.4192" y2="29.5012" gradientUnits="userSpaceOnUse">
<stop offset="0.000347238" stop-color="#52B6FD" stop-opacity="0.9"/>
<stop offset="0.0920241" stop-color="#52B6FD" stop-opacity="0"/>
<stop offset="0.161088" stop-color="#E9F6FF" stop-opacity="0.16"/>
<stop offset="0.223814" stop-color="#E9F6FF" stop-opacity="0.22"/>
<stop offset="0.277332" stop-color="#E9F6FF" stop-opacity="0.24"/>
<stop offset="0.363502" stop-color="#52B6FD" stop-opacity="0.17"/>
<stop offset="1" stop-color="#52B6FD" stop-opacity="0"/>
</linearGradient>
<linearGradient id="paint20_linear_21186_32542" x1="15.9141" y1="42.375" x2="15.9141" y2="35.8125" gradientUnits="userSpaceOnUse">
<stop stop-color="#4676F8"/>
<stop offset="1" stop-color="#439AFF" stop-opacity="0"/>
</linearGradient>
<linearGradient id="paint21_linear_21186_32542" x1="16.4297" y1="11.5313" x2="16.4297" y2="14.7656" gradientUnits="userSpaceOnUse">
<stop offset="0.15942" stop-color="#61C9E8"/>
<stop offset="1" stop-color="#61C9E8" stop-opacity="0"/>
</linearGradient>
<radialGradient id="paint22_radial_21186_32542" cx="0" cy="0" r="1" gradientUnits="userSpaceOnUse" gradientTransform="translate(28.3639 14.206) rotate(89.5226) scale(1.65739 1.02964)">
<stop stop-color="white" stop-opacity="0.37"/>
<stop offset="1" stop-color="white" stop-opacity="0"/>
</radialGradient>
<linearGradient id="paint23_linear_21186_32542" x1="16.4297" y1="11.5313" x2="16.4297" y2="41.6719" gradientUnits="userSpaceOnUse">
<stop stop-color="#59C1FA"/>
<stop offset="1" stop-color="#49A8FF"/>
</linearGradient>
<linearGradient id="paint24_linear_21186_32542" x1="3.02344" y1="38.2031" x2="5.64844" y2="38.2031" gradientUnits="userSpaceOnUse">
<stop stop-color="#358ACA"/>
<stop offset="1" stop-color="#449FEE" stop-opacity="0"/>
</linearGradient>
<linearGradient id="paint25_linear_21186_32542" x1="30.7022" y1="29.4192" x2="21.4192" y2="29.5012" gradientUnits="userSpaceOnUse">
<stop offset="0.000347238" stop-color="#52B6FD" stop-opacity="0.9"/>
<stop offset="0.0920241" stop-color="#52B6FD" stop-opacity="0"/>
<stop offset="0.161088" stop-color="#E9F6FF" stop-opacity="0.16"/>
<stop offset="0.223814" stop-color="#E9F6FF" stop-opacity="0.22"/>
<stop offset="0.277332" stop-color="#E9F6FF" stop-opacity="0.24"/>
<stop offset="0.363502" stop-color="#52B6FD" stop-opacity="0.17"/>
<stop offset="1" stop-color="#52B6FD" stop-opacity="0"/>
</linearGradient>
<linearGradient id="paint26_linear_21186_32542" x1="15.9141" y1="42.375" x2="15.9141" y2="35.8125" gradientUnits="userSpaceOnUse">
<stop stop-color="#4676F8"/>
<stop offset="1" stop-color="#439AFF" stop-opacity="0"/>
</linearGradient>
<linearGradient id="paint27_linear_21186_32542" x1="16.4297" y1="11.5313" x2="16.4297" y2="14.7656" gradientUnits="userSpaceOnUse">
<stop offset="0.15942" stop-color="#61C9E8"/>
<stop offset="1" stop-color="#61C9E8" stop-opacity="0"/>
</linearGradient>
<radialGradient id="paint28_radial_21186_32542" cx="0" cy="0" r="1" gradientUnits="userSpaceOnUse" gradientTransform="translate(28.3639 14.206) rotate(89.5226) scale(1.65739 1.02964)">
<stop stop-color="white" stop-opacity="0.37"/>
<stop offset="1" stop-color="white" stop-opacity="0"/>
</radialGradient>
<linearGradient id="paint29_linear_21186_32542" x1="16.4297" y1="11.5313" x2="16.4297" y2="41.6719" gradientUnits="userSpaceOnUse">
<stop stop-color="#59C1FA"/>
<stop offset="1" stop-color="#49A8FF"/>
</linearGradient>
<linearGradient id="paint30_linear_21186_32542" x1="3.02344" y1="38.2031" x2="5.64844" y2="38.2031" gradientUnits="userSpaceOnUse">
<stop stop-color="#358ACA"/>
<stop offset="1" stop-color="#449FEE" stop-opacity="0"/>
</linearGradient>
<linearGradient id="paint31_linear_21186_32542" x1="30.7022" y1="29.4192" x2="21.4192" y2="29.5012" gradientUnits="userSpaceOnUse">
<stop offset="0.000347238" stop-color="#52B6FD" stop-opacity="0.9"/>
<stop offset="0.0920241" stop-color="#52B6FD" stop-opacity="0"/>
<stop offset="0.161088" stop-color="#E9F6FF" stop-opacity="0.16"/>
<stop offset="0.223814" stop-color="#E9F6FF" stop-opacity="0.22"/>
<stop offset="0.277332" stop-color="#E9F6FF" stop-opacity="0.24"/>
<stop offset="0.363502" stop-color="#52B6FD" stop-opacity="0.17"/>
<stop offset="1" stop-color="#52B6FD" stop-opacity="0"/>
</linearGradient>
<linearGradient id="paint32_linear_21186_32542" x1="15.9141" y1="42.375" x2="15.9141" y2="35.8125" gradientUnits="userSpaceOnUse">
<stop stop-color="#4676F8"/>
<stop offset="1" stop-color="#439AFF" stop-opacity="0"/>
</linearGradient>
<linearGradient id="paint33_linear_21186_32542" x1="16.4297" y1="11.5313" x2="16.4297" y2="14.7656" gradientUnits="userSpaceOnUse">
<stop offset="0.15942" stop-color="#61C9E8"/>
<stop offset="1" stop-color="#61C9E8" stop-opacity="0"/>
</linearGradient>
<radialGradient id="paint34_radial_21186_32542" cx="0" cy="0" r="1" gradientUnits="userSpaceOnUse" gradientTransform="translate(28.3639 14.206) rotate(89.5226) scale(1.65739 1.02964)">
<stop stop-color="white" stop-opacity="0.37"/>
<stop offset="1" stop-color="white" stop-opacity="0"/>
</radialGradient>
<linearGradient id="paint35_linear_21186_32542" x1="3.02344" y1="23.25" x2="5.78906" y2="23.25" gradientUnits="userSpaceOnUse">
<stop offset="0.196078" stop-color="#2A81CD"/>
<stop offset="1" stop-color="#2A81CD" stop-opacity="0"/>
</linearGradient>
<linearGradient id="paint36_linear_21186_32542" x1="29.8359" y1="23.25" x2="27.2109" y2="23.25" gradientUnits="userSpaceOnUse">
<stop stop-color="#51A9F3"/>
<stop offset="1" stop-color="#51A9F3" stop-opacity="0"/>
</linearGradient>
<linearGradient id="paint37_linear_21186_32542" x1="29.8359" y1="24.2813" x2="28.6172" y2="24.2813" gradientUnits="userSpaceOnUse">
<stop stop-color="#3C97EE"/>
<stop offset="1" stop-color="#3C97EE" stop-opacity="0"/>
</linearGradient>
<linearGradient id="paint38_linear_21186_32542" x1="3.02344" y1="30.2344" x2="5.78906" y2="30.2344" gradientUnits="userSpaceOnUse">
<stop offset="0.196078" stop-color="#2A81CD"/>
<stop offset="1" stop-color="#2A81CD" stop-opacity="0"/>
</linearGradient>
<linearGradient id="paint39_linear_21186_32542" x1="29.8359" y1="30.2344" x2="27.2109" y2="30.2344" gradientUnits="userSpaceOnUse">
<stop stop-color="#51A9F3"/>
<stop offset="1" stop-color="#51A9F3" stop-opacity="0"/>
</linearGradient>
<linearGradient id="paint40_linear_21186_32542" x1="29.8359" y1="31.2656" x2="28.6172" y2="31.2656" gradientUnits="userSpaceOnUse">
<stop stop-color="#3C97EE"/>
<stop offset="1" stop-color="#3C97EE" stop-opacity="0"/>
</linearGradient>
<linearGradient id="paint41_linear_21186_32542" x1="3.02344" y1="37.2188" x2="5.78906" y2="37.2188" gradientUnits="userSpaceOnUse">
<stop offset="0.196078" stop-color="#2A81CD"/>
<stop offset="1" stop-color="#2A81CD" stop-opacity="0"/>
</linearGradient>
<linearGradient id="paint42_linear_21186_32542" x1="29.8359" y1="37.2188" x2="27.2109" y2="37.2188" gradientUnits="userSpaceOnUse">
<stop stop-color="#51A9F3"/>
<stop offset="1" stop-color="#51A9F3" stop-opacity="0"/>
</linearGradient>
<linearGradient id="paint43_linear_21186_32542" x1="29.8359" y1="38.25" x2="28.6172" y2="38.25" gradientUnits="userSpaceOnUse">
<stop stop-color="#3C97EE"/>
<stop offset="1" stop-color="#3C97EE" stop-opacity="0"/>
</linearGradient>
<radialGradient id="paint44_radial_21186_32542" cx="0" cy="0" r="1" gradientUnits="userSpaceOnUse" gradientTransform="translate(12.7266 4.17188) rotate(72.9753) scale(12.648 14.9099)">
<stop stop-color="#2C94E3"/>
<stop offset="1" stop-color="#2C9CEB"/>
</radialGradient>
<radialGradient id="paint45_radial_21186_32542" cx="0" cy="0" r="1" gradientUnits="userSpaceOnUse" gradientTransform="translate(16.4297 13.6637) rotate(90) scale(21.0112 16.7743)">
<stop offset="0.416331" stop-color="#2C98E8" stop-opacity="0"/>
<stop offset="0.484064" stop-color="#4FA9EE"/>
<stop offset="0.499615" stop-color="#4FA9EE"/>
<stop offset="0.546152" stop-color="#2C98E8" stop-opacity="0"/>
</radialGradient>
<linearGradient id="paint46_linear_21186_32542" x1="5.60442" y1="16.0866" x2="26.7375" y2="16.1764" gradientUnits="userSpaceOnUse">
<stop offset="0.111594" stop-color="#288BD8"/>
<stop offset="0.152774" stop-color="#4FA9EE"/>
<stop offset="0.199446" stop-color="#2C98E8" stop-opacity="0"/>
<stop offset="0.821864" stop-color="#2C98E8" stop-opacity="0"/>
<stop offset="0.871166" stop-color="#4FA9EE"/>
<stop offset="0.881981" stop-color="#4FA9EE"/>
<stop offset="0.910572" stop-color="#3494DE"/>
</linearGradient>
<radialGradient id="paint47_radial_21186_32542" cx="0" cy="0" r="1" gradientUnits="userSpaceOnUse" gradientTransform="translate(8.82831 17.0156) scale(2.55765 2.0419)">
<stop offset="0.113523" stop-color="#278CDB"/>
<stop offset="0.895852" stop-color="#3796E0" stop-opacity="0"/>
</radialGradient>
<radialGradient id="paint48_radial_21186_32542" cx="0" cy="0" r="1" gradientUnits="userSpaceOnUse" gradientTransform="translate(24.1191 17.0156) rotate(180) scale(2.1333 1.06113)">
<stop offset="0.113523" stop-color="#288EDD"/>
<stop offset="0.895852" stop-color="#3796E0" stop-opacity="0"/>
</radialGradient>
<radialGradient id="paint49_radial_21186_32542" cx="0" cy="0" r="1" gradientUnits="userSpaceOnUse" gradientTransform="translate(9.99217 6.25482) rotate(52.6648) scale(8.53095 11.2084)">
<stop offset="0.113523" stop-color="#288EDD"/>
<stop offset="0.732873" stop-color="#3796E0" stop-opacity="0"/>
</radialGradient>
<linearGradient id="paint50_linear_21186_32542" x1="21" y1="10.4996" x2="25.3888" y2="9.63236" gradientUnits="userSpaceOnUse">
<stop offset="0.646541" stop-color="#2C98E8" stop-opacity="0"/>
<stop offset="0.855689" stop-color="#3494DE"/>
</linearGradient>
</defs>
</svg>
