<svg width="43" height="43" viewBox="0 0 43 43" fill="none" xmlns="http://www.w3.org/2000/svg">
<g opacity="0.3">
<path d="M21.25 7.25C28.982 7.25 35.25 13.518 35.25 21.25C35.25 28.982 28.982 35.25 21.25 35.25C13.518 35.25 7.25 28.982 7.25 21.25C7.25 13.518 13.518 7.25 21.25 7.25Z" stroke="#079455" stroke-width="2"/>
</g>
<g opacity="0.1">
<path d="M21.25 1C32.4338 1 41.5 10.0662 41.5 21.25C41.5 32.4338 32.4338 41.5 21.25 41.5C10.0662 41.5 1 32.4338 1 21.25C1 10.0662 10.0662 1 21.25 1Z" stroke="#079455" stroke-width="2"/>
</g>
<path d="M17.5013 21.25L20.0013 23.75L25.0013 18.75M29.5846 21.25C29.5846 25.8524 25.8537 29.5834 21.2513 29.5834C16.6489 29.5834 12.918 25.8524 12.918 21.25C12.918 16.6476 16.6489 12.9167 21.2513 12.9167C25.8537 12.9167 29.5846 16.6476 29.5846 21.25Z" stroke="#079455" stroke-width="1.33333" stroke-linecap="round" stroke-linejoin="round"/>
</svg>
