<svg width="38" height="38" viewBox="0 0 38 38" fill="none" xmlns="http://www.w3.org/2000/svg">
<g opacity="0.3">
<path d="M19 6C26.1797 6 32 11.8203 32 19C32 26.1797 26.1797 32 19 32C11.8203 32 6 26.1797 6 19C6 11.8203 11.8203 6 19 6Z" stroke="#D92D20" stroke-width="2"/>
</g>
<g opacity="0.1">
<path d="M19 1C28.9411 1 37 9.05887 37 19C37 28.9411 28.9411 37 19 37C9.05887 37 1 28.9411 1 19C1 9.05887 9.05887 1 19 1Z" stroke="#D92D20" stroke-width="2"/>
</g>
<path d="M22.3333 14V13.3333C22.3333 12.3999 22.3333 11.9332 22.1517 11.5767C21.9919 11.2631 21.7369 11.0081 21.4233 10.8483C21.0668 10.6667 20.6001 10.6667 19.6667 10.6667H18.3333C17.3999 10.6667 16.9332 10.6667 16.5767 10.8483C16.2631 11.0081 16.0081 11.2631 15.8483 11.5767C15.6667 11.9332 15.6667 12.3999 15.6667 13.3333V14M17.3333 18.5833V22.75M20.6667 18.5833V22.75M11.5 14H26.5M24.8333 14V23.3333C24.8333 24.7335 24.8333 25.4335 24.5608 25.9683C24.3212 26.4387 23.9387 26.8212 23.4683 27.0608C22.9335 27.3333 22.2335 27.3333 20.8333 27.3333H17.1667C15.7665 27.3333 15.0665 27.3333 14.5317 27.0608C14.0613 26.8212 13.6788 26.4387 13.4392 25.9683C13.1667 25.4335 13.1667 24.7335 13.1667 23.3333V14" stroke="#D92D20" stroke-width="1.66667" stroke-linecap="round" stroke-linejoin="round"/>
</svg>
